<?xml version="1.0" encoding="utf-8"?>
<!-- Generator: Adobe Illustrator 21.0.0, SVG Export Plug-In . SVG Version: 6.00 Build 0)  -->
<svg version="1.1" id="Layer_1" xmlns="http://www.w3.org/2000/svg" xmlns:xlink="http://www.w3.org/1999/xlink" x="0px" y="0px"
	 viewBox="0 0 82 82" style="enable-background:new 0 0 82 82;" xml:space="preserve">
<style type="text/css">
	.st0{fill:#F9F9F9;}
	.st1{fill:url(#Combined-Shape_2_);}
</style>
<title>基本档案类</title>
<desc>Created with Sketch.</desc>
<rect x="29.6" y="21" class="st0" width="32.8" height="6.5"/>
<rect x="29.6" y="37.3" class="st0" width="32.8" height="6.5"/>
<path class="st0" d="M82,50.1h-3.2v-39c0-1.7-1.5-3.1-3.3-3.1h-59c-1.8,0-3.3,1.4-3.3,3.1v39H5v31.4c0,0.2,0,0.4,0.1,0.5H82V50.1z
	 M72.2,48.5h-7.4L56.6,56H35.4l-8.2-7.6h-7.4V12.9h52.5V48.5z"/>
<linearGradient id="Combined-Shape_2_" gradientUnits="userSpaceOnUse" x1="-446.05" y1="529.7321" x2="-446.05" y2="528.7321" gradientTransform="matrix(40 0 0 -37.3333 17883 19799.666)">
	<stop  offset="0" style="stop-color:#FFBB37"/>
	<stop  offset="1" style="stop-color:#FFC961"/>
</linearGradient>
<path id="Combined-Shape_1_" class="st1" d="M57,43.5h4v15.3c0,0.8-0.7,1.5-1.6,1.5H22.6c-0.9,0-1.6-0.7-1.6-1.5V43.5h4v-19
	c0-0.8,0.7-1.5,1.6-1.5h28.8c0.9,0,1.6,0.7,1.6,1.5V43.5z M53.8,42.7V25.4H28.2v17.4h3.6l4,3.7h10.3l4-3.7H53.8z M33,40.5v-3.2h16
	v3.2H33z M33,32.5v-3.2h16v3.2H33z"/>
</svg>
