<?xml version="1.0" encoding="utf-8"?>
<!-- Generator: Adobe Illustrator 21.0.0, SVG Export Plug-In . SVG Version: 6.00 Build 0)  -->
<svg version="1.1" id="Layer_1" xmlns="http://www.w3.org/2000/svg" xmlns:xlink="http://www.w3.org/1999/xlink" x="0px" y="0px"
	 viewBox="0 0 82 82" style="enable-background:new 0 0 82 82;" xml:space="preserve">
<style type="text/css">
	.st0{fill:#F9F9F9;}
	.st1{fill:url(#SVGID_1_);}
	.st2{fill:url(#SVGID_2_);}
</style>
<title>业务设置类</title>
<desc>Created with Sketch.</desc>
<g>
	<ellipse class="st0" cx="46.8" cy="60.4" rx="5.1" ry="4.8"/>
	<path class="st0" d="M78.5,5H14c-3.3,0-6,2.6-6,5.9v70.2c0,3.3,2.7,5.9,6,5.9h64.6c3.3,0,6-2.6,6-5.9V10.9C84.5,7.6,81.9,5,78.5,5z
		 M57.4,60.1c0,0.6-0.1,1.2-0.2,1.8l2.2,1.9c0.4,0.3,0.4,0.8,0.2,1.2l-2.2,3.7c-0.2,0.4-0.7,0.6-1.2,0.4l-2.9-0.9
		c-1,0.8-2.1,1.4-3.3,1.8l-0.7,2.8c-0.1,0.4-0.5,0.8-1,0.8H44c-0.5,0-0.9-0.3-1-0.8L42.4,70c-1.2-0.4-2.3-1-3.3-1.8l-2.9,0.9
		c-0.5,0.1-0.9,0-1.2-0.4L32.8,65c-0.2-0.4-0.2-0.9,0.2-1.2l2.2-1.9c-0.1-0.6-0.2-1.2-0.2-1.8c0-0.6,0.1-1.2,0.2-1.8L33,56.4
		c-0.4-0.3-0.4-0.8-0.2-1.2l2.2-3.7c0.2-0.4,0.7-0.6,1.2-0.4l2.9,0.9c1-0.8,2.1-1.4,3.3-1.8l0.7-2.8c0.1-0.4,0.5-0.8,1-0.8h4.5
		c0.5,0,0.9,0.3,1,0.8l0.7,2.8c1.2,0.4,2.3,1,3.3,1.8l2.9-0.9c0.5-0.1,0.9,0,1.2,0.4l2.2,3.7c0.2,0.4,0.2,0.9-0.2,1.2l-2.2,1.9
		C57.4,58.9,57.4,59.5,57.4,60.1z M65.1,37.9H24.4c-1.2,0-2.2-1-2.2-2.2c0-1.2,1-2.2,2.2-2.2h40.7c1.2,0,2.2,1,2.2,2.2
		C67.3,36.9,66.3,37.9,65.1,37.9z M65.1,26.4H24.4c-1.2,0-2.2-1-2.2-2.2c0-1.2,1-2.2,2.2-2.2h40.7c1.2,0,2.2,1,2.2,2.2
		C67.3,25.4,66.3,26.4,65.1,26.4z"/>
</g>
<g>
	<linearGradient id="SVGID_1_" gradientUnits="userSpaceOnUse" x1="40.885" y1="50.8271" x2="40.885" y2="45.9043">
		<stop  offset="0" style="stop-color:#E87672"/>
		<stop  offset="1" style="stop-color:#E14C46"/>
	</linearGradient>
	<ellipse class="st1" cx="40.9" cy="48.4" rx="2.6" ry="2.5"/>
	<linearGradient id="SVGID_2_" gradientUnits="userSpaceOnUse" x1="40.6" y1="62" x2="40.6" y2="20">
		<stop  offset="0" style="stop-color:#E87672"/>
		<stop  offset="1" style="stop-color:#E14C46"/>
	</linearGradient>
	<path class="st2" d="M57.1,20H24.1c-1.7,0-3.1,1.4-3.1,3v36c0,1.7,1.4,3,3.1,3h33.1c1.7,0,3.1-1.4,3.1-3V23
		C60.2,21.4,58.8,20,57.1,20z M46.3,48.2c0,0.3,0,0.6-0.1,0.9l1.1,1c0.2,0.2,0.2,0.4,0.1,0.6l-1.1,1.9c-0.1,0.2-0.4,0.3-0.6,0.2
		l-1.5-0.4c-0.5,0.4-1.1,0.7-1.7,0.9l-0.3,1.4c-0.1,0.2-0.3,0.4-0.5,0.4h-2.3c-0.2,0-0.5-0.2-0.5-0.4l-0.3-1.4
		c-0.6-0.2-1.2-0.5-1.7-0.9l-1.5,0.4c-0.2,0.1-0.5,0-0.6-0.2l-1.1-1.9c-0.1-0.2-0.1-0.5,0.1-0.6l1.1-1c-0.1-0.3-0.1-0.6-0.1-0.9
		s0-0.6,0.1-0.9l-1.1-1c-0.2-0.2-0.2-0.4-0.1-0.6l1.1-1.9c0.1-0.2,0.4-0.3,0.6-0.2l1.5,0.4c0.5-0.4,1.1-0.7,1.7-0.9l0.3-1.4
		c0.1-0.2,0.3-0.4,0.5-0.4h2.3c0.2,0,0.5,0.2,0.5,0.4l0.3,1.4c0.6,0.2,1.2,0.5,1.7,0.9l1.5-0.4c0.2-0.1,0.5,0,0.6,0.2l1.1,1.9
		c0.1,0.2,0.1,0.5-0.1,0.6l-1.1,1C46.3,47.6,46.3,47.9,46.3,48.2z M50.2,36.9H29.4c-0.6,0-1.1-0.5-1.1-1.1c0-0.6,0.5-1.1,1.1-1.1
		h20.8c0.6,0,1.1,0.5,1.1,1.1C51.4,36.4,50.9,36.9,50.2,36.9z M50.2,31H29.4c-0.6,0-1.1-0.5-1.1-1.1s0.5-1.1,1.1-1.1h20.8
		c0.6,0,1.1,0.5,1.1,1.1S50.9,31,50.2,31z"/>
</g>
</svg>
