<?xml version="1.0" encoding="utf-8"?>
<!-- Generator: Adobe Illustrator 21.0.0, SVG Export Plug-In . SVG Version: 6.00 Build 0)  -->
<svg version="1.1" id="Layer_1" xmlns="http://www.w3.org/2000/svg" xmlns:xlink="http://www.w3.org/1999/xlink" x="0px" y="0px"
	 viewBox="0 0 82 82" style="enable-background:new 0 0 82 82;" xml:space="preserve">
<style type="text/css">
	.st0{fill:#F9F9F9;}
	.st1{fill:url(#Combined-Shape_2_);}
</style>
<title>单据维护类</title>
<desc>Created with Sketch.</desc>
<path class="st0" d="M82,80.8V57.6c-2.9-2.8-6.8-4.5-11.2-4.5c-8.9,0-16.2,7.2-16.2,16.1c0,5.2,2.5,9.9,6.4,12.8h19.5
	C81.1,81.6,81.5,81.2,82,80.8z M67.4,77l-5.3-7.1c0,0-0.6-1,0.2-1.5c0.3-0.2,0.9-0.5,1.6,0.2l4.7,3.7L78.9,63c0,0,0.8-0.7,1.5-0.2
	c0.2,0.2,0.4,0.6-0.1,1.4L69.5,77C69.5,77,68.5,78.3,67.4,77z"/>
<path class="st0" d="M50.3,68.5c0-11.4,9.7-20,21.1-20c2.3,0,5,0.4,7.3,1.1V13.8c0-4.3-3.5-7.8-7.8-7.8H11.6C8,6,5,8.9,5,12.5v62.6
	C5,78.3,7,81,9.8,82h45.6C52.1,79.5,50.3,73.9,50.3,68.5z M20,26.6h39.6c1.3,0,2.4,1,2.4,2.3c0,1.3-1.1,2.3-2.4,2.3H20
	c-1.3,0-2.4-1-2.4-2.3C17.7,27.6,18.7,26.6,20,26.6z M43.1,44.9H20c-1.3,0-2.4-1-2.4-2.3c0-1.3,1.1-2.3,2.4-2.3h23
	c1.3,0,2.4,1,2.4,2.3C45.4,43.9,44.4,44.9,43.1,44.9z"/>
<linearGradient id="Combined-Shape_2_" gradientUnits="userSpaceOnUse" x1="-446.5952" y1="530.7192" x2="-446.5952" y2="529.7192" gradientTransform="matrix(42 0 0 -40.6 18798 21568.1992)">
	<stop  offset="0" style="stop-color:#00CDB5"/>
	<stop  offset="1" style="stop-color:#00E6CD"/>
</linearGradient>
<path id="Combined-Shape_1_" class="st1" d="M39.5,40.9H27.7c-0.7,0-1.2-0.5-1.2-1.2c0-0.7,0.5-1.2,1.2-1.2h11.8
	c0.7,0,1.2,0.5,1.2,1.2C40.7,40.4,40.2,40.9,39.5,40.9 M27.7,31.5H48c0.7,0,1.2,0.5,1.2,1.2c0,0.7-0.5,1.2-1.2,1.2H27.7
	c-0.7,0-1.2-0.5-1.2-1.2C26.5,32,27,31.5,27.7,31.5 M54,42.8c1.2,0,2.5,0.2,3.7,0.6V25c0-2.2-1.8-4-4-4H23.4c-1.9,0-3.4,1.5-3.4,3.4
	v32.1c0,2.1,1.7,3.7,3.8,3.7h9.7h12.7c-1.9-1.2-2.9-4.2-2.9-7.1C43.2,47.2,48.2,42.8,54,42.8 M58.6,50.8L53,57.4c0,0-0.5,0.7-1.1,0
	l-2.7-3.6c0,0-0.3-0.5,0.1-0.8c0.1-0.1,0.4-0.3,0.8,0.1l2.4,1.9l5.3-4.7c0,0,0.4-0.4,0.8-0.1C58.7,50.2,58.8,50.5,58.6,50.8
	 M53.7,45.1c-4.6,0-8.3,3.7-8.3,8.2c0,4.5,3.7,8.2,8.3,8.2s8.3-3.7,8.3-8.2C62,48.8,58.3,45.1,53.7,45.1"/>
</svg>
