<?xml version="1.0" encoding="utf-8"?>
<!-- Generator: Adobe Illustrator 22.1.0, SVG Export Plug-In . SVG Version: 6.00 Build 0)  -->
<svg version="1.1" id="图层_1" xmlns="http://www.w3.org/2000/svg" xmlns:xlink="http://www.w3.org/1999/xlink" x="0px" y="0px"
	 viewBox="0 0 82 82" style="enable-background:new 0 0 82 82;" xml:space="preserve">
<style type="text/css">
	.st0{fill:#F9F9F9;}
	.st1{fill:url(#SVGID_1_);}
	.st2{fill:url(#SVGID_2_);}
</style>
<title>凭证处理类</title>
<desc>Created with Sketch.</desc>
<path class="st0" d="M76.2,32.6H25.3c-0.3,0-0.5,0.2-0.5,0.5v30.2c0,0.3,0.2,0.5,0.5,0.5h50.9c0.3,0,0.5-0.2,0.5-0.5V33.1
	C76.8,32.8,76.5,32.6,76.2,32.6z M68.5,57.8H33.1c-0.9,0-1.6-0.7-1.6-1.6s0.7-1.6,1.6-1.6h35.4c0.9,0,1.6,0.7,1.6,1.6
	S69.3,57.8,68.5,57.8z M68.5,49.8H33.1c-0.9,0-1.6-0.7-1.6-1.6c0-0.9,0.7-1.6,1.6-1.6h35.4c0.9,0,1.6,0.7,1.6,1.6
	C70.1,49.1,69.3,49.8,68.5,49.8z M68.5,41.9H33.1c-0.9,0-1.6-0.7-1.6-1.6s0.7-1.6,1.6-1.6h35.4c0.9,0,1.6,0.7,1.6,1.6
	S69.3,41.9,68.5,41.9z"/>
<path class="st0" d="M82,7H11.5c-3,0-5.4,2.4-5.4,5.4v64.7c0,2.2,1.3,4,3.1,4.9H82V7z M41.6,22.4h17.9c0.9,0,1.6,0.7,1.6,1.6
	s-0.7,1.6-1.6,1.6H41.6c-0.9,0-1.6-0.7-1.6-1.6S40.7,22.4,41.6,22.4z M80,63.3c0,2.1-1.7,3.8-3.8,3.8H25.3c-2.1,0-3.8-1.7-3.8-3.8
	V33.1c0-2.1,1.7-3.8,3.8-3.8h50.9c2.1,0,3.8,1.7,3.8,3.8V63.3z"/>
<g id="凭证-selected_1_" transform="translate(20.000000, 24.000000)">
	<linearGradient id="SVGID_1_" gradientUnits="userSpaceOnUse" x1="20.3902" y1="25.9055" x2="20.3902" y2="11.6501">
		<stop  offset="0" style="stop-color:#00CDB5"/>
		<stop  offset="1" style="stop-color:#00E6CD"/>
	</linearGradient>
	<path class="st1" d="M32,11.7H8.8c-0.1,0-0.2,0.1-0.2,0.2v13.8c0,0.1,0.1,0.2,0.2,0.2H32c0.1,0,0.2-0.1,0.2-0.2V11.9
		C32.2,11.8,32.1,11.7,32,11.7z M28.5,23.2H12.3c-0.4,0-0.7-0.3-0.7-0.7c0-0.4,0.3-0.7,0.7-0.7h16.1c0.4,0,0.7,0.3,0.7,0.7
		C29.2,22.8,28.9,23.2,28.5,23.2z M28.5,19.5H12.3c-0.4,0-0.7-0.3-0.7-0.7s0.3-0.7,0.7-0.7h16.1c0.4,0,0.7,0.3,0.7,0.7
		S28.9,19.5,28.5,19.5z M28.5,15.9H12.3c-0.4,0-0.7-0.3-0.7-0.7c0-0.4,0.3-0.7,0.7-0.7h16.1c0.4,0,0.7,0.3,0.7,0.7
		C29.2,15.5,28.9,15.9,28.5,15.9z"/>
	<linearGradient id="SVGID_2_" gradientUnits="userSpaceOnUse" x1="20.4024" y1="34.4096" x2="20.4024" y2="-9.094947e-13">
		<stop  offset="0" style="stop-color:#00CDB5"/>
		<stop  offset="1" style="stop-color:#00E6CD"/>
	</linearGradient>
	<path class="st2" d="M38.3,0H2.5C1.1,0,0,1.1,0,2.5V32c0,1.4,1.1,2.5,2.5,2.5h35.8c1.4,0,2.5-1.1,2.5-2.5V2.5
		C40.8,1.1,39.7,0,38.3,0z M16.2,7h8.1c0.4,0,0.7,0.3,0.7,0.7c0,0.4-0.3,0.7-0.7,0.7h-8.1c-0.4,0-0.7-0.3-0.7-0.7
		C15.5,7.4,15.8,7,16.2,7z M33.7,25.7c0,0.9-0.8,1.7-1.7,1.7H8.8c-0.9,0-1.7-0.8-1.7-1.7V11.9c0-0.9,0.8-1.7,1.7-1.7H32
		c0.9,0,1.7,0.8,1.7,1.7V25.7z"/>
</g>
</svg>
