<?xml version="1.0" encoding="utf-8"?>
<!-- Generator: Adobe Illustrator 21.0.0, SVG Export Plug-In . SVG Version: 6.00 Build 0)  -->
<svg version="1.1" id="Layer_1" xmlns="http://www.w3.org/2000/svg" xmlns:xlink="http://www.w3.org/1999/xlink" x="0px" y="0px"
	 viewBox="0 0 82 82" style="enable-background:new 0 0 82 82;" xml:space="preserve">
<style type="text/css">
	.st0{fill:#F0F0F0;}
	.st1{fill:url(#Fill-8_2_);}
</style>
<title>默认磁贴类5</title>
<desc>Created with Sketch.</desc>
<g id="默认磁贴类5">
	<g id="Group" transform="translate(5.000000, 11.000000)">
		<path class="st0" d="M49.2,1.9c-1.7-1.8-4.4-2.3-6.6-1.5C42,0.7,7.2,19,7.2,19L54.7,7.7L49.2,1.9z"/>
		<path class="st0" d="M0,26.1v39.1c0,2.8,2.3,5.1,5.1,5.1h5.7V21H5.1C2.3,21,0,23.3,0,26.1z"/>
		<path class="st0" d="M74,18.5l-3.9-6.9c-1.3-2.3-3.9-3.3-6.3-2.9c-0.6,0.1-41.9,9.8-41.9,9.8H74z"/>
		<path class="st0" d="M75.3,20.9H14v49.4h61.3c0.6,0,1.2-0.1,1.7-0.2v-49C76.5,21,75.9,20.9,75.3,20.9z M65.8,52.9H28.5
			c-0.9,0-1.7-0.8-1.7-1.7c0-0.9,0.8-1.7,1.7-1.7h37.3c0.9,0,1.7,0.8,1.7,1.7C67.5,52.2,66.7,52.9,65.8,52.9z M65.8,39.8H28.5
			c-0.9,0-1.7-0.8-1.7-1.7c0-0.9,0.8-1.7,1.7-1.7h37.3c0.9,0,1.7,0.8,1.7,1.7C67.5,39,66.7,39.8,65.8,39.8z"/>
		<path class="st0" d="M65.8,49.5H28.5c-0.9,0-1.7,0.8-1.7,1.7c0,0.9,0.8,1.7,1.7,1.7h37.3c0.9,0,1.7-0.8,1.7-1.7
			C67.5,50.3,66.7,49.5,65.8,49.5z"/>
		<path class="st0" d="M65.8,36.3H28.5c-0.9,0-1.7,0.8-1.7,1.7c0,0.9,0.8,1.7,1.7,1.7h37.3c0.9,0,1.7-0.8,1.7-1.7
			C67.5,37.1,66.7,36.3,65.8,36.3z"/>
		
			<linearGradient id="Fill-8_2_" gradientUnits="userSpaceOnUse" x1="-451.5952" y1="518.2833" x2="-451.5952" y2="517.2833" gradientTransform="matrix(42 0 0 -36.0157 19003 18678.3164)">
			<stop  offset="0" style="stop-color:#FFBB37"/>
			<stop  offset="1" style="stop-color:#FFC961"/>
		</linearGradient>
		<path id="Fill-8_1_" class="st1" d="M48.7,39.1H29.6c-0.5,0-0.9-0.4-0.9-0.9c0-0.5,0.4-0.9,0.9-0.9h19.1c0.5,0,0.9,0.4,0.9,0.9
			C49.6,38.7,49.2,39.1,48.7,39.1z M48.7,32.4H29.6c-0.5,0-0.9-0.4-0.9-0.9c0-0.5,0.4-0.9,0.9-0.9h19.1c0.5,0,0.9,0.4,0.9,0.9
			C49.6,32,49.2,32.4,48.7,32.4z M53.6,22.7c1.9,0,3.4,1.5,3.4,3.4v18.4c0,1.9-1.5,3.4-3.4,3.4H22.2V22.7H53.6z M50.9,17.9l2,3.5
			H26.2c0,0,21.1-5,21.4-5C48.9,16.2,50.2,16.8,50.9,17.9z M40.2,13l2.8,3l-24.3,5.8c0,0,17.8-9.4,18.2-9.5C38,11.8,39.3,12,40.2,13
			z M17.6,48c-1.5,0-2.6-1.2-2.6-2.6v-20c0-1.5,1.2-2.6,2.6-2.6h2.9V48H17.6z"/>
	</g>
</g>
</svg>
