<?xml version="1.0" encoding="utf-8"?>
<!-- Generator: Adobe Illustrator 21.0.0, SVG Export Plug-In . SVG Version: 6.00 Build 0)  -->
<svg version="1.1" id="Layer_1" xmlns="http://www.w3.org/2000/svg" xmlns:xlink="http://www.w3.org/1999/xlink" x="0px" y="0px"
	 viewBox="0 0 82 82" style="enable-background:new 0 0 82 82;" xml:space="preserve">
<style type="text/css">
	.st0{fill:#F0F0F0;}
	.st1{fill:url(#SVGID_1_);}
	.st2{fill:url(#SVGID_2_);}
</style>
<title>默认磁贴类8</title>
<desc>Created with Sketch.</desc>
<path class="st0" d="M25.3,32.8h4.4l-3.8-3.9c-0.8-0.8-0.8-2.1,0-2.8c0.8-0.8,2-0.8,2.8,0l6.5,6.6l6.5-6.6c0.8-0.8,2-0.8,2.8,0
	c0.8,0.8,0.8,2.1,0,2.8l-3.8,3.9h4.4c1.1,0,2,0.9,2,2s-0.9,2-2,2H37v6h5.1c1.1,0,2,0.9,2,2c0,1.1-0.9,2-2,2H37v6h-3.9v-6H28
	c-1.1,0-2-0.9-2-2c0-1.1,0.9-2,2-2h5.1v-6h-7.9c-1.1,0-2-0.9-2-2S24.2,32.8,25.3,32.8"/>
<g>
	<path class="st0" d="M22.9,62.7L60,43.5c0.3-1.7,0.5-3.5,0.5-5.3c0-15-11.8-27.1-26.5-27.1C19.5,11,7.6,23.1,7.6,38.1
		C7.6,49,13.9,58.3,22.9,62.7z"/>
	<path class="st0" d="M85,50.7H58.5l-18.2,9c-2,1-3.3,3.1-3.3,5.3v1c0,0.2,0,0.3,0.1,0.5H11c-3.3,0-6,2.7-6,6v9.9h40.3l20-6H79v-4
		H65l-20.3,6H9v-6c0-1.1,0.9-2,2-2h28v0c0.3,0.2,0.5,0.5,0.8,0.7c1,0.6,2.1,0.9,3.1,0.9c0.9,0,1.8-0.2,2.7-0.6l18.2-9
		c1-0.5,1.4-1.7,0.9-2.7c-0.5-1-1.7-1.4-2.7-0.9l-18.2,9C43,68.4,42.2,68,42,67.9c-0.3-0.2-1-0.7-1-1.7v-1c0-0.8,0.4-1.4,1.1-1.8
		l17.4-8.6H85c1.1,0,2-0.9,2-2S86.1,50.7,85,50.7z"/>
</g>
<g>
	<linearGradient id="SVGID_1_" gradientUnits="userSpaceOnUse" x1="34.9032" y1="49.461" x2="34.9032" y2="23">
		<stop  offset="0" style="stop-color:#FFC961"/>
		<stop  offset="1" style="stop-color:#FFBB37"/>
	</linearGradient>
	<path class="st1" d="M29.2,49.5l19-9.8c0.2-0.9,0.3-1.8,0.3-2.7c0-7.7-6.1-13.9-13.5-13.9c-7.5,0-13.5,6.2-13.5,13.9
		C21.4,42.5,24.6,47.2,29.2,49.5z M30.4,34.2h2.3l-2-2c-0.4-0.4-0.4-1.1,0-1.5s1-0.4,1.4,0l3.3,3.4l3.3-3.4c0.4-0.4,1-0.4,1.4,0
		s0.4,1.1,0,1.5l-2,2h2.3c0.6,0,1,0.5,1,1s-0.4,1-1,1h-4v3.1H39c0.6,0,1,0.5,1,1c0,0.6-0.5,1-1,1h-2.6v3.1h-2v-3.1h-2.6
		c-0.6,0-1-0.5-1-1c0-0.6,0.5-1,1-1h2.6v-3.1h-4c-0.6,0-1-0.5-1-1S29.8,34.2,30.4,34.2z"/>
	<linearGradient id="SVGID_2_" gradientUnits="userSpaceOnUse" x1="41" y1="59.6383" x2="41" y2="43.3546">
		<stop  offset="0" style="stop-color:#FFC961"/>
		<stop  offset="1" style="stop-color:#FFBB37"/>
	</linearGradient>
	<path class="st2" d="M61,43.4H47.4L38.1,48c-1,0.5-1.7,1.6-1.7,2.7v0.5c0,0.1,0,0.2,0,0.2H23.1c-1.7,0-3.1,1.4-3.1,3.1v5.1h20.6
		l10.2-3.1h7v-2h-7.2l-10.4,3.1H22v-3.1c0-0.6,0.5-1,1-1h14.3v0c0.1,0.1,0.3,0.2,0.4,0.3c0.5,0.3,1.1,0.5,1.6,0.5
		c0.5,0,0.9-0.1,1.4-0.3l9.3-4.6c0.5-0.3,0.7-0.9,0.5-1.4c-0.3-0.5-0.9-0.7-1.4-0.5l-9.3,4.6c-0.5,0.2-0.9,0-1,0
		c-0.1-0.1-0.5-0.4-0.5-0.9v-0.5c0-0.4,0.2-0.7,0.6-0.9l8.9-4.4H61c0.6,0,1-0.5,1-1S61.5,43.4,61,43.4z"/>
</g>
</svg>
