<?xml version="1.0" encoding="utf-8"?>
<!-- Generator: Adobe Illustrator 22.1.0, SVG Export Plug-In . SVG Version: 6.00 Build 0)  -->
<svg version="1.1" id="图层_1" xmlns="http://www.w3.org/2000/svg" xmlns:xlink="http://www.w3.org/1999/xlink" x="0px" y="0px"
	 viewBox="0 0 65 65" style="enable-background:new 0 0 65 65;" xml:space="preserve">
<style type="text/css">
	.st0{fill:url(#Oval-6-Copy-6_1_);}
	.st1{fill:#FFFFFF;}
	.st2{fill:url(#Oval-6-Copy-7_1_);}
	.st3{fill:url(#Oval-6-Copy-8_1_);}
</style>
<radialGradient id="Oval-6-Copy-6_1_" cx="-265.4492" cy="451.7957" r="0.6373" gradientTransform="matrix(6.000000e-15 101.8666 101.0097 -6.000000e-15 -45619.7461 27034.9688)" gradientUnits="userSpaceOnUse">
	<stop  offset="0" style="stop-color:#0776FF"/>
	<stop  offset="0.7634" style="stop-color:#0089FB"/>
	<stop  offset="1" style="stop-color:#3F81FF"/>
</radialGradient>
<ellipse id="Oval-6-Copy-6_19_" class="st0" cx="32.5" cy="32.5" rx="32.5" ry="32.5"/>
<g>
	<path class="st1" d="M29.4,18.1H18.9c-0.7,0-1.4,0.6-1.4,1.4v10.5c0,0.7,0.6,1.4,1.4,1.4h11.9V19.4C30.8,18.7,30.2,18.1,29.4,18.1z
		"/>
	<path class="st1" d="M29.4,34.3H18.9c-0.7,0-1.4,0.6-1.4,1.4v10.5c0,0.7,0.6,1.4,1.4,1.4h11.9V35.7C30.8,34.9,30.2,34.3,29.4,34.3z
		"/>
	<path class="st1" d="M45.7,34.3H35.1c-0.7,0-1.4,0.6-1.4,1.4v10.5c0,0.7,0.6,1.4,1.4,1.4H47V35.7C47,34.9,46.4,34.3,45.7,34.3z"/>
	<path class="st1" d="M48.5,23.4l-7-7c-0.5-0.5-1.3-0.5-1.8,0l-7.9,7.9l7.9,7.9c0.5,0.5,1.3,0.5,1.8,0l7-7
		C49,24.7,49,23.8,48.5,23.4z"/>
</g>
<radialGradient id="Oval-6-Copy-7_1_" cx="-264.4243" cy="455.3534" r="0.8336" gradientTransform="matrix(34.3643 -47.4967 -47.0972 -34.6558 30572.5762 3274.2495)" gradientUnits="userSpaceOnUse">
	<stop  offset="0" style="stop-color:#94ADFF;stop-opacity:0"/>
	<stop  offset="1" style="stop-color:#002DFF;stop-opacity:0.84"/>
</radialGradient>
<path id="Oval-6-Copy-7_19_" class="st2" d="M32,64.8c17.9,0,32.5-14.5,32.5-32.5c0-1.3,0-1.9-0.1-2.6c-0.1-0.6-0.1-1.3-0.2-1.7
	c-0.9-2.2-3.4,1.1-14.5,4.3C33.8,37,33.5,47.3,28.8,50c-9.8,5.6-10.8,0-15.9-4.1c-5.6-4.6-11.8-2-9.1,2.7C9.5,58.3,20,64.8,32,64.8z
	"/>
<radialGradient id="Oval-6-Copy-8_1_" cx="-264.4695" cy="455.6353" r="0.6495" gradientTransform="matrix(34.6002 -46.4016 -46.0113 -34.8937 30161.7266 3671.2581)" gradientUnits="userSpaceOnUse">
	<stop  offset="0" style="stop-color:#032AFF;stop-opacity:0"/>
	<stop  offset="1" style="stop-color:#00BBFB;stop-opacity:0.84"/>
</radialGradient>
<path id="Oval-6-Copy-8_19_" class="st3" d="M32.5,65C50.4,65,65,50.5,65,32.5c0-1.3,0-1.9-0.1-2.6c-0.1-0.6-0.1-1.3-0.2-1.7
	c-0.9-2.2-1.3,11-8.3,11c-17.8,0-11.3,13.5-24.7,5c-9.3-5.9-8.5,16.2-19.8,5.1S1.6,44,4.3,48.7C9.9,58.5,20.4,65,32.5,65z"/>
</svg>
