<?xml version="1.0" encoding="utf-8"?>
<!-- Generator: Adobe Illustrator 21.0.0, SVG Export Plug-In . SVG Version: 6.00 Build 0)  -->
<svg version="1.1" id="Layer_1" xmlns="http://www.w3.org/2000/svg" xmlns:xlink="http://www.w3.org/1999/xlink" x="0px" y="0px"
	 viewBox="0 0 82 82" style="enable-background:new 0 0 82 82;" xml:space="preserve">
<style type="text/css">
	.st0{fill:#F0F0F0;}
	.st1{fill:url(#Fill-3_2_);}
</style>
<title>默认磁贴类10</title>
<desc>Created with Sketch.</desc>
<g id="默认磁贴类10">
	<path class="st0" d="M77.9,16H11v6.3c0,0,0,0.1,0,0.1v6.2h66.9V16z"/>
	<path class="st0" d="M77.7,41.5v-6.4H11v26h32.4L77.7,41.5z M34.5,54.4H15.1v-4.3h19.4V54.4z"/>
	<path class="st0" d="M82,60.1C82,60.1,82,60.1,82,60.1l0,2C82.3,61.5,82.3,60.8,82,60.1z"/>
	<path class="st0" d="M82,78.4v-4.4l-0.4,0l-21.3,6.4H21.8V74c0-1.2,1-2.1,2.2-2.1h30.2c0.3,0.2,0.6,0.5,0.9,0.7c1,0.6,2.2,1,3.4,1
		c1,0,2-0.2,2.9-0.7L81.1,63c0.4-0.2,0.7-0.5,0.9-0.9v-2c-0.5-1-1.8-1.5-2.9-0.9L59.5,69c-1,0.5-1.8,0.1-2.1-0.1
		c-0.3-0.2-1-0.7-1-1.8v-1.1c0-0.8,0.5-1.6,1.2-1.9l18.7-9.3H82v-4.3h-6.7l-19.7,9.8c-2.2,1.1-3.6,3.3-3.6,5.8V67c0,0.2,0,0.3,0,0.5
		H24c-3.6,0-6.5,2.9-6.5,6.4v8h52.6L82,78.4z"/>
	
		<linearGradient id="Fill-3_2_" gradientUnits="userSpaceOnUse" x1="-468.4048" y1="526.9258" x2="-468.4048" y2="525.9258" gradientTransform="matrix(-42 0 0 -30.383 -19632 16035.5752)">
		<stop  offset="0" style="stop-color:#47BAEE"/>
		<stop  offset="1" style="stop-color:#5BCCFF"/>
	</linearGradient>
	<path id="Fill-3_1_" class="st1" d="M20,28.8C20,28.8,20,28.8,20,28.8l0,2.8h29.6V26H20V28.8z M38.1,48.8H25.7
		c-1.6,0-2.9,1.3-2.9,2.8v4.7l19.4,0l9.4-2.8h6.5v-1.9l-7,0l-9.4,2.8h-17v-2.8c0-0.5,0.4-0.9,1-0.9h13.4c0.1,0.1,0.3,0.2,0.4,0.3
		c0.5,0.3,1,0.4,1.5,0.4c0.4,0,0.9-0.1,1.3-0.3l8.7-4.3c0.5-0.2,0.7-0.8,0.4-1.3c-0.2-0.5-0.8-0.7-1.3-0.4l-8.7,4.3
		c-0.4,0.2-0.8,0-0.9,0C40.4,49.3,40,49,40,48.6v-0.5c0-0.4,0.2-0.7,0.5-0.8l8.3-4.1H61c0.5,0,1-0.4,1-0.9c0-0.5-0.4-0.9-1-0.9H48.4
		l-8.7,4.3c-1,0.5-1.6,1.5-1.6,2.5v0.5C38.1,48.6,38.1,48.7,38.1,48.8z M49.5,34.4H20v11.5h14.3l15.2-8.7V34.4z M30.4,43h-8.6v-1.9
		h8.6V43z"/>
</g>
</svg>
