<?xml version="1.0" encoding="utf-8"?>
<!-- Generator: Adobe Illustrator 21.0.0, SVG Export Plug-In . SVG Version: 6.00 Build 0)  -->
<svg version="1.1" id="Layer_1" xmlns="http://www.w3.org/2000/svg" xmlns:xlink="http://www.w3.org/1999/xlink" x="0px" y="0px"
	 viewBox="0 0 82 82" style="enable-background:new 0 0 82 82;" xml:space="preserve">
<style type="text/css">
	.st0{fill:#F9F9F9;}
	.st1{fill:url(#Fill-4_2_);}
</style>
<title>默认磁贴类1</title>
<desc>Created with Sketch.</desc>
<g id="默认磁贴类1">
	<g id="Page-1-Copy-2" transform="translate(-268.000000, -175.000000)">
	</g>
	<g id="Group-2" transform="translate(7.000000, 5.000000)">
		<g id="Group">
			<path class="st0" d="M56.1,47.3H75v-46C73.8,0.5,72.4,0,70.8,0H7.3C3.3,0,0,3.2,0,7.2v67.5c0,0.8,0.1,1.5,0.4,2.2h48.5
				c0-8.8,0-19,0-22.5C48.8,50.6,52.1,47.3,56.1,47.3z M15,14.5h46.3c1.3,0,2.4,1.1,2.4,2.4c0,1.3-1.1,2.4-2.4,2.4H15
				c-1.3,0-2.4-1.1-2.4-2.4C12.5,15.6,13.6,14.5,15,14.5z M35.1,59.8H15c-1.4,0-2.5-1.1-2.5-2.4c0-1.3,1.1-2.4,2.5-2.4h20.1
				c1.4,0,2.5,1.1,2.5,2.4C37.6,58.7,36.5,59.8,35.1,59.8z M15,40.5c-1.3,0-2.4-1.1-2.4-2.4c0-1.3,1.1-2.4,2.4-2.4h46.3
				c1.3,0,2.4,1.1,2.4,2.4c0,1.3-1.1,2.4-2.4,2.4H15z"/>
			<path class="st0" d="M75,52.1H55.5c-1.4,0-2.5,1.1-2.5,2.4c0,3.5,0,13.6,0,22.5h3.4L75,54.7V52.1z"/>
			
				<linearGradient id="Fill-4_2_" gradientUnits="userSpaceOnUse" x1="-452.3957" y1="525.5115" x2="-452.3957" y2="524.55" gradientTransform="matrix(37.8378 0 0 -40 17151.5938 21039)">
				<stop  offset="0" style="stop-color:#838C97"/>
				<stop  offset="1" style="stop-color:#C2C9D2"/>
			</linearGradient>
			<path id="Fill-4_1_" class="st1" d="M41,43.6c0,1.9,0,8,0,12.7l11.6-13.8H42.2C41.5,42.4,41,43,41,43.6 M31.6,46.4h-9.5
				c-0.7,0-1.2-0.5-1.2-1.2c0-0.6,0.5-1.2,1.2-1.2h9.5c0.7,0,1.2,0.5,1.2,1.2C32.7,45.9,32.2,46.4,31.6,46.4 M22.1,34.6h22.5
				c0.7,0,1.2,0.5,1.2,1.2c0,0.7-0.5,1.2-1.2,1.2H22.1c-0.7,0-1.2-0.5-1.2-1.2C20.9,35.2,21.4,34.6,22.1,34.6 M22.1,24.1h22.5
				c0.7,0,1.2,0.5,1.2,1.2c0,0.7-0.5,1.2-1.2,1.2H22.1c-0.7,0-1.2-0.5-1.2-1.2C20.9,24.6,21.4,24.1,22.1,24.1 M38.6,43.6
				c0-1.9,1.6-3.5,3.5-3.5h10.7V20.5c0-1.9-1.6-3.5-3.5-3.5H18.5c-2,0-3.5,1.6-3.5,3.5v32.9c0,1.9,1.6,3.5,3.5,3.5h20.1
				C38.6,52.3,38.6,45.6,38.6,43.6"/>
		</g>
	</g>
</g>
</svg>
