<?xml version="1.0" encoding="utf-8"?>
<!-- Generator: Adobe Illustrator 21.0.0, SVG Export Plug-In . SVG Version: 6.00 Build 0)  -->
<svg version="1.1" id="Layer_1" xmlns="http://www.w3.org/2000/svg" xmlns:xlink="http://www.w3.org/1999/xlink" x="0px" y="0px"
	 viewBox="0 0 82 82" style="enable-background:new 0 0 82 82;" xml:space="preserve">
<style type="text/css">
	.st0{fill:#F0F0F0;}
	.st1{fill:url(#SVGID_1_);}
	.st2{fill:url(#SVGID_2_);}
	.st3{fill:url(#SVGID_3_);}
</style>
<title>默认磁贴类7</title>
<desc>Created with Sketch.</desc>
<path class="st0" d="M28.9,9.8L29,9.6c-0.1-0.2-0.1-0.4-0.1-0.6c0-1,0.6-1.9,1.5-2.2l0.1-0.1c0,0,7.9-1.6,14.5-1.6
	c6.9,0,14.5,1.6,14.5,1.6l0.1,0.2C60.4,7.1,61,8,61,9c0,0.2-0.1,0.4-0.1,0.6L61,9.8l-0.7,0.8l0,0v-0.1c-3.6,4.5-9.1,6.9-14.8,6.9h-1
	c-5.8,0-11.2-2.4-14.8-6.9c0,0-0.1,0.1-0.1,0L28.9,9.8z"/>
<path class="st0" d="M60.6,22.3c-2.7-1.5-5.8-2.2-8.9-2.2H39.8c-3.1,0-6.2,0.7-8.9,2.2C18,29.1,8,43.9,8,58.2
	C8,77.6,19.2,87,45.7,87c26.6,0,37.7-9.4,37.7-28.8C83.5,43.9,73.5,29.1,60.6,22.3z M45.7,65.2c-7.7,0-13.9-6.2-13.9-13.8
	S38,37.6,45.7,37.6s13.9,6.2,13.9,13.8S53.4,65.2,45.7,65.2z"/>
<polygon class="st0" points="37.3,51.5 45.8,59.8 54.2,51.5 45.8,43.1 "/>
<linearGradient id="SVGID_1_" gradientUnits="userSpaceOnUse" x1="40.9" y1="57.6261" x2="40.9" y2="64" gradientTransform="matrix(1 0 0 -1 0 84)">
	<stop  offset="0" style="stop-color:#E87672"/>
	<stop  offset="0.817" style="stop-color:#E14C46"/>
</linearGradient>
<path class="st1" d="M32.7,22.4l0.3,0.4c0,0,0,0,0.1,0c1.8,2.3,4.6,3.5,7.6,3.5h0.5c3,0,5.7-1.3,7.6-3.5l0,0l0,0l0.3-0.4L49,22.3
	c0-0.1,0.1-0.2,0.1-0.3c0-0.5-0.3-1-0.8-1.1v-0.1c0,0-3.9-0.8-7.4-0.8c-3.4,0-7.4,0.8-7.4,0.8v0.1c-0.5,0.2-0.8,0.6-0.8,1.1
	c0,0.1,0,0.2,0.1,0.3L32.7,22.4z"/>
<linearGradient id="SVGID_2_" gradientUnits="userSpaceOnUse" x1="41.3007" y1="22" x2="41.3007" y2="56.2655" gradientTransform="matrix(1 0 0 -1 0 84)">
	<stop  offset="0" style="stop-color:#E87672"/>
	<stop  offset="0.817" style="stop-color:#E14C46"/>
</linearGradient>
<path class="st2" d="M48.9,28.9c-1.4-0.7-3-1.1-4.6-1.1h-6c-1.6,0-3.2,0.4-4.6,1.1C27.1,32.4,22,39.9,22,47.2
	c0,10,5.7,14.8,19.3,14.8s19.3-4.8,19.3-14.8C60.7,39.9,55.6,32.4,48.9,28.9z M41.3,50.8c-3.9,0-7.1-3.2-7.1-7.1s3.2-7.1,7.1-7.1
	s7.1,3.2,7.1,7.1S45.3,50.8,41.3,50.8z"/>
<linearGradient id="SVGID_3_" gradientUnits="userSpaceOnUse" x1="41.35" y1="35.9101" x2="41.35" y2="44.5101" gradientTransform="matrix(1 0 0 -1 0 84)">
	<stop  offset="0" style="stop-color:#E87672"/>
	<stop  offset="0.817" style="stop-color:#E14C46"/>
</linearGradient>
<polygon class="st3" points="37,43.8 41.3,48.1 45.7,43.8 41.3,39.5 "/>
</svg>
