<?xml version="1.0" encoding="utf-8"?>
<!-- Generator: Adobe Illustrator 21.0.0, SVG Export Plug-In . SVG Version: 6.00 Build 0)  -->
<svg version="1.1" id="Layer_1" xmlns="http://www.w3.org/2000/svg" xmlns:xlink="http://www.w3.org/1999/xlink" x="0px" y="0px"
	 viewBox="0 0 82 82" style="enable-background:new 0 0 82 82;" xml:space="preserve">
<style type="text/css">
	.st0{fill:#F0F0F0;}
	.st1{fill:url(#Fill-1_2_);}
</style>
<title>默认磁贴类4</title>
<desc>Created with Sketch.</desc>
<path class="st0" d="M82,6.5c-1.6-1-3.4-1.5-5.4-1.5H15.4C9.7,5,5,9.7,5,15.4v61.1c0,2,0.6,3.9,1.5,5.4H82V6.5z M65,67.3H23.6
	c-1.3,0-2.3-1-2.3-2.3s1-2.3,2.3-2.3H65c1.3,0,2.3,1,2.3,2.3S66.3,67.3,65,67.3z M68.5,44.3c0,1.3-1,2.3-2.3,2.3s-2.3-1-2.3-2.3
	v-7.7L50.4,51.9c-0.5,0.6-1.3,1-2.2,1h0c-0.8,0-1.6-0.4-2.2-1L35.4,39.8L24.9,51.7c-0.9,1-2.3,1.1-3.3,0.2c-1-0.9-1.1-2.3-0.2-3.3
	l11.9-13.5c0.6-0.6,1.3-1,2.2-1h0c0.8,0,1.6,0.4,2.2,1l10.6,12.1L61,32.7h-7.1c-1.3,0-2.3-1-2.3-2.3c0-1.3,1-2.3,2.3-2.3h11.9
	c0.1,0,0.1,0,0.2,0c0.6-0.1,1.3,0.1,1.8,0.6c0.6,0.5,0.8,1.2,0.7,2c0,0.1,0,0.2,0,0.3V44.3z"/>
<linearGradient id="Fill-1_2_" gradientUnits="userSpaceOnUse" x1="-446.5952" y1="531.0952" x2="-446.5952" y2="530.0952" gradientTransform="matrix(42 0 0 -42 18798 22326)">
	<stop  offset="0" style="stop-color:#47BAEE"/>
	<stop  offset="1" style="stop-color:#5BCCFF"/>
</linearGradient>
<path id="Fill-1_1_" class="st1" d="M52.5,40.1c0,0.7-0.5,1.2-1.2,1.2c-0.7,0-1.2-0.5-1.2-1.2v-4L43.2,44c-0.3,0.3-0.7,0.5-1.1,0.5
	h0c-0.4,0-0.8-0.2-1.1-0.5l-5.4-6.2l-5.4,6.1c-0.4,0.5-1.2,0.5-1.7,0.1c-0.5-0.4-0.5-1.2-0.1-1.7l6.1-6.9c0.3-0.3,0.7-0.5,1.1-0.5h0
	c0.4,0,0.8,0.2,1.1,0.5l5.4,6.2l6.5-7.4H45c-0.7,0-1.2-0.5-1.2-1.2c0-0.7,0.5-1.2,1.2-1.2h6.1c0,0,0.1,0,0.1,0
	c0.3,0,0.7,0.1,0.9,0.3c0.3,0.3,0.4,0.6,0.4,1c0,0,0,0.1,0,0.1V40.1z M50.7,51.9H29.5c-0.7,0-1.2-0.5-1.2-1.2s0.5-1.2,1.2-1.2h21.2
	c0.7,0,1.2,0.5,1.2,1.2S51.4,51.9,50.7,51.9z M56.7,20H25.3c-3,0-5.3,2.4-5.3,5.3v31.3c0,3,2.4,5.3,5.3,5.3h31.3
	c3,0,5.3-2.4,5.3-5.3V25.3C62,22.4,59.6,20,56.7,20z"/>
</svg>
