<?xml version="1.0" encoding="utf-8"?>
<!-- Generator: Adobe Illustrator 21.0.0, SVG Export Plug-In . SVG Version: 6.00 Build 0)  -->
<svg version="1.1" id="Layer_1" xmlns="http://www.w3.org/2000/svg" xmlns:xlink="http://www.w3.org/1999/xlink" x="0px" y="0px"
	 viewBox="0 0 82 82" style="enable-background:new 0 0 82 82;" xml:space="preserve">
<style type="text/css">
	.st0{fill:#F9F9F9;}
	.st1{fill:url(#Fill-9_2_);}
</style>
<title>默认磁贴类3</title>
<desc>Created with Sketch.</desc>
<g id="Page-1-Copy-2" transform="translate(-268.000000, -175.000000)">
</g>
<path class="st0" d="M33,10.6H11.5c-3.6,0-6.5,2.9-6.5,6.5v21.6c0,3.6,2.9,6.5,6.5,6.5h28v-28C39.5,13.5,36.6,10.6,33,10.6z"/>
<path class="st0" d="M39.5,60c0-3.6-2.9-6.5-6.5-6.5H11.5C7.9,53.5,5,56.4,5,60v21.6c0,0.2,0,0.3,0,0.5h34.5V60z"/>
<path class="st0" d="M69.9,7.9c-2.5-2.5-6.6-2.5-9.1,0L41,27.8l19.8,19.9c2.5,2.5,6.6,2.5,9.1,0L82,35.6V20.1L69.9,7.9z"/>
<path class="st0" d="M82,57.8c-0.9-2.5-3.3-4.2-6.1-4.2H54.4c-3.6,0-6.5,2.9-6.5,6.5v21.6c0,0.2,0,0.3,0,0.5H82V57.8z"/>
<linearGradient id="Fill-9_2_" gradientUnits="userSpaceOnUse" x1="-446.05" y1="530.5115" x2="-446.05" y2="529.55" gradientTransform="matrix(40 0 0 -40 17883 21243)">
	<stop  offset="0" style="stop-color:#838C97"/>
	<stop  offset="1" style="stop-color:#C2C9D2"/>
</linearGradient>
<path id="Fill-9_1_" class="st1" d="M58.8,61H45.2c-1.7,0-3.2-1.4-3.2-3.2V47.3c0-1.7,1.4-3.2,3.2-3.2h10.5c1.7,0,3.2,1.4,3.2,3.2
	V61z M37.8,61H24.2c-1.7,0-3.2-1.4-3.2-3.2V47.3c0-1.7,1.4-3.2,3.2-3.2h10.5c1.7,0,3.2,1.4,3.2,3.2V61z M38.5,31.6l9.7-9.7
	c1.2-1.2,3.2-1.2,4.5,0l7.4,7.4c1.2,1.2,1.2,3.2,0,4.5l-7.4,7.4c-1.2,1.2-3.2,1.2-4.5,0L38.5,31.6z M37.8,40H24.2
	c-1.7,0-3.2-1.4-3.2-3.2V26.3c0-1.7,1.4-3.2,3.2-3.2h10.5c1.7,0,3.2,1.4,3.2,3.2V40z"/>
</svg>
