<?xml version="1.0" encoding="utf-8"?>
<!-- Generator: Adobe Illustrator 21.0.0, SVG Export Plug-In . SVG Version: 6.00 Build 0)  -->
<svg version="1.1" id="Layer_1" xmlns="http://www.w3.org/2000/svg" xmlns:xlink="http://www.w3.org/1999/xlink" x="0px" y="0px"
	 viewBox="0 0 82 82" style="enable-background:new 0 0 82 82;" xml:space="preserve">
<style type="text/css">
	.st0{fill:#F9F9F9;}
	.st1{fill:url(#Fill-1_2_);}
</style>
<title>默认磁贴类</title>
<desc>Created with Sketch.</desc>
<g id="默认磁贴类">
	<g id="Page-1-Copy-2" transform="translate(-268.000000, -175.000000)">
	</g>
	<g id="Group">
		<path class="st0" d="M64.6,36.7V19.1c0-1.5-0.8-3-2.1-3.7L48.1,6.6c-1.3-0.8-2.8-0.8-4.1,0l-14.5,8.8c-1.3,0.8-2.1,2.2-2.1,3.7
			v17.6c0,1.5,0.8,3,2.1,3.7l14.5,8.8c1.3,0.8,2.8,0.8,4.1,0l14.5-8.8C63.9,39.7,64.6,38.2,64.6,36.7z M62.5,37.5L62.5,37.5
			L62.5,37.5z"/>
		<path class="st0" d="M40.2,78.6c1.3-0.8,2.1-2.2,2.1-3.7V57.3c0-1.5-0.8-3-2.1-3.7l-14.5-8.8c-1.3-0.8-2.8-0.8-4.1,0L7.1,53.6
			C5.8,54.3,5,55.8,5,57.3v17.6c0,1.5,0.8,3,2.1,3.7l5.6,3.4h22L40.2,78.6z M40.2,76.8L40.2,76.8L40.2,76.8z"/>
		<path class="st0" d="M82,80.4V51.8l-11.6-7c-1.3-0.8-2.8-0.8-4.1,0l-14.5,8.8c-1.3,0.8-2.1,2.2-2.1,3.7v17.6c0,1.5,0.8,3,2.1,3.7
			l5.6,3.4h22L82,80.4z"/>
		
			<linearGradient id="Fill-1_2_" gradientUnits="userSpaceOnUse" x1="-446.05" y1="529.9089" x2="-446.05" y2="528.9474" gradientTransform="matrix(40 0 0 -38 17883 20161)">
			<stop  offset="0" style="stop-color:#838C97"/>
			<stop  offset="1" style="stop-color:#C2C9D2"/>
		</linearGradient>
		<path id="Fill-1_1_" class="st1" d="M49,37.7L49,37.7L49,37.7z M40,42.9L33,38.8c-0.6-0.4-1-1-1-1.7V29c0-0.7,0.4-1.4,1-1.7
			l7.1-4.1c0.6-0.4,1.4-0.4,2,0l7.1,4.1c0.6,0.4,1,1,1,1.7v8.1c0,0.7-0.4,1.4-1,1.7L42,42.9C41.4,43.3,40.6,43.3,40,42.9z
			 M38.1,55.5L38.1,55.5L38.1,55.5z M29,60.7L22,56.7c-0.6-0.4-1-1-1-1.7v-8.1c0-0.7,0.4-1.4,1-1.7l7.1-4.1c0.6-0.4,1.4-0.4,2,0
			l7.1,4.1c0.6,0.4,1,1,1,1.7V55c0,0.7-0.4,1.4-1,1.7L31,60.7C30.4,61.1,29.7,61.1,29,60.7z M60,55.5L60,55.5L60,55.5z M51,60.7
			l-7.1-4.1c-0.6-0.4-1-1-1-1.7v-8.1c0-0.7,0.4-1.4,1-1.7l7.1-4.1c0.6-0.4,1.4-0.4,2,0l7.1,4.1c0.6,0.4,1,1,1,1.7V55
			c0,0.7-0.4,1.4-1,1.7L53,60.7C52.3,61.1,51.6,61.1,51,60.7z"/>
	</g>
</g>
</svg>
