<?xml version="1.0" encoding="utf-8"?>
<!-- Generator: Adobe Illustrator 21.0.0, SVG Export Plug-In . SVG Version: 6.00 Build 0)  -->
<svg version="1.1" id="Layer_1" xmlns="http://www.w3.org/2000/svg" xmlns:xlink="http://www.w3.org/1999/xlink" x="0px" y="0px"
	 viewBox="0 0 82 82" style="enable-background:new 0 0 82 82;" xml:space="preserve">
<style type="text/css">
	.st0{fill:#F0F0F0;}
	.st1{fill:url(#Combined-Shape_2_);}
</style>
<title>默认磁贴类9</title>
<desc>Created with Sketch.</desc>
<path class="st0" d="M72.7,12.6c-2-3.4-6.4-4.6-9.8-2.6L43.6,20.9h33.8L72.7,12.6z"/>
<path class="st0" d="M82,24.4c-1-0.4-2-0.6-3.1-0.6H13.1c-4.5,0-8.1,3.6-8.1,8v43.2c0,3,1.7,5.7,4.2,7.1H82V24.4z M64.3,41.2
	c2.5,0,4.5,2,4.5,4.5c0,2.5-2,4.5-4.5,4.5c-2.5,0-4.5-2-4.5-4.5C59.7,43.2,61.8,41.2,64.3,41.2z M67.5,62.2H22.5
	c-1.1,0-2.1-0.9-2.1-2.1c0-1.1,0.9-2.1,2.1-2.1h44.9c1.1,0,2.1,0.9,2.1,2.1C69.5,61.2,68.6,62.2,67.5,62.2z"/>
<linearGradient id="Combined-Shape_2_" gradientUnits="userSpaceOnUse" x1="-446.5952" y1="529.9158" x2="-446.5952" y2="528.9158" gradientTransform="matrix(42 0 0 -37.9009 18798 20106.2871)">
	<stop  offset="0" style="stop-color:#E14C46"/>
	<stop  offset="1" style="stop-color:#E87672"/>
</linearGradient>
<path id="Combined-Shape_1_" class="st1" d="M54.7,23.8c-1-1.7-3.3-2.4-5-1.4l-9.8,5.6h17.3L54.7,23.8z M52,49.2H29
	c-0.6,0-1.1-0.5-1.1-1.1s0.5-1.1,1.1-1.1h23c0.6,0,1.1,0.5,1.1,1.1S52.6,49.2,52,49.2 M50.4,38.5c1.3,0,2.3,1,2.3,2.3
	c0,1.3-1,2.3-2.3,2.3c-1.3,0-2.3-1-2.3-2.3C48,39.5,49.1,38.5,50.4,38.5 M57.9,29.5H24.1c-2.3,0-4.1,1.9-4.1,4.1v22.1
	c0,2.3,1.9,4.1,4.1,4.1h33.7c2.3,0,4.1-1.9,4.1-4.1V33.7C62,31.4,60.1,29.5,57.9,29.5"/>
</svg>
