<?xml version="1.0" encoding="utf-8"?>
<!-- Generator: Adobe Illustrator 21.0.0, SVG Export Plug-In . SVG Version: 6.00 Build 0)  -->
<svg version="1.1" id="图层_1" xmlns="http://www.w3.org/2000/svg" xmlns:xlink="http://www.w3.org/1999/xlink" x="0px" y="0px"
	 viewBox="0 0 82 82" style="enable-background:new 0 0 82 82;" xml:space="preserve">
<style type="text/css">
	.st0{fill:#F9F9F9;}
	.st1{fill:url(#SVGID_1_);}
	.st2{fill:url(#SVGID_2_);}
</style>
<title>业务处理类 copy</title>
<desc>Created with Sketch.</desc>
<polygon class="st0" points="73.8,64.1 63.7,52.5 61.2,54.7 71.3,66.3 "/>
<path class="st0" d="M82,30.8c0-1-0.4-1.9-1.1-2.6L60,7.1C59.3,6.4,58.3,6,57.3,6H20c-4.7,0-8.6,3.9-8.6,8.7v64.7
	c0,0.9,0.1,1.8,0.4,2.6h30.5v-9.4L70,47.8c1.3-1.1,3.5-1,4.7,0.3l5.8,6.8c0.7,0.7,0.9,1.6,1,2.5c0,0.9-0.4,1.8-1.1,2.4L55.5,82h26.1
	c0.3-0.9,0.4-1.8,0.4-2.7V30.8z M39.7,45.1H26.4c-1.2,0-2.2-1-2.2-2.2c0-1.2,1-2.2,2.2-2.2h13.3c1.2,0,2.2,1,2.2,2.2
	C41.9,44.1,40.9,45.1,39.7,45.1z M48,32.5H25.9c-0.9,0-1.7-1-1.7-2.2s0.8-2.2,1.7-2.2H48c0.9,0,1.7,1,1.7,2.2S48.9,32.5,48,32.5z
	 M76.3,32.7H59.6c-2,0-3.6-1.6-3.6-3.6V12.3c0-1,1.2-1.6,2-0.8l19.2,19.2C77.9,31.5,77.3,32.7,76.3,32.7z"/>
<g id="Group_1_" transform="translate(23.000000, 20.000000)">
	<linearGradient id="SVGID_1_" gradientUnits="userSpaceOnUse" x1="29.85" y1="23.8" x2="29.85" y2="30.8">
		<stop  offset="0" style="stop-color:#00CDB5"/>
		<stop  offset="1" style="stop-color:#00E6CD"/>
	</linearGradient>
	<polygon class="st1" points="26.6,24.9 31.8,30.8 33.1,29.7 27.9,23.8 	"/>
	<linearGradient id="SVGID_2_" gradientUnits="userSpaceOnUse" x1="18.35" y1="0" x2="18.35" y2="42">
		<stop  offset="0" style="stop-color:#00CDB5"/>
		<stop  offset="1" style="stop-color:#00E6CD"/>
	</linearGradient>
	<path class="st2" d="M25.2,0.6C24.8,0.2,24.3,0,23.8,0H4.5C2,0,0,2,0,4.4v33.1C0,40,2,42,4.5,42h27.7c2.5,0,4.5-2,4.5-4.4V12.7
		c0-0.5-0.2-1-0.6-1.4L25.2,0.6z M23.1,3.2c0-0.5,0.6-0.8,1-0.4l9.9,9.8c0.5,0.4,0.2,1.1-0.3,1.1H25c-1,0-1.9-0.8-1.9-1.9V3.2z
		 M7.5,11.3H19c0.5,0,0.9,0.5,0.9,1.1c0,0.6-0.4,1.1-0.9,1.1H7.5c-0.5,0-0.9-0.5-0.9-1.1C6.6,11.8,7,11.3,7.5,11.3z M14.7,20H7.8
		c-0.6,0-1.2-0.5-1.2-1.1c0-0.6,0.5-1.1,1.2-1.1h6.9c0.6,0,1.2,0.5,1.2,1.1C15.9,19.5,15.3,20,14.7,20z M35.7,27.5L21.4,40.2H16
		v-6.1l14.3-12.7c0.7-0.6,1.8-0.5,2.4,0.2l3.1,3.4c0.3,0.3,0.5,0.8,0.5,1.3S36.1,27.2,35.7,27.5z"/>
</g>
</svg>
