<?xml version="1.0" encoding="utf-8"?>
<!-- Generator: Adobe Illustrator 21.0.0, SVG Export Plug-In . SVG Version: 6.00 Build 0)  -->
<svg version="1.1" id="Layer_1" xmlns="http://www.w3.org/2000/svg" xmlns:xlink="http://www.w3.org/1999/xlink" x="0px" y="0px"
	 viewBox="0 0 82 82" style="enable-background:new 0 0 82 82;" xml:space="preserve">
<style type="text/css">
	.st0{fill:#F9F9F9;}
	.st1{fill:url(#SVGID_1_);}
</style>
<title>业务处理类</title>
<desc>Created with Sketch.</desc>
<path class="st0" d="M81.5,78.3V29.8c0-1-0.4-1.9-1.1-2.6l-21.2-21C58.5,5.4,57.5,5,56.5,5H18.7C13.9,5,10,8.9,10,13.7v64.7
	c0,1.3,0.3,2.5,0.8,3.7h69.8C81.2,80.9,81.5,79.7,81.5,78.3z M55.1,11.3c0-1,1.3-1.6,2-0.8l19.4,19.2c0.7,0.7,0.2,2-0.8,2H58.8
	c-2,0-3.7-1.6-3.7-3.6V11.3z M24.6,27.1H47c1,0,1.7,1,1.7,2.2c0,1.2-0.8,2.2-1.7,2.2H24.6c-1,0-1.7-1-1.7-2.2
	C22.9,28.1,23.7,27.1,24.6,27.1z M38.7,44.1H25.2c-1.2,0-2.3-1-2.3-2.2c0-1.2,1-2.2,2.3-2.2h13.5c1.2,0,2.3,1,2.3,2.2
	C40.9,43.1,39.9,44.1,38.7,44.1z M66,74.9c-6.8,4.4-11.9,1.4-11.9,1.4c2.5-2.4,5-4.8,7.5-7.3c0,0,0,0,0,0c0.3-0.3,0.3-0.7,0-1
	l-5.8-5.8c-0.3-0.3-0.7-0.3-0.9,0l-7.5,7.3c-3.5-8.5,3.3-13.9,3.3-13.9c3.5-3.1,8-2.9,8-2.9c3.7,0,6.1,1.6,6.1,1.6
	c8.7-9.3,14.3-15.3,16.8-18c0,0,0,10.1,0,10.1c-2.9,2.5-7.2,6.2-12.9,11.3c3.6,4.8,2,10.2,2,10.2C69.5,72.4,66,74.9,66,74.9z"/>
<linearGradient id="SVGID_1_" gradientUnits="userSpaceOnUse" x1="41.3028" y1="62" x2="41.3028" y2="20">
	<stop  offset="0" style="stop-color:#00E6CD"/>
	<stop  offset="1" style="stop-color:#00CDB5"/>
</linearGradient>
<path class="st1" d="M59,31.3L48.2,20.6c-0.4-0.4-0.9-0.6-1.4-0.6H27.5C25,20,23,22,23,24.4v33.1c0,2.4,2,4.4,4.5,4.4h27.7
	c2.5,0,4.5-2,4.5-4.4V32.7C59.6,32.2,59.4,31.7,59,31.3z M46.1,23.2c0-0.5,0.6-0.8,1-0.4l9.9,9.8c0.4,0.4,0.1,1-0.4,1H48
	c-1,0-1.9-0.8-1.9-1.9V23.2z M30.5,31.3H42c0.5,0,0.9,0.5,0.9,1.1s-0.4,1.1-0.9,1.1H30.5c-0.5,0-0.9-0.5-0.9-1.1S30,31.3,30.5,31.3z
	 M37.7,40h-6.9c-0.6,0-1.2-0.5-1.2-1.1s0.5-1.1,1.2-1.1h6.9c0.6,0,1.2,0.5,1.2,1.1S38.3,40,37.7,40z M59.6,41.2
	c-1.5,1.3-3.7,3.2-6.6,5.8c1.8,2.5,1,5.2,1,5.2c-0.5,2.3-2.4,3.6-2.4,3.6c-3.5,2.2-6.1,0.7-6.1,0.7c1.2-1.2,2.4-2.3,3.6-3.5
	c0,0,0,0,0,0c0.3-0.3,0.3-0.7,0-1l-2.5-2.5c-0.3-0.3-0.7-0.3-0.9,0l-3.6,3.5c-1.8-4.4,1.7-7.1,1.7-7.1c1.8-1.6,4.1-1.5,4.1-1.5
	c1.9,0,3.1,0.8,3.1,0.8c4.5-4.8,7.3-7.8,8.6-9.2C59.6,36.1,59.6,41.2,59.6,41.2z"/>
</svg>
