<svg id="图层_1" xmlns="http://www.w3.org/2000/svg" viewBox="0 0 82 82"><style>.st0{fill:#f9f9f9}</style><path class="st0" d="M79.4 73.5c1.1 0 1.9.4 2.6 1.3V69H55v13h10.6c0-.4-.1-.5-.1-1h1.3c0 .5.1 1 .1 1H72v-.4c.2-.7 0-1.2-.5-1.6-.4-.4-1.1-.6-1.9 0H68v-1h1.6c.8-.6 1.3-.8 1.7-1.1.4-.4.6-.9.6-1.5s-.2-1.2-.6-1.5c-.4-.4-1-.6-1.7-.6-.8 0-1.4.2-1.8.6S67 77 67 77h-.4c.1-1.1.5-2 1.2-2.5s1.5-.9 2.5-.9c1.1 0 1.9.3 2.6.8.7.6 1 1.3 1 2.3 0 1.3-.6 2.2-1.8 2.5.7.2 1.2.5 1.4 1 .4.5.6 1 .6 1.7v.2h1.8c-.2-.8-.3-1.7-.3-2.6 0-1.8.3-3.1.9-4.1.6-1.3 1.5-1.9 2.9-1.9z"/><path class="st0" d="M79.1 74.4c-1 0-1.8.6-2.2 1.7-.3.8-.5 1.9-.5 3.2 0 1.1.1 1.9.3 2.7h4.8c.2-.7.3-1.6.3-2.7 0-1.4-.2-2.4-.5-3.2-.4-1.2-1.1-1.7-2.2-1.7zM65.6 52.9c2.6 0 4.9 1.7 5.6 4.1H78c.6-1.9 2.1-3.4 4-3.9V7.9C80.7 6.7 78.8 6 76.8 6H12.1C8.2 6 5 9.2 5 13.1V82h47V65.1c0-4.5 3.5-8.1 8-8.1.8-2.4 3-4.1 5.6-4.1zM46.3 49H21.5c-1.3 0-2.4-.9-2.6-2.1-.2-1.7 1.1-2.9 2.5-2.9h24.8c1.3 0 2.4.9 2.6 2.1.2 1.7-1.1 2.9-2.5 2.9zm-25-15c-1.2 0-2.3-.8-2.5-1.9-.4-1.8 1.1-3.1 2.4-3.1h42.9c1.3 0 2.4.9 2.6 2.1.2 1.7-1.1 2.9-2.5 2.9H21.3z"/><path class="st0" d="M81 58.6V60H68v-1.4c0-1-.4-1.9-1.3-2.4-1.8-1.1-3.7.4-3.7 2.2V60h-3.4c-2.5 0-4.6 2.1-4.6 4.6V67h27V56.6c-.7.5-1.1 1.2-1 2z"/><g><linearGradient id="SVGID_1_" gradientUnits="userSpaceOnUse" x1="39.15" y1="20.055" x2="39.15" y2="60.521"><stop offset="0" stop-color="#46baed"/><stop offset="1" stop-color="#5bccff"/></linearGradient><path d="M46.2 44.5c.4-1.2 1.4-2 2.7-2s2.3.8 2.7 2H55c.4-1.2 1.4-2 2.7-2 .3 0 .5 0 .7.1V24.1c0-2.3-1.8-4.1-4.1-4.1h-31c-1.9 0-3.4 1.5-3.4 3.4v33.3c0 2.1 1.8 3.9 3.9 3.9h18.9c-.2-.5-.3-1-.3-1.5V48.3c0-2.1 1.7-3.8 3.8-3.8zm-6.3-3.9h-12c-.7 0-1.2-.5-1.2-1.2s.6-1.2 1.2-1.2h12c.7 0 1.2.5 1.2 1.2s-.6 1.2-1.2 1.2zm-12.1-7.3c-.7 0-1.2-.5-1.2-1.2s.6-1.2 1.2-1.2h20.7c.7 0 1.2.5 1.2 1.2s-.6 1.2-1.2 1.2H27.8z" fill="url(#SVGID_1_)"/><linearGradient id="SVGID_2_" gradientUnits="userSpaceOnUse" x1="55.7" y1="53.006" x2="55.7" y2="57.591"><stop offset="0" stop-color="#46baed"/><stop offset="1" stop-color="#5bccff"/></linearGradient><path d="M55.7 57.6c.5 0 .8-.3 1.1-.8.2-.4.2-.9.2-1.5 0-.7-.1-1.2-.2-1.5-.2-.5-.6-.8-1.1-.8s-.9.3-1.1.8c-.2.4-.2.9-.2 1.5s.1 1.2.2 1.5c.2.5.6.8 1.1.8z" fill="url(#SVGID_2_)"/><linearGradient id="SVGID_3_" gradientUnits="userSpaceOnUse" x1="53.55" y1="44.107" x2="53.55" y2="49.589"><stop offset="0" stop-color="#46baed"/><stop offset="1" stop-color="#5bccff"/></linearGradient><path d="M60.5 46.1H59v-.7c0-.7-.6-1.3-1.2-1.3-.7 0-1.2.6-1.2 1.3v.7h-6.3v-.7c0-.7-.6-1.3-1.2-1.3-.7 0-1.2.6-1.2 1.3v.7h-1.5c-1.2 0-2.2 1-2.2 2.3v1.2h18.7v-1.2c-.2-1.3-1.2-2.3-2.4-2.3z" fill="url(#SVGID_3_)"/><linearGradient id="SVGID_4_" gradientUnits="userSpaceOnUse" x1="53.3" y1="50.515" x2="53.3" y2="61.279"><stop offset="0" stop-color="#46baed"/><stop offset="1" stop-color="#5bccff"/></linearGradient><path d="M44 59c0 1.2 1 2.3 2.2 2.3h14.2c1.2 0 2.2-1 2.2-2.3v-8.5H44V59zm10.2-5.8c.3-.6.8-.9 1.5-.9s1.1.3 1.5.9c.3.5.4 1.2.4 2s-.1 1.5-.4 2c-.3.6-.8.9-1.5.9s-1.2-.3-1.5-.9c-.3-.5-.4-1.2-.4-2s.1-1.5.4-2zM52 55.6c-.2-.2-.5-.3-.9-.3h-.4v-.5h.4c.4 0 .6-.1.8-.3s.3-.4.3-.7-.1-.6-.3-.7c-.2-.2-.5-.3-.8-.3-.4 0-.7.1-.9.3s-.3.5-.4.9h-.6c0-.5.2-1 .6-1.3.3-.3.7-.5 1.3-.5.5 0 1 .1 1.3.4.3.3.5.6.5 1.1 0 .6-.3 1-.9 1.3.3.1.6.3.7.5.2.2.3.5.3.8 0 .5-.2.9-.5 1.2-.4.3-.8.5-1.4.5-.5 0-.9-.1-1.3-.4-.4-.3-.6-.8-.7-1.4h.6c0 .4.2.8.4 1s.5.3.9.3.7-.1.9-.3.3-.5.3-.8c.1-.3 0-.6-.2-.8z" fill="url(#SVGID_4_)"/></g></svg>