<?xml version="1.0" encoding="utf-8"?>
<!-- Generator: Adobe Illustrator 21.0.0, SVG Export Plug-In . SVG Version: 6.00 Build 0)  -->
<svg version="1.1" id="图层_1" xmlns="http://www.w3.org/2000/svg" xmlns:xlink="http://www.w3.org/1999/xlink" x="0px" y="0px"
	 viewBox="0 0 82 82" style="enable-background:new 0 0 82 82;" xml:space="preserve">
<style type="text/css">
	.st0{opacity:0.7303;clip-path:url(#SVGID_2_);fill:#F5F5F5;}
	.st1{clip-path:url(#SVGID_4_);fill:#FFC453;}
</style>
<g>
	<defs>
		<path id="SVGID_1_" d="M29.9,24c-1.5,0-2.7,1.2-2.7,2.7c0,1.5,1.2,2.7,2.7,2.7h27.2c1.5,0,2.7-1.2,2.7-2.7c0-1.5-1.2-2.7-2.7-2.7
			H29.9z M29.9,36c-1.5,0-2.7,1.2-2.7,2.7s1.2,2.7,2.7,2.7h27.2c1.5,0,2.7-1.2,2.7-2.7S58.6,36,57.1,36H29.9z M29.9,12.1
			c-1.5,0-2.7,1.2-2.7,2.7c0,1.5,1.2,2.7,2.7,2.7h27.2c1.5,0,2.7-1.2,2.7-2.7c0-1.5-1.2-2.7-2.7-2.7H29.9z M21.8,0h43.5
			c3,0,5.4,2.4,5.4,5.4v43.5c0,3-2.4,5.4-5.4,5.4H21.8c-3,0-5.4-2.4-5.4-5.4V5.4C16.3,2.4,18.7,0,21.8,0z M10.9,32.6v21.8
			c0,3,2.4,5.4,5.4,5.4h54.4c3,0,5.4-2.4,5.4-5.4V32.6h5.4c3,0,5.4,2.4,5.4,5.4v38.1c0,6-4.9,10.9-10.9,10.9H10.9
			C4.9,87,0,82.1,0,76.1V38.1c0-3,2.4-5.4,5.4-5.4H10.9z"/>
	</defs>
	<clipPath id="SVGID_2_">
		<use xlink:href="#SVGID_1_"  style="overflow:visible;"/>
	</clipPath>
	<rect x="-1" class="st0" width="82" height="82"/>
</g>
<g>
	<defs>
		<path id="SVGID_3_" d="M33.2,29.6c-0.7,0-1.2,0.5-1.2,1.2c0,0.7,0.5,1.2,1.2,1.2h12.3c0.7,0,1.2-0.5,1.2-1.2
			c0-0.7-0.5-1.2-1.2-1.2H33.2z M33.2,35c-0.7,0-1.2,0.5-1.2,1.2c0,0.7,0.5,1.2,1.2,1.2h12.3c0.7,0,1.2-0.5,1.2-1.2
			c0-0.7-0.5-1.2-1.2-1.2H33.2z M33.2,24.2c-0.7,0-1.2,0.5-1.2,1.2c0,0.7,0.5,1.2,1.2,1.2h12.3c0.7,0,1.2-0.5,1.2-1.2
			c0-0.7-0.5-1.2-1.2-1.2H33.2z M29.5,18.7h19.6c1.4,0,2.5,1.1,2.5,2.5v19.6c0,1.4-1.1,2.5-2.5,2.5H29.5c-1.4,0-2.5-1.1-2.5-2.5
			V21.2C27.1,19.8,28.2,18.7,29.5,18.7z M24.6,33.4v9.8c0,1.4,1.1,2.5,2.5,2.5h24.6c1.4,0,2.5-1.1,2.5-2.5v-9.8h2.5
			c1.4,0,2.5,1.1,2.5,2.5v17.2c0,2.7-2.2,4.9-4.9,4.9H24.6c-2.7,0-4.9-2.2-4.9-4.9V35.9c0-1.4,1.1-2.5,2.5-2.5H24.6z"/>
	</defs>
	<clipPath id="SVGID_4_">
		<use xlink:href="#SVGID_3_"  style="overflow:visible;"/>
	</clipPath>
	<rect x="15" y="14" class="st1" width="48.6" height="48.6"/>
</g>
</svg>
