<?xml version="1.0" encoding="utf-8"?>
<!-- Generator: Adobe Illustrator 21.0.0, SVG Export Plug-In . SVG Version: 6.00 Build 0)  -->
<svg version="1.1" id="Layer_1" xmlns="http://www.w3.org/2000/svg" xmlns:xlink="http://www.w3.org/1999/xlink" x="0px" y="0px"
	 viewBox="0 0 82 82" style="enable-background:new 0 0 82 82;" xml:space="preserve">
<style type="text/css">
	.st0{fill:#F9F9F9;}
	.st1{fill:url(#Combined-Shape_2_);}
</style>
<title>报表查询类 报表查询</title>
<desc>Created with Sketch.</desc>
<path class="st0" d="M80.6,81.9l1.4,0V58c-2.8-3.4-7.1-5.6-11.9-5.6c-8.5,0-15.5,7-15.5,15.6c0,6,3.4,11.2,8.3,13.8l14.3,0.1
	c0.7-0.4,1.4-0.8,2.1-1.3L80.6,81.9z M70.1,79.3c-6.2,0-11.2-5.1-11.2-11.3c0-6.2,5-11.3,11.2-11.3c6.2,0,11.2,5.1,11.2,11.3
	C81.4,74.2,76.3,79.3,70.1,79.3z"/>
<path class="st0" d="M49.2,67.8c0-11.2,9.4-19.7,20.6-19.7c2.3,0,4.8,0.4,7.1,1.1V13.7C77,9.4,73.5,6,69.3,6H11.4
	C7.9,6,5,8.9,5,12.5v61.9c0,4,3.2,7.2,7.2,7.2h18.4h24.3C51.2,79.3,49.2,73.5,49.2,67.8z M19.7,26.3h38.7c1.3,0,2.3,1,2.3,2.3
	c0,1.3-1,2.3-2.3,2.3H19.7c-1.3,0-2.3-1-2.3-2.3C17.4,27.3,18.4,26.3,19.7,26.3z M19.3,39.5h32.2c1.1,0,1.9,1,1.9,2.3
	c0,1.3-0.9,2.3-1.9,2.3H19.3c-1.1,0-1.9-1-1.9-2.3C17.4,40.5,18.2,39.5,19.3,39.5z M42.2,56.8H19.7c-1.3,0-2.3-1-2.3-2.3
	c0-1.3,1-2.3,2.3-2.3h22.5c1.3,0,2.3,1,2.3,2.3C44.5,55.9,43.4,56.8,42.2,56.8z"/>
<linearGradient id="Combined-Shape_2_" gradientUnits="userSpaceOnUse" x1="-446.05" y1="530.1552" x2="-446.05" y2="529.1552" gradientTransform="matrix(40 0 0 -38.6667 17883 20522.334)">
	<stop  offset="0" style="stop-color:#47BAEE"/>
	<stop  offset="1" style="stop-color:#5BCCFF"/>
</linearGradient>
<path id="Combined-Shape_1_" class="st1" d="M60.7,59.9c0.4,0.4,0.4,1.1,0,1.5c-0.2,0.2-0.5,0.3-0.7,0.3s-0.5-0.1-0.7-0.3l-2-2
	c-1.3,0.9-2.8,1.5-4.5,1.5c-4.2,0-7.6-3.4-7.6-7.6s3.4-7.6,7.6-7.6c4.2,0,7.6,3.4,7.6,7.6c0,1.8-0.6,3.4-1.6,4.7L60.7,59.9z
	 M52.8,58.8c3,0,5.5-2.5,5.5-5.5s-2.5-5.5-5.5-5.5s-5.5,2.5-5.5,5.5S49.7,58.8,52.8,58.8z M39.1,47.8h-11c-0.6,0-1.1-0.5-1.1-1.1
	s0.5-1.1,1.1-1.1h11c0.6,0,1.1,0.5,1.1,1.1S39.7,47.8,39.1,47.8z M28,39.4h15.7c0.5,0,0.9,0.5,0.9,1.1s-0.4,1.1-0.9,1.1H28
	c-0.5,0-0.9-0.5-0.9-1.1S27.5,39.4,28,39.4 M28.2,32.9H47c0.6,0,1.1,0.5,1.1,1.1s-0.5,1.1-1.1,1.1H28.2c-0.6,0-1.1-0.5-1.1-1.1
	S27.5,32.9,28.2,32.9 M52.6,43.5c1.1,0,2.4,0.2,3.5,0.5V26.7c0-2.1-1.7-3.7-3.7-3.7H24.1c-1.7,0-3.1,1.4-3.1,3.2v30.2
	c0,1.9,1.6,3.5,3.5,3.5h9h11.8c-1.8-1.1-2.7-4-2.7-6.7C42.6,47.7,47.2,43.5,52.6,43.5"/>
</svg>
