<?xml version="1.0" encoding="utf-8"?>
<!-- Generator: Adobe Illustrator 22.1.0, SVG Export Plug-In . SVG Version: 6.00 Build 0)  -->
<svg version="1.1" id="图层_1" xmlns="http://www.w3.org/2000/svg" xmlns:xlink="http://www.w3.org/1999/xlink" x="0px" y="0px"
	 viewBox="0 0 65 65" style="enable-background:new 0 0 65 65;" xml:space="preserve">
<style type="text/css">
	.st0{fill:url(#Oval-6-Copy-6_1_);}
	.st1{fill:#FFFFFF;}
	.st2{fill:#FB4A29;}
	.st3{fill:url(#Oval-6-Copy-7_1_);}
	.st4{fill:url(#Oval-6-Copy-8_1_);}
</style>
<g>
	
		<radialGradient id="Oval-6-Copy-6_1_" cx="-265.4492" cy="450.1325" r="0.6373" gradientTransform="matrix(6.000000e-15 101.8666 101.0097 -6.000000e-15 -45451.7461 27034.9668)" gradientUnits="userSpaceOnUse">
		<stop  offset="0" style="stop-color:#F95625"/>
		<stop  offset="0.7634" style="stop-color:#FB4A29"/>
		<stop  offset="1" style="stop-color:#E9005B"/>
	</radialGradient>
	<ellipse id="Oval-6-Copy-6_17_" class="st0" cx="32.5" cy="32.5" rx="32.5" ry="32.5"/>
	<g id="XMLID_121_">
		<g id="XMLID_117_">
			<path id="XMLID_262_" class="st1" d="M37.7,18.5h-2.2v-0.3c0-0.8-0.7-1.5-1.5-1.5h-3.1c-0.8,0-1.5,0.7-1.5,1.5v0.3h-2.2v4.3h10.4
				V18.5z M32.5,21.1c-0.7,0-1.3-0.6-1.3-1.3c0-0.7,0.6-1.3,1.3-1.3c0.7,0,1.3,0.6,1.3,1.3C33.8,20.6,33.2,21.1,32.5,21.1z"/>
			<path id="XMLID_118_" class="st1" d="M44.1,39.5c0.7,1.9,0.3,4.2-1.3,5.7c-1.6,1.5-3.9,1.8-5.8,0.9l2.6-2.4
				c0.5-0.5,0.6-1.3,0.1-1.8l-0.9-1c-0.5-0.5-1.3-0.6-1.8-0.1l-2.6,2.4c-0.7-1.9-0.3-4.2,1.3-5.7c1.6-1.5,3.9-1.8,5.8-0.9l5-4.6V22
				c0-1-0.8-1.8-1.8-1.8h-4.8v4.3H25.1v-4.3h-4.8c-1,0-1.8,0.8-1.8,1.8v23.4c0,1,0.8,1.8,1.8,1.8h24.3c1,0,1.8-0.8,1.8-1.8v-8.1
				L44.1,39.5z"/>
		</g>
		<path id="XMLID_120_" class="st2" d="M23.2,34.3L23.2,34.3c0-0.5,0.4-0.9,0.9-0.9h9.2c0.5,0,0.9,0.4,0.9,0.9l0,0
			c0,0.5-0.4,0.9-0.9,0.9h-9.2C23.6,35.2,23.2,34.8,23.2,34.3z"/>
		<path id="XMLID_119_" class="st2" d="M23.2,29.3v-0.2c0-0.5,0.4-0.8,0.8-0.8h15.2c0.5,0,0.8,0.4,0.8,0.8v0.2
			c0,0.5-0.4,0.8-0.8,0.8H24C23.6,30.2,23.2,29.8,23.2,29.3z"/>
	</g>
	
		<radialGradient id="Oval-6-Copy-7_1_" cx="-266.118" cy="457.6747" r="0.8336" gradientTransform="matrix(34.3643 -47.4967 -47.0972 -34.6558 30740.5762 3274.248)" gradientUnits="userSpaceOnUse">
		<stop  offset="0" style="stop-color:#BF2A00;stop-opacity:0"/>
		<stop  offset="1" style="stop-color:#FF5A3F;stop-opacity:0.84"/>
	</radialGradient>
	<path id="Oval-6-Copy-7_17_" class="st3" d="M32.5,64.8C50.4,64.8,65,50.3,65,32.4c0-1.3,0-1.9-0.1-2.6c-0.1-0.6-0.1-1.3-0.2-1.7
		c-0.9-2.2-3.4,1.1-14.5,4.3C34.3,37,34,47.3,29.2,50c-9.8,5.6-10.8,0-15.9-4.1c-5.6-4.6-11.8-2-9.1,2.7
		C9.9,58.3,20.5,64.8,32.5,64.8z"/>
	
		<radialGradient id="Oval-6-Copy-8_1_" cx="-270.0275" cy="452.8353" r="0.9127" gradientTransform="matrix(55.721 14.5928 14.4701 -56.1937 8540.3369 29431.1953)" gradientUnits="userSpaceOnUse">
		<stop  offset="0" style="stop-color:#FF8415;stop-opacity:0"/>
		<stop  offset="1" style="stop-color:#FF94A0;stop-opacity:0.84"/>
	</radialGradient>
	<path id="Oval-6-Copy-8_17_" class="st4" d="M32.5,65C50.4,65,65,50.5,65,32.5c0-1.3,0-1.9-0.1-2.6c-0.1-0.6-0.1-1.3-0.2-1.7
		c-0.9-2.2-1.3,11-8.3,11c-17.8,0-11.3,13.5-24.7,5c-9.3-5.9-8.5,16.2-19.8,5.1S1.6,44,4.3,48.7C9.9,58.5,20.5,65,32.5,65z"/>
</g>
</svg>
