<?xml version="1.0" encoding="utf-8"?>
<!-- Generator: Adobe Illustrator 22.1.0, SVG Export Plug-In . SVG Version: 6.00 Build 0)  -->
<svg version="1.1" id="图层_1" xmlns="http://www.w3.org/2000/svg" xmlns:xlink="http://www.w3.org/1999/xlink" x="0px" y="0px"
	 viewBox="0 0 65 65" style="enable-background:new 0 0 65 65;" xml:space="preserve">
<style type="text/css">
	.st0{fill:url(#Oval-6-Copy-6_1_);}
	.st1{fill-rule:evenodd;clip-rule:evenodd;fill:#FFFFFF;}
	.st2{fill:url(#Oval-6-Copy-7_1_);}
	.st3{fill:url(#Oval-6-Copy-8_1_);}
</style>
<g>
	
		<radialGradient id="Oval-6-Copy-6_1_" cx="-265.4492" cy="448.4693" r="0.6373" gradientTransform="matrix(6.000000e-15 101.8666 101.0097 -6.000000e-15 -45283.7461 27034.9668)" gradientUnits="userSpaceOnUse">
		<stop  offset="0" style="stop-color:#FF6907"/>
		<stop  offset="0.7634" style="stop-color:#FB9C00"/>
		<stop  offset="1" style="stop-color:#FFBD55"/>
	</radialGradient>
	<ellipse id="Oval-6-Copy-6_18_" class="st0" cx="32.5" cy="32.5" rx="32.5" ry="32.5"/>
	<path id="XMLID_100_" class="st1" d="M38.5,37.8c0.6,0,1-0.4,1-0.9c0-0.5-0.5-0.9-1-0.9H25.7c-0.6,0-1,0.4-1,0.9
		c0,0.5,0.5,0.9,1,0.9H38.5z M38.5,32.1c0.6,0,1-0.4,1-0.9c0-0.5-0.5-0.9-1-0.9H25.7c-0.6,0-1,0.4-1,0.9c0,0.5,0.5,0.9,1,0.9H38.5z
		 M44.4,25.6h-7.2c-0.5,0-0.8-0.4-0.8-0.8v-7.5L44.4,25.6z M37.2,27.2h7.7v19.9H19.4V19.3c0-1.3,1.1-2.4,2.5-2.4h12.6v8
		C34.6,26.2,35.8,27.2,37.2,27.2z"/>
	
		<radialGradient id="Oval-6-Copy-7_1_" cx="-267.8165" cy="460.0024" r="0.8336" gradientTransform="matrix(34.3643 -47.4967 -47.0972 -34.6558 30908.5762 3274.248)" gradientUnits="userSpaceOnUse">
		<stop  offset="0" style="stop-color:#FF9203;stop-opacity:0"/>
		<stop  offset="1" style="stop-color:#D48200;stop-opacity:0.84"/>
	</radialGradient>
	<path id="Oval-6-Copy-7_15_" class="st2" d="M32.5,64.8C50.4,64.8,65,50.3,65,32.4c0-1.3,0-1.9-0.1-2.6c-0.1-0.6-0.1-1.3-0.2-1.7
		c-0.9-2.2-3.4,1.1-14.5,4.3C34.3,37,34,47.3,29.2,50c-9.8,5.6-10.8,0-15.9-4.1c-5.6-4.6-11.8-2-9.1,2.7
		C9.9,58.3,20.5,64.8,32.5,64.8z"/>
	
		<radialGradient id="Oval-6-Copy-8_1_" cx="-267.9771" cy="460.2997" r="0.6495" gradientTransform="matrix(34.6002 -46.4016 -46.0113 -34.8937 30497.7266 3671.2566)" gradientUnits="userSpaceOnUse">
		<stop  offset="0" style="stop-color:#FFB703;stop-opacity:0"/>
		<stop  offset="1" style="stop-color:#FFDD6A;stop-opacity:0.84"/>
	</radialGradient>
	<path id="Oval-6-Copy-8_15_" class="st3" d="M32.5,65C50.4,65,65,50.5,65,32.5c0-1.3,0-1.9-0.1-2.6c-0.1-0.6-0.1-1.3-0.2-1.7
		c-0.9-2.2-1.3,11-8.3,11c-17.8,0-11.3,13.5-24.7,5c-9.3-5.9-8.5,16.2-19.8,5.1S1.6,44,4.3,48.7C9.9,58.5,20.5,65,32.5,65z"/>
</g>
</svg>
