<?xml version="1.0" encoding="utf-8"?>
<!-- Generator: Adobe Illustrator 22.1.0, SVG Export Plug-In . SVG Version: 6.00 Build 0)  -->
<svg version="1.1" id="图层_1" xmlns="http://www.w3.org/2000/svg" xmlns:xlink="http://www.w3.org/1999/xlink" x="0px" y="0px"
	 viewBox="0 0 65 65" style="enable-background:new 0 0 65 65;" xml:space="preserve">
<style type="text/css">
	.st0{fill:url(#Oval-6-Copy-6_1_);}
	.st1{fill-rule:evenodd;clip-rule:evenodd;fill:#FFFFFF;}
	.st2{fill:url(#Oval-6-Copy-7_1_);}
	.st3{fill:url(#Oval-6-Copy-8_1_);}
	.st4{fill:#FB4A29;}
</style>
<g>
	
		<radialGradient id="Oval-6-Copy-6_1_" cx="-265.4492" cy="450.1325" r="0.6373" gradientTransform="matrix(6.000000e-15 101.8666 101.0097 -6.000000e-15 -45451.7461 27034.9668)" gradientUnits="userSpaceOnUse">
		<stop  offset="0" style="stop-color:#F95625"/>
		<stop  offset="0.7634" style="stop-color:#FB4A29"/>
		<stop  offset="1" style="stop-color:#E9005B"/>
	</radialGradient>
	<ellipse id="Oval-6-Copy-6_58_" class="st0" cx="32.5" cy="32.5" rx="32.5" ry="32.5"/>
	<path id="XMLID_94_" class="st1" d="M43.8,17.5H20.2c-1.2,0-2.2,1-2.2,2.1v25.6c0,1.2,1,2.1,2.2,2.1h23.5c1.2,0,2.2-1,2.2-2.1V19.6
		C45.9,18.4,45,17.5,43.8,17.5 M36,38.2c0-0.2,0.1-0.4,0.1-0.6c0-0.2,0-0.4-0.1-0.6l0.8-0.7c0.1-0.1,0.2-0.3,0.1-0.4l-0.8-1.3
		c-0.1-0.1-0.3-0.2-0.4-0.2l-1.1,0.3c-0.4-0.3-0.8-0.5-1.2-0.6l-0.2-1c0-0.2-0.2-0.3-0.4-0.3h-1.6c-0.2,0-0.3,0.1-0.4,0.3l-0.2,1
		c-0.4,0.2-0.8,0.4-1.2,0.6l-1.1-0.3c-0.2,0-0.3,0-0.4,0.2l-0.8,1.3c-0.1,0.1-0.1,0.3,0.1,0.4l0.8,0.7c0,0.2-0.1,0.4-0.1,0.6
		c0,0.2,0,0.4,0.1,0.6l-0.8,0.7C27,39,27,39.2,27.1,39.3l0.8,1.3c0.1,0.1,0.3,0.2,0.4,0.2l1.1-0.3c0.4,0.3,0.8,0.5,1.2,0.6l0.2,1
		c0,0.2,0.2,0.3,0.4,0.3h1.6c0.2,0,0.3-0.1,0.4-0.3l0.2-1c0.4-0.2,0.8-0.4,1.2-0.6l1.1,0.3c0.2,0,0.3,0,0.4-0.2l0.8-1.3
		c0.1-0.1,0.1-0.3-0.1-0.4L36,38.2z M32.2,35.9c1,0,1.9,0.8,1.9,1.8c0,1-0.8,1.8-1.9,1.8c-1,0-1.9-0.8-1.9-1.8
		C30.3,36.7,31.2,35.9,32.2,35.9z"/>
	
		<radialGradient id="Oval-6-Copy-7_1_" cx="-266.118" cy="457.6747" r="0.8336" gradientTransform="matrix(34.3643 -47.4967 -47.0972 -34.6558 30740.5762 3274.248)" gradientUnits="userSpaceOnUse">
		<stop  offset="0" style="stop-color:#BF2A00;stop-opacity:0"/>
		<stop  offset="1" style="stop-color:#FF5A3F;stop-opacity:0.84"/>
	</radialGradient>
	<path id="Oval-6-Copy-7_58_" class="st2" d="M32.5,64.8C50.4,64.8,65,50.3,65,32.4c0-1.3,0-1.9-0.1-2.6c-0.1-0.6-0.1-1.3-0.2-1.7
		c-0.9-2.2-3.4,1.1-14.5,4.3C34.3,37,34,47.3,29.2,50c-9.8,5.6-10.8,0-15.9-4.1c-5.6-4.6-11.8-2-9.1,2.7
		C9.9,58.3,20.5,64.8,32.5,64.8z"/>
	
		<radialGradient id="Oval-6-Copy-8_1_" cx="-270.0275" cy="452.8353" r="0.9127" gradientTransform="matrix(55.721 14.5928 14.4701 -56.1937 8540.3369 29431.1953)" gradientUnits="userSpaceOnUse">
		<stop  offset="0" style="stop-color:#FF8415;stop-opacity:0"/>
		<stop  offset="1" style="stop-color:#FF94A0;stop-opacity:0.84"/>
	</radialGradient>
	<path id="Oval-6-Copy-8_58_" class="st3" d="M32.5,65C50.4,65,65,50.5,65,32.5c0-1.3,0-1.9-0.1-2.6c-0.1-0.6-0.1-1.3-0.2-1.7
		c-0.9-2.2-1.3,11-8.3,11c-17.8,0-11.3,13.5-24.7,5c-9.3-5.9-8.5,16.2-19.8,5.1S1.6,44,4.3,48.7C9.9,58.5,20.5,65,32.5,65z"/>
	<path id="XMLID_95_" class="st4" d="M23.1,28.8L23.1,28.8c0-0.5,0.4-0.9,0.9-0.9h5.6c0.5,0,0.9,0.4,0.9,0.9v0
		c0,0.5-0.4,0.9-0.9,0.9H24C23.5,29.7,23.1,29.3,23.1,28.8z"/>
	<path id="XMLID_35_" class="st4" d="M23.3,23.8L23.3,23.8c0-0.5,0.4-0.9,0.9-0.9h15.1c0.5,0,0.9,0.4,0.9,0.9v0
		c0,0.5-0.4,0.9-0.9,0.9H24.2C23.7,24.7,23.3,24.3,23.3,23.8z"/>
</g>
</svg>
