<?xml version="1.0" encoding="utf-8"?>
<!-- Generator: Adobe Illustrator 22.1.0, SVG Export Plug-In . SVG Version: 6.00 Build 0)  -->
<svg version="1.1" id="图层_1" xmlns="http://www.w3.org/2000/svg" xmlns:xlink="http://www.w3.org/1999/xlink" x="0px" y="0px"
	 viewBox="0 0 65 65" style="enable-background:new 0 0 65 65;" xml:space="preserve">
<style type="text/css">
	.st0{fill:url(#Oval-6-Copy-6_1_);}
	.st1{fill-rule:evenodd;clip-rule:evenodd;fill:#FFFFFF;}
	.st2{fill:url(#Oval-6-Copy-7_1_);}
	.st3{fill:url(#Oval-6-Copy-8_1_);}
</style>
<g>
	
		<radialGradient id="Oval-6-Copy-6_1_" cx="-265.4492" cy="448.4693" r="0.6373" gradientTransform="matrix(6.000000e-15 101.8666 101.0097 -6.000000e-15 -45283.7461 27034.9668)" gradientUnits="userSpaceOnUse">
		<stop  offset="0" style="stop-color:#FF6907"/>
		<stop  offset="0.7634" style="stop-color:#FB9C00"/>
		<stop  offset="1" style="stop-color:#FFBD55"/>
	</radialGradient>
	<ellipse id="Oval-6-Copy-6_9_" class="st0" cx="32.5" cy="32.5" rx="32.5" ry="32.5"/>
	<g id="XMLID_147_">
		<path id="XMLID_148_" class="st1" d="M36.4,33.6c-2,0-3.5,1.6-3.5,3.5c0,2,1.6,3.5,3.5,3.5c1.9,0,3.5-1.6,3.5-3.5
			C40,35.1,38.4,33.6,36.4,33.6z"/>
		<path id="XMLID_149_" class="st1" d="M44.5,17.8H20.5c-1.5,0-2.7,1.2-2.7,2.7v23.9c0,1.5,1.2,2.7,2.7,2.7h23.9
			c1.5,0,2.7-1.2,2.7-2.7V20.4C47.1,19,45.9,17.8,44.5,17.8z M25.3,29.4c-0.7,0-1.3-0.6-1.3-1.3c0-0.6,0.5-1.1,1.1-1.2v-1.3h-3.4
			v1.3c0.6,0.1,1.1,0.6,1.1,1.2c0,0.7-0.6,1.3-1.3,1.3c-0.7,0-1.3-0.6-1.3-1.3c0-0.6,0.4-1.1,1-1.2v-1.3v-0.4h3.8v-1.6
			c-0.9-0.1-1.7-0.9-1.7-1.9c0-1,0.8-1.9,1.9-1.9c1,0,1.9,0.8,1.9,1.9c0,1-0.7,1.8-1.7,1.9v1.6h4.2v0.4v1.2c0.6,0.1,1.1,0.6,1.1,1.3
			c0,0.7-0.6,1.3-1.3,1.3c-0.7,0-1.3-0.6-1.3-1.3c0-0.6,0.4-1.1,1-1.2v-1.3h-3.8v1.3c0.6,0.1,1,0.6,1,1.2
			C26.5,28.9,26,29.4,25.3,29.4z M45.2,38.3c-0.1,0.4-0.4,0.8-0.8,0.9l-0.3,0.1c-0.7,0.2-1.3,0.7-1.7,1.3c-0.4,0.7-0.5,1.4-0.3,2.1
			l0.1,0.3c0.1,0.4,0,0.9-0.3,1.1c0,0-0.3,0.2-1,0.7c-0.8,0.4-1.1,0.6-1.1,0.6c-0.4,0.1-0.9,0-1.2-0.3l-0.2-0.2
			c-0.5-0.5-1.2-0.8-2-0.8c-0.8,0-1.5,0.3-2,0.8L34.3,45c-0.3,0.3-0.8,0.4-1.2,0.3c0,0-0.3-0.1-1.1-0.6c-0.8-0.4-1-0.7-1-0.7
			c-0.3-0.3-0.5-0.8-0.3-1.1l0.1-0.3c0.2-0.7,0.1-1.4-0.3-2.1c-0.4-0.7-1-1.1-1.7-1.3l-0.3-0.1c-0.4-0.1-0.8-0.5-0.8-0.9
			c0,0-0.1-0.3-0.1-1.2c0-0.9,0.1-1.2,0.1-1.2c0.1-0.4,0.4-0.8,0.8-0.9l0.3-0.1c0.7-0.2,1.3-0.7,1.7-1.3c0.4-0.7,0.5-1.4,0.3-2.1
			l-0.1-0.3c-0.1-0.4,0-0.9,0.3-1.1c0,0,0.3-0.2,1-0.7c0.8-0.4,1.1-0.6,1.1-0.6c0.4-0.1,0.9,0,1.2,0.3l0.2,0.2
			c0.5,0.5,1.2,0.8,2,0.8c0.8,0,1.5-0.3,2-0.8l0.2-0.2c0.3-0.3,0.8-0.4,1.2-0.3c0,0,0.3,0.1,1.1,0.6c0.8,0.4,1,0.7,1,0.7
			c0.3,0.3,0.5,0.8,0.3,1.1l-0.1,0.3c-0.2,0.7-0.1,1.4,0.3,2.1c0.4,0.7,1,1.1,1.7,1.3l0.3,0.1c0.4,0.1,0.8,0.5,0.8,0.9
			c0,0,0.1,0.3,0.1,1.2C45.3,38,45.2,38.3,45.2,38.3z"/>
	</g>
	
		<radialGradient id="Oval-6-Copy-7_1_" cx="-267.8165" cy="460.0024" r="0.8336" gradientTransform="matrix(34.3643 -47.4967 -47.0972 -34.6558 30908.5762 3274.248)" gradientUnits="userSpaceOnUse">
		<stop  offset="0" style="stop-color:#FF9203;stop-opacity:0"/>
		<stop  offset="1" style="stop-color:#D48200;stop-opacity:0.84"/>
	</radialGradient>
	<path id="Oval-6-Copy-7_10_" class="st2" d="M32.5,64.8C50.4,64.8,65,50.3,65,32.4c0-1.3,0-1.9-0.1-2.6c-0.1-0.6-0.1-1.3-0.2-1.7
		c-0.9-2.2-3.4,1.1-14.5,4.3C34.3,37,34,47.3,29.2,50c-9.8,5.6-10.8,0-15.9-4.1c-5.6-4.6-11.8-2-9.1,2.7
		C9.9,58.3,20.5,64.8,32.5,64.8z"/>
	
		<radialGradient id="Oval-6-Copy-8_1_" cx="-267.9771" cy="460.2997" r="0.6495" gradientTransform="matrix(34.6002 -46.4016 -46.0113 -34.8937 30497.7266 3671.2566)" gradientUnits="userSpaceOnUse">
		<stop  offset="0" style="stop-color:#FFB703;stop-opacity:0"/>
		<stop  offset="1" style="stop-color:#FFDD6A;stop-opacity:0.84"/>
	</radialGradient>
	<path id="Oval-6-Copy-8_10_" class="st3" d="M32.5,65C50.4,65,65,50.5,65,32.5c0-1.3,0-1.9-0.1-2.6c-0.1-0.6-0.1-1.3-0.2-1.7
		c-0.9-2.2-1.3,11-8.3,11c-17.8,0-11.3,13.5-24.7,5c-9.3-5.9-8.5,16.2-19.8,5.1S1.6,44,4.3,48.7C9.9,58.5,20.5,65,32.5,65z"/>
</g>
</svg>
