<?xml version="1.0" encoding="utf-8"?>
<!-- Generator: Adobe Illustrator 22.1.0, SVG Export Plug-In . SVG Version: 6.00 Build 0)  -->
<svg version="1.1" id="图层_1" xmlns="http://www.w3.org/2000/svg" xmlns:xlink="http://www.w3.org/1999/xlink" x="0px" y="0px"
	 viewBox="0 0 65 65" style="enable-background:new 0 0 65 65;" xml:space="preserve">
<style type="text/css">
	.st0{fill:url(#Oval-6-Copy-6_1_);}
	.st1{fill:#FFFFFF;}
	.st2{fill:#586BE6;}
	.st3{fill:url(#Oval-6-Copy-7_1_);}
	.st4{fill:url(#Oval-6-Copy-8_1_);}
</style>
<g>
	
		<radialGradient id="Oval-6-Copy-6_1_" cx="-267.4403" cy="454.5795" r="1" gradientTransform="matrix(4.000000e-15 64.915 64.3689 -4.000000e-15 -29244.793 17355.4473)" gradientUnits="userSpaceOnUse">
		<stop  offset="0" style="stop-color:#823FFF"/>
		<stop  offset="0.7634" style="stop-color:#586BE6"/>
		<stop  offset="1" style="stop-color:#3F71FF"/>
	</radialGradient>
	<ellipse id="Oval-6-Copy-6_8_" class="st0" cx="32.5" cy="32.5" rx="32.5" ry="32.5"/>
	<g id="XMLID_201_">
		<g id="XMLID_47_">
			<g id="XMLID_204_">
				<path id="XMLID_208_" class="st1" d="M45.2,20h-4.8v4.3H25.6V20h-4.8c-1,0-1.8,0.8-1.8,1.8v23.4c0,1,0.8,1.8,1.8,1.8h24.3
					c1,0,1.8-0.8,1.8-1.8V21.7C46.9,20.8,46.1,20,45.2,20z"/>
				<path id="XMLID_205_" class="st1" d="M38.2,18.2h-2.2V18c0-0.8-0.7-1.5-1.5-1.5h-3.1c-0.8,0-1.5,0.7-1.5,1.5v0.3h-2.2v4.3h10.4
					V18.2z M33,20.8c-0.7,0-1.3-0.6-1.3-1.3s0.6-1.3,1.3-1.3c0.7,0,1.3,0.6,1.3,1.3S33.7,20.8,33,20.8z"/>
			</g>
		</g>
		<g id="XMLID_27_">
			<polygon id="XMLID_53_" class="st2" points="25.5,33.9 28,31.8 30.7,34.6 38.4,28.7 40.5,31.2 30.7,38.7 			"/>
		</g>
	</g>
	
		<radialGradient id="Oval-6-Copy-7_1_" cx="-263.0881" cy="457.4879" r="1.8062" gradientTransform="matrix(35.8896 9.687 9.6055 -36.1941 5088.1548 19159.8047)" gradientUnits="userSpaceOnUse">
		<stop  offset="0" style="stop-color:#2D00BA;stop-opacity:0"/>
		<stop  offset="1" style="stop-color:#9F94FF;stop-opacity:0.84"/>
	</radialGradient>
	<path id="Oval-6-Copy-7_8_" class="st3" d="M32.5,64.8C50.4,64.8,65,50.3,65,32.4c0-1.3,0-1.9-0.1-2.6c-0.1-0.6-0.1-1.3-0.2-1.7
		c-0.9-2.2-3.4,1.1-14.5,4.3C34.3,37,34,47.3,29.2,50c-9.8,5.6-10.8,0-15.9-4.1c-5.6-4.6-11.8-2-9.1,2.7
		C9.9,58.3,20.5,64.8,32.5,64.8z"/>
	
		<radialGradient id="Oval-6-Copy-8_1_" cx="-258.9484" cy="453.2956" r="1.0192" gradientTransform="matrix(22.0491 -29.5696 -29.3209 -22.2362 19047.3223 2466.8083)" gradientUnits="userSpaceOnUse">
		<stop  offset="0" style="stop-color:#B794FF;stop-opacity:0"/>
		<stop  offset="1" style="stop-color:#9E6AFF;stop-opacity:0.84"/>
	</radialGradient>
	<path id="Oval-6-Copy-8_8_" class="st4" d="M32.5,65C50.4,65,65,50.5,65,32.5c0-1.3,0-1.9-0.1-2.6c-0.1-0.6-0.1-1.3-0.2-1.7
		c-0.9-2.2-1.3,11-8.3,11c-17.8,0-11.3,13.5-24.7,5c-9.3-5.9-8.5,16.2-19.8,5.1S1.6,44,4.3,48.7C9.9,58.5,20.5,65,32.5,65z"/>
</g>
</svg>
