<?xml version="1.0" encoding="utf-8"?>
<!-- Generator: Adobe Illustrator 22.1.0, SVG Export Plug-In . SVG Version: 6.00 Build 0)  -->
<svg version="1.1" id="图层_1" xmlns="http://www.w3.org/2000/svg" xmlns:xlink="http://www.w3.org/1999/xlink" x="0px" y="0px"
	 viewBox="0 0 65 65" style="enable-background:new 0 0 65 65;" xml:space="preserve">
<style type="text/css">
	.st0{fill:url(#Oval-6-Copy-6_1_);}
	.st1{fill:#FFFFFF;}
	.st2{fill:#0776FF;}
	.st3{fill:url(#Oval-6-Copy-7_1_);}
	.st4{fill:url(#Oval-6-Copy-8_1_);}
</style>
<g>
	
		<radialGradient id="Oval-6-Copy-6_1_" cx="-265.4492" cy="451.7957" r="0.6373" gradientTransform="matrix(6.000000e-15 101.8666 101.0097 -6.000000e-15 -45619.7461 27034.9688)" gradientUnits="userSpaceOnUse">
		<stop  offset="0" style="stop-color:#0776FF"/>
		<stop  offset="0.7634" style="stop-color:#0089FB"/>
		<stop  offset="1" style="stop-color:#3F81FF"/>
	</radialGradient>
	<ellipse id="Oval-6-Copy-6_7_" class="st0" cx="32.5" cy="32.5" rx="32.5" ry="32.5"/>
	<g id="XMLID_44_">
		<path id="XMLID_56_" class="st1" d="M49.3,40.6c0-0.3,0-0.5-0.1-0.8l1.2-1.5c-0.3-0.8-0.7-1.5-1.2-2.2l-1.9,0.2
			c-0.4-0.4-1-0.7-1.5-0.9L45,33.6c-0.4-0.1-0.9-0.1-1.4-0.1c-0.4,0-0.8,0-1.1,0.1l-0.8,1.7c-0.6,0.2-1.1,0.5-1.5,0.9l-1.9-0.2
			c-0.5,0.6-1,1.4-1.3,2.2l1.1,1.6c-0.1,0.3-0.1,0.6-0.1,1c0,0.3,0,0.5,0.1,0.8l-1.2,1.5c0.3,0.8,0.7,1.5,1.2,2.2l1.9-0.2
			c0.4,0.4,1,0.7,1.5,0.9l0.7,1.8c0.4,0.1,0.9,0.1,1.4,0.1c0.4,0,0.8,0,1.1-0.1l0.8-1.7c0.6-0.2,1.1-0.5,1.5-0.9l1.9,0.2
			c0.5-0.6,1-1.4,1.3-2.2l-1.1-1.6C49.3,41.2,49.3,40.9,49.3,40.6L49.3,40.6z M47.2,40.6c0,1.9-1.6,3.5-3.5,3.5
			c-1.9,0-3.5-1.6-3.5-3.5c0-1.9,1.6-3.5,3.5-3.5C45.6,37.1,47.2,38.6,47.2,40.6L47.2,40.6z M47.2,40.6"/>
		<path id="XMLID_60_" class="st1" d="M34.4,40.8c0-5.1,4.3-9.2,9.6-9.2c0,0,0.1,0,0.1,0V20c0-1.5-1.3-2.8-2.9-2.8H19.6
			c-1.6,0-2.9,1.3-2.9,2.8v24.3c0,1.5,1.3,2.8,2.9,2.8c3.7-1.6,7.4-3.2,11.1-4.8c1.5,0.7,3,1.4,4.4,2C34.6,43.2,34.4,42,34.4,40.8z"
			/>
		<path id="XMLID_42_" class="st2" d="M21.3,25.1L21.3,25.1c0-0.5,0.4-0.9,0.9-0.9h10.3c0.5,0,0.9,0.4,0.9,0.9v0
			c0,0.5-0.4,0.9-0.9,0.9H22.2C21.7,26,21.3,25.6,21.3,25.1z"/>
		<path id="XMLID_41_" class="st2" d="M21.3,30.8L21.3,30.8c0-0.5,0.4-0.9,0.9-0.9h13.9c0.5,0,0.9,0.4,0.9,0.9v0
			c0,0.5-0.4,0.9-0.9,0.9H22.2C21.7,31.7,21.3,31.3,21.3,30.8z"/>
	</g>
	
		<radialGradient id="Oval-6-Copy-7_1_" cx="-264.4196" cy="455.3469" r="0.8336" gradientTransform="matrix(34.3643 -47.4967 -47.0972 -34.6558 30572.5762 3274.2495)" gradientUnits="userSpaceOnUse">
		<stop  offset="0" style="stop-color:#94ADFF;stop-opacity:0"/>
		<stop  offset="1" style="stop-color:#002DFF;stop-opacity:0.84"/>
	</radialGradient>
	<path id="Oval-6-Copy-7_7_" class="st3" d="M32.5,64.8C50.4,64.8,65,50.3,65,32.4c0-1.3,0-1.9-0.1-2.6c-0.1-0.6-0.1-1.3-0.2-1.7
		c-0.9-2.2-3.4,1.1-14.5,4.3C34.3,37,34,47.3,29.2,50c-9.8,5.6-10.8,0-15.9-4.1c-5.6-4.6-11.8-2-9.1,2.7
		C9.9,58.3,20.5,64.8,32.5,64.8z"/>
	
		<radialGradient id="Oval-6-Copy-8_1_" cx="-264.4692" cy="455.635" r="0.6495" gradientTransform="matrix(34.6002 -46.4016 -46.0113 -34.8937 30161.7266 3671.2581)" gradientUnits="userSpaceOnUse">
		<stop  offset="0" style="stop-color:#032AFF;stop-opacity:0"/>
		<stop  offset="1" style="stop-color:#00BBFB;stop-opacity:0.84"/>
	</radialGradient>
	<path id="Oval-6-Copy-8_7_" class="st4" d="M32.5,65C50.4,65,65,50.5,65,32.5c0-1.3,0-1.9-0.1-2.6c-0.1-0.6-0.1-1.3-0.2-1.7
		c-0.9-2.2-1.3,11-8.3,11c-17.8,0-11.3,13.5-24.7,5c-9.3-5.9-8.5,16.2-19.8,5.1S1.6,44,4.3,48.7C9.9,58.5,20.5,65,32.5,65z"/>
</g>
</svg>
