<?xml version="1.0" encoding="utf-8"?>
<!-- Generator: Adobe Illustrator 22.1.0, SVG Export Plug-In . SVG Version: 6.00 Build 0)  -->
<svg version="1.1" id="图层_1" xmlns="http://www.w3.org/2000/svg" xmlns:xlink="http://www.w3.org/1999/xlink" x="0px" y="0px"
	 viewBox="0 0 65 65" style="enable-background:new 0 0 65 65;" xml:space="preserve">
<style type="text/css">
	.st0{fill:url(#Oval-6-Copy-6_1_);}
	.st1{fill:#FFFFFF;}
	.st2{fill:#F95625;}
	.st3{fill:url(#Oval-6-Copy-7_1_);}
	.st4{fill:url(#Oval-6-Copy-8_1_);}
</style>
<g>
	
		<radialGradient id="Oval-6-Copy-6_1_" cx="-265.4492" cy="450.1325" r="0.6373" gradientTransform="matrix(6.000000e-15 101.8666 101.0097 -6.000000e-15 -45451.7461 27034.9668)" gradientUnits="userSpaceOnUse">
		<stop  offset="0" style="stop-color:#F95625"/>
		<stop  offset="0.7634" style="stop-color:#FB4A29"/>
		<stop  offset="1" style="stop-color:#E9005B"/>
	</radialGradient>
	<ellipse id="Oval-6-Copy-6_6_" class="st0" cx="32.5" cy="32.5" rx="32.5" ry="32.5"/>
	<g id="XMLID_93_">
		<path id="XMLID_39_" class="st1" d="M44.7,40.4h-25c-1.3,0-2.3-1-2.3-2.3l0-19.3c0-1.3,1-2.3,2.3-2.3h25c1.3,0,2.3,1,2.3,2.3v19.3
			C47,39.4,46,40.4,44.7,40.4z"/>
		<path id="XMLID_45_" class="st1" d="M42.1,45.8H22.4c-0.3,0-0.5-0.2-0.5-0.5v-1c0-0.3,0.2-0.5,0.5-0.5h19.7c0.3,0,0.5,0.2,0.5,0.5
			v1C42.6,45.5,42.3,45.8,42.1,45.8z"/>
		<path id="XMLID_63_" class="st2" d="M33.4,27.9c0-0.2,0-0.5-0.1-0.7l1-1.4c-0.2-0.7-0.6-1.4-1.1-1.9l-1.7,0.2
			c-0.4-0.3-0.9-0.6-1.3-0.8l-0.7-1.6c-0.4-0.1-0.8-0.1-1.2-0.1c-0.3,0-0.7,0-1,0.1l-0.7,1.6c-0.5,0.2-1,0.4-1.4,0.8l-1.7-0.2
			c-0.5,0.6-0.9,1.2-1.1,1.9l1,1.4c0,0.3-0.1,0.6-0.1,0.9c0,0.2,0,0.5,0.1,0.7l-1,1.4c0.2,0.7,0.6,1.4,1.1,1.9l1.7-0.2
			c0.4,0.3,0.9,0.6,1.3,0.8l0.7,1.6c0.4,0.1,0.8,0.1,1.2,0.1c0.3,0,0.7,0,1-0.1l0.7-1.6c0.5-0.2,1-0.4,1.4-0.8l1.7,0.2
			c0.5-0.6,0.9-1.2,1.1-1.9l-1-1.4C33.4,28.5,33.4,28.2,33.4,27.9L33.4,27.9z M31.5,27.9c0,1.9-1.7,3.4-3.7,3.1
			c-1.3-0.2-2.3-1.3-2.5-2.5c-0.3-2,1.2-3.7,3.1-3.7C30.1,24.8,31.5,26.2,31.5,27.9L31.5,27.9z M31.5,27.9"/>
		<path id="XMLID_54_" class="st2" d="M41.3,31.6c0-0.1,0-0.3,0-0.4l0.6-0.8c-0.1-0.4-0.4-0.8-0.6-1.1l-1,0.1
			c-0.2-0.2-0.5-0.3-0.8-0.5L39.1,28c-0.2,0-0.5-0.1-0.7-0.1c-0.2,0-0.4,0-0.6,0l-0.4,0.9c-0.3,0.1-0.5,0.3-0.8,0.4l-1-0.1
			c-0.3,0.3-0.5,0.7-0.7,1.1l0.6,0.8c0,0.2,0,0.3,0,0.5c0,0.1,0,0.3,0,0.4L35,32.8c0.1,0.4,0.4,0.8,0.6,1.1l1-0.1
			c0.2,0.2,0.5,0.3,0.8,0.5l0.4,0.9c0.2,0,0.5,0.1,0.7,0.1c0.2,0,0.4,0,0.6,0l0.4-0.9c0.3-0.1,0.5-0.3,0.8-0.4l1,0.1
			c0.3-0.3,0.5-0.7,0.7-1.1l-0.6-0.8C41.3,31.9,41.3,31.7,41.3,31.6L41.3,31.6z M40.2,31.6c0,1.1-1,2-2.1,1.8
			c-0.7-0.1-1.3-0.7-1.4-1.4c-0.2-1.1,0.7-2.1,1.8-2.1C39.4,29.8,40.2,30.6,40.2,31.6L40.2,31.6z M40.2,31.6"/>
	</g>
	
		<radialGradient id="Oval-6-Copy-7_1_" cx="-266.118" cy="457.6747" r="0.8336" gradientTransform="matrix(34.3643 -47.4967 -47.0972 -34.6558 30740.5762 3274.248)" gradientUnits="userSpaceOnUse">
		<stop  offset="0" style="stop-color:#BF2A00;stop-opacity:0"/>
		<stop  offset="1" style="stop-color:#FF5A3F;stop-opacity:0.84"/>
	</radialGradient>
	<path id="Oval-6-Copy-7_6_" class="st3" d="M32.5,64.8C50.4,64.8,65,50.3,65,32.4c0-1.3,0-1.9-0.1-2.6c-0.1-0.6-0.1-1.3-0.2-1.7
		c-0.9-2.2-3.4,1.1-14.5,4.3C34.3,37,34,47.3,29.2,50c-9.8,5.6-10.8,0-15.9-4.1c-5.6-4.6-11.8-2-9.1,2.7
		C9.9,58.3,20.5,64.8,32.5,64.8z"/>
	
		<radialGradient id="Oval-6-Copy-8_1_" cx="-270.0275" cy="452.8353" r="0.9127" gradientTransform="matrix(55.721 14.5928 14.4701 -56.1937 8540.3369 29431.1953)" gradientUnits="userSpaceOnUse">
		<stop  offset="0" style="stop-color:#FF8415;stop-opacity:0"/>
		<stop  offset="1" style="stop-color:#FF94A0;stop-opacity:0.84"/>
	</radialGradient>
	<path id="Oval-6-Copy-8_6_" class="st4" d="M32.5,65C50.4,65,65,50.5,65,32.5c0-1.3,0-1.9-0.1-2.6c-0.1-0.6-0.1-1.3-0.2-1.7
		c-0.9-2.2-1.3,11-8.3,11c-17.8,0-11.3,13.5-24.7,5c-9.3-5.9-8.5,16.2-19.8,5.1S1.6,44,4.3,48.7C9.9,58.5,20.5,65,32.5,65z"/>
</g>
</svg>
