<?xml version="1.0" encoding="utf-8"?>
<!-- Generator: Adobe Illustrator 22.1.0, SVG Export Plug-In . SVG Version: 6.00 Build 0)  -->
<svg version="1.1" id="图层_1" xmlns="http://www.w3.org/2000/svg" xmlns:xlink="http://www.w3.org/1999/xlink" x="0px" y="0px"
	 viewBox="0 0 65 65" style="enable-background:new 0 0 65 65;" xml:space="preserve">
<style type="text/css">
	.st0{fill:url(#Oval-6-Copy-3_1_);}
	.st1{fill:#FFFFFF;}
	.st2{fill:url(#Oval-6-Copy-4_1_);}
	.st3{fill:url(#Oval-6-Copy-5_1_);}
</style>
<g>
	
		<radialGradient id="Oval-6-Copy-3_1_" cx="-271.1019" cy="455.1221" r="0.6373" gradientTransform="matrix(6.000000e-15 101.8666 101.0097 -6.000000e-15 -45955.7461 27610.8359)" gradientUnits="userSpaceOnUse">
		<stop  offset="0" style="stop-color:#00DD8E"/>
		<stop  offset="0.7634" style="stop-color:#00B46B"/>
		<stop  offset="1" style="stop-color:#00BF47"/>
	</radialGradient>
	<ellipse id="Oval-6-Copy-3_3_" class="st0" cx="32.5" cy="32.5" rx="32.5" ry="32.5"/>
	<g id="XMLID_168_">
		<path id="XMLID_172_" class="st1" d="M47.4,37.4c-0.9,0-1.7-0.5-2.1-1.3c-0.4-0.8-0.4-1.7,0-2.5c-1-1-2.2-1.7-3.5-2
			c-0.5,0.8-1.3,1.2-2.2,1.2c-0.9,0-1.7-0.5-2.2-1.2c-1.3,0.4-2.5,1.1-3.5,2c0.4,0.8,0.4,1.8-0.1,2.5c-0.5,0.8-1.3,1.2-2.2,1.2
			c-0.3,1.3-0.3,2.7,0,4.1c0.9,0,1.7,0.5,2.1,1.3c0.4,0.8,0.5,1.7,0,2.5c1,1,2.2,1.7,3.5,2c0.5-0.8,1.3-1.2,2.2-1.2
			c0.9,0,1.7,0.5,2.2,1.2c1.3-0.4,2.5-1.1,3.5-2c-0.4-0.8-0.4-1.7,0-2.5c0.4-0.8,1.3-1.3,2.1-1.3c0.3-1.3,0.3-2.7,0-4.1H47.4z
			 M39.5,42.7c-1.3,0-2.5-0.8-3-2c-0.5-1.2-0.2-2.6,0.7-3.6c0.9-0.9,2.3-1.2,3.6-0.7c1.2,0.5,2,1.7,2,3c0,0.9-0.3,1.7-0.9,2.3
			C41.2,42.4,40.4,42.7,39.5,42.7L39.5,42.7z M47.1,17.7H32.5c-0.4,0-0.7,0.2-1,0.4c-0.3,0.3-0.4,0.6-0.4,1c0,0.3,0,0.4,0.1,0.5
			l0.4,1.2c0.2,0.5,0.7,0.8,1.2,0.8H47c0.8,0,1.5-0.7,1.5-1.5v-1c0-0.4-0.1-0.8-0.3-1C47.9,17.8,47.5,17.7,47.1,17.7L47.1,17.7z
			 M47.1,17.7"/>
		<path id="XMLID_169_" class="st1" d="M39.2,28.4c3.9,0,7.5,2.1,9.4,5.5v-9.3c0-0.4-0.1-0.8-0.4-1.1c-0.3-0.3-0.7-0.5-1.1-0.5H32.5
			c-0.6,0-1.2-0.4-1.3-0.9l-0.4-0.8l-1.1-2.5c0,0,0-0.1-0.1-0.1c-0.2-0.5-0.7-0.8-1.2-0.8H17.9c-0.8,0-1.5,0.7-1.5,1.5v22.5
			c0,0.4,0.1,0.8,0.4,1.1c0.3,0.3,0.7,0.5,1.1,0.5h11.4c-0.5-1.3-0.8-2.6-0.8-4c0-2.9,1.1-5.6,3.1-7.7
			C33.6,29.6,36.3,28.4,39.2,28.4L39.2,28.4z M39.2,28.4"/>
	</g>
	
		<radialGradient id="Oval-6-Copy-4_1_" cx="-264.1961" cy="464.341" r="1.151" gradientTransform="matrix(56.3191 15.2012 15.0733 -56.7969 7920.5728 30442.2871)" gradientUnits="userSpaceOnUse">
		<stop  offset="0" style="stop-color:#00941A;stop-opacity:0"/>
		<stop  offset="1" style="stop-color:#00BF61;stop-opacity:0.84"/>
	</radialGradient>
	<path id="Oval-6-Copy-4_3_" class="st2" d="M32.5,65C50.4,65,65,50.5,65,32.5c0-1.3,0-1.9-0.1-2.6c-0.1-0.6-0.1-1.3-0.2-1.7
		c-0.9-2.2-3.4,1.1-14.5,4.3c-15.9,4.6-16.2,14.9-21,17.6c-9.8,5.6-10.8,0-15.9-4.1c-5.6-4.6-11.8-2-9.1,2.7
		C9.9,58.5,20.5,65,32.5,65z"/>
	
		<radialGradient id="Oval-6-Copy-5_1_" cx="-253.0339" cy="456.9318" r="0.6495" gradientTransform="matrix(34.6002 -46.4016 -46.0113 -34.8937 29825.7266 4247.1245)" gradientUnits="userSpaceOnUse">
		<stop  offset="0" style="stop-color:#00F142;stop-opacity:0"/>
		<stop  offset="0.9859" style="stop-color:#00E9B5;stop-opacity:0.84"/>
	</radialGradient>
	<path id="Oval-6-Copy-5_3_" class="st3" d="M32.5,65C50.4,65,65,50.5,65,32.5c0-1.3,0-1.9-0.1-2.6c-0.1-0.6-0.1-1.3-0.2-1.7
		c-0.9-2.2-1.3,11-8.3,11c-17.8,0-11.3,13.5-24.7,5c-9.3-5.9-8.5,16.2-19.8,5.1S1.6,44,4.3,48.7C9.9,58.5,20.5,65,32.5,65z"/>
</g>
</svg>
