<?xml version="1.0" encoding="utf-8"?>
<!-- Generator: Adobe Illustrator 22.1.0, SVG Export Plug-In . SVG Version: 6.00 Build 0)  -->
<svg version="1.1" id="图层_1" xmlns="http://www.w3.org/2000/svg" xmlns:xlink="http://www.w3.org/1999/xlink" x="0px" y="0px"
	 viewBox="0 0 65 65" style="enable-background:new 0 0 65 65;" xml:space="preserve">
<style type="text/css">
	.st0{fill:url(#Oval-6-Copy-6_1_);}
	.st1{fill:#FFFFFF;}
	.st2{fill:url(#Oval-6-Copy-7_1_);}
	.st3{fill:url(#Oval-6-Copy-8_1_);}
</style>
<g>
	
		<radialGradient id="Oval-6-Copy-6_1_" cx="-265.4492" cy="451.7957" r="0.6373" gradientTransform="matrix(6.000000e-15 101.8666 101.0097 -6.000000e-15 -45619.7461 27034.9688)" gradientUnits="userSpaceOnUse">
		<stop  offset="0" style="stop-color:#0776FF"/>
		<stop  offset="0.7634" style="stop-color:#0089FB"/>
		<stop  offset="1" style="stop-color:#3F81FF"/>
	</radialGradient>
	<ellipse id="Oval-6-Copy-6_36_" class="st0" cx="32.5" cy="32.5" rx="32.5" ry="32.5"/>
	<path class="st1" d="M43.8,16.9H21.2c-1.1,0-1.9,0.9-1.9,1.9v26.6c0,1.1,0.9,1.9,1.9,1.9h22.6c1.1,0,1.9-0.9,1.9-1.9V18.8
		C45.7,17.7,44.9,16.9,43.8,16.9z M27.1,22.5h14.8c0.5,0,0.9,0.4,0.9,0.9s-0.4,0.9-0.9,0.9H27.1c-0.5,0-0.9-0.4-0.9-0.9
		S26.6,22.5,27.1,22.5z M26.2,30c0-0.5,0.4-0.9,0.9-0.9h14.8c0.5,0,0.9,0.4,0.9,0.9v0c0,0.5-0.4,0.9-0.9,0.9H27.1
		C26.6,30.9,26.2,30.5,26.2,30L26.2,30z M41.4,36.2c0,0.8-0.7,1.5-1.5,1.5c-0.8,0-1.5-0.7-1.5-1.5s0.7-1.5,1.5-1.5
		C40.7,34.7,41.4,35.4,41.4,36.2z M23.5,37.5c-0.5,0-0.9-0.4-0.9-0.9c0-0.5,0.4-0.9,0.9-0.9c0.5,0,0.9,0.4,0.9,0.9
		C24.4,37.1,24,37.5,23.5,37.5z M23.5,30.9c-0.5,0-0.9-0.4-0.9-0.9c0-0.5,0.4-0.9,0.9-0.9c0.5,0,0.9,0.4,0.9,0.9
		C24.4,30.5,24,30.9,23.5,30.9z M23.5,24.2c-0.5,0-0.9-0.4-0.9-0.9c0-0.5,0.4-0.9,0.9-0.9c0.5,0,0.9,0.4,0.9,0.9
		C24.4,23.8,24,24.2,23.5,24.2z M35,36.6c0,0.5-0.4,0.9-0.9,0.9h-7c-0.5,0-0.9-0.4-0.9-0.9v0c0-0.5,0.4-0.9,0.9-0.9h7
		C34.6,35.8,35,36.1,35,36.6L35,36.6z M41.7,42.9h-3.6c-0.9,0-1.7-0.8-1.7-1.7c0-1.5,1.2-2.6,2.6-2.6h1.7c1.5,0,2.6,1.2,2.6,2.6
		C43.4,42.1,42.6,42.9,41.7,42.9z"/>
	
		<radialGradient id="Oval-6-Copy-7_1_" cx="-264.4196" cy="455.3469" r="0.8336" gradientTransform="matrix(34.3643 -47.4967 -47.0972 -34.6558 30572.5762 3274.2495)" gradientUnits="userSpaceOnUse">
		<stop  offset="0" style="stop-color:#94ADFF;stop-opacity:0"/>
		<stop  offset="1" style="stop-color:#002DFF;stop-opacity:0.84"/>
	</radialGradient>
	<path id="Oval-6-Copy-7_36_" class="st2" d="M32.5,64.8C50.4,64.8,65,50.3,65,32.4c0-1.3,0-1.9-0.1-2.6c-0.1-0.6-0.1-1.3-0.2-1.7
		c-0.9-2.2-3.4,1.1-14.5,4.3C34.3,37,34,47.3,29.2,50c-9.8,5.6-10.8,0-15.9-4.1c-5.6-4.6-11.8-2-9.1,2.7
		C9.9,58.3,20.5,64.8,32.5,64.8z"/>
	
		<radialGradient id="Oval-6-Copy-8_1_" cx="-264.4692" cy="455.635" r="0.6495" gradientTransform="matrix(34.6002 -46.4016 -46.0113 -34.8937 30161.7266 3671.2581)" gradientUnits="userSpaceOnUse">
		<stop  offset="0" style="stop-color:#032AFF;stop-opacity:0"/>
		<stop  offset="1" style="stop-color:#00BBFB;stop-opacity:0.84"/>
	</radialGradient>
	<path id="Oval-6-Copy-8_36_" class="st3" d="M32.5,65C50.4,65,65,50.5,65,32.5c0-1.3,0-1.9-0.1-2.6c-0.1-0.6-0.1-1.3-0.2-1.7
		c-0.9-2.2-1.3,11-8.3,11c-17.8,0-11.3,13.5-24.7,5c-9.3-5.9-8.5,16.2-19.8,5.1S1.6,44,4.3,48.7C9.9,58.5,20.5,65,32.5,65z"/>
</g>
</svg>
