<?xml version="1.0" encoding="utf-8"?>
<!-- Generator: Adobe Illustrator 22.1.0, SVG Export Plug-In . SVG Version: 6.00 Build 0)  -->
<svg version="1.1" id="图层_1" xmlns="http://www.w3.org/2000/svg" xmlns:xlink="http://www.w3.org/1999/xlink" x="0px" y="0px"
	 viewBox="0 0 65 65" style="enable-background:new 0 0 65 65;" xml:space="preserve">
<style type="text/css">
	.st0{fill:url(#Oval-6-Copy-6_1_);}
	.st1{fill-rule:evenodd;clip-rule:evenodd;fill:#FFFFFF;}
	.st2{fill:url(#Oval-6-Copy-7_1_);}
	.st3{fill:url(#Oval-6-Copy-8_1_);}
</style>
<g>
	
		<radialGradient id="Oval-6-Copy-6_1_" cx="-265.4492" cy="451.7957" r="0.6373" gradientTransform="matrix(6.000000e-15 101.8666 101.0097 -6.000000e-15 -45619.7461 27034.9688)" gradientUnits="userSpaceOnUse">
		<stop  offset="0" style="stop-color:#0776FF"/>
		<stop  offset="0.7634" style="stop-color:#0089FB"/>
		<stop  offset="1" style="stop-color:#3F81FF"/>
	</radialGradient>
	<ellipse id="Oval-6-Copy-6_15_" class="st0" cx="32.5" cy="32.5" rx="32.5" ry="32.5"/>
	<path id="XMLID_110_" class="st1" d="M36,37c0-1.4,1.2-2.6,2.6-2.6h7.9V19.7c0-1.5-1.2-2.6-2.6-2.6H21.1c-1.4,0-2.6,1.2-2.6,2.6
		v24.7c0,1.5,1.2,2.6,2.6,2.6H36C36,43.5,36,38.5,36,37 M23.8,22.3h16.6c0.5,0,0.9,0.4,0.9,0.9c0,0.5-0.4,0.9-0.9,0.9H23.8
		c-0.5,0-0.9-0.4-0.9-0.9C22.9,22.7,23.3,22.3,23.8,22.3 M23.8,30.3h16.6c0.5,0,0.9,0.4,0.9,0.9c0,0.5-0.4,0.9-0.9,0.9H23.8
		c-0.5,0-0.9-0.4-0.9-0.9C22.9,30.7,23.3,30.3,23.8,30.3 M30.8,39.1h-7c-0.5,0-0.9-0.4-0.9-0.9c0-0.5,0.4-0.9,0.9-0.9h7
		c0.5,0,0.9,0.4,0.9,0.9C31.6,38.7,31.2,39.1,30.8,39.1 M37.7,37c0,1.5,0,6,0,9.5l8.5-10.4h-7.7C38.1,36.1,37.7,36.5,37.7,37"/>
	
		<radialGradient id="Oval-6-Copy-7_1_" cx="-264.4196" cy="455.3469" r="0.8336" gradientTransform="matrix(34.3643 -47.4967 -47.0972 -34.6558 30572.5762 3274.2495)" gradientUnits="userSpaceOnUse">
		<stop  offset="0" style="stop-color:#94ADFF;stop-opacity:0"/>
		<stop  offset="1" style="stop-color:#002DFF;stop-opacity:0.84"/>
	</radialGradient>
	<path id="Oval-6-Copy-7_16_" class="st2" d="M32.5,64.8C50.4,64.8,65,50.3,65,32.4c0-1.3,0-1.9-0.1-2.6c-0.1-0.6-0.1-1.3-0.2-1.7
		c-0.9-2.2-3.4,1.1-14.5,4.3C34.3,37,34,47.3,29.2,50c-9.8,5.6-10.8,0-15.9-4.1c-5.6-4.6-11.8-2-9.1,2.7
		C9.9,58.3,20.5,64.8,32.5,64.8z"/>
	
		<radialGradient id="Oval-6-Copy-8_1_" cx="-264.4692" cy="455.635" r="0.6495" gradientTransform="matrix(34.6002 -46.4016 -46.0113 -34.8937 30161.7266 3671.2581)" gradientUnits="userSpaceOnUse">
		<stop  offset="0" style="stop-color:#032AFF;stop-opacity:0"/>
		<stop  offset="1" style="stop-color:#00BBFB;stop-opacity:0.84"/>
	</radialGradient>
	<path id="Oval-6-Copy-8_16_" class="st3" d="M32.5,65C50.4,65,65,50.5,65,32.5c0-1.3,0-1.9-0.1-2.6c-0.1-0.6-0.1-1.3-0.2-1.7
		c-0.9-2.2-1.3,11-8.3,11c-17.8,0-11.3,13.5-24.7,5c-9.3-5.9-8.5,16.2-19.8,5.1S1.6,44,4.3,48.7C9.9,58.5,20.5,65,32.5,65z"/>
</g>
</svg>
