<?xml version="1.0" encoding="utf-8"?>
<!-- Generator: Adobe Illustrator 22.1.0, SVG Export Plug-In . SVG Version: 6.00 Build 0)  -->
<svg version="1.1" id="图层_1" xmlns="http://www.w3.org/2000/svg" xmlns:xlink="http://www.w3.org/1999/xlink" x="0px" y="0px"
	 viewBox="0 0 65 65" style="enable-background:new 0 0 65 65;" xml:space="preserve">
<style type="text/css">
	.st0{fill:url(#Oval-6-Copy-6_1_);}
	.st1{fill-rule:evenodd;clip-rule:evenodd;fill:#FFFFFF;}
	.st2{fill:url(#Oval-6-Copy-7_1_);}
	.st3{fill:url(#Oval-6-Copy-8_1_);}
</style>
<g>
	
		<radialGradient id="Oval-6-Copy-6_1_" cx="-267.4403" cy="454.5795" r="1" gradientTransform="matrix(4.000000e-15 64.915 64.3689 -4.000000e-15 -29244.793 17355.4473)" gradientUnits="userSpaceOnUse">
		<stop  offset="0" style="stop-color:#823FFF"/>
		<stop  offset="0.7634" style="stop-color:#586BE6"/>
		<stop  offset="1" style="stop-color:#3F71FF"/>
	</radialGradient>
	<ellipse id="Oval-6-Copy-6_16_" class="st0" cx="32.5" cy="32.5" rx="32.5" ry="32.5"/>
	<path id="XMLID_145_" class="st1" d="M42.6,35.1c-3.4,0-6.2,2.8-6.2,6.2c0,3.4,2.8,6.2,6.2,6.2s6.2-2.8,6.2-6.2
		C48.7,37.9,46,35.1,42.6,35.1 M42.8,33.3c0.9,0,1.9,0.2,2.8,0.4V19.9c0-1.6-1.3-3-3-3H20.1c-1.4,0-2.5,1.1-2.5,2.5v24.1
		c0,1.6,1.3,2.8,2.8,2.8h7.2H37c-1.4-0.9-2.2-3.2-2.2-5.4C34.8,36.7,38.5,33.3,42.8,33.3 M23.3,24.9h15.1c0.5,0,0.9,0.4,0.9,0.9
		c0,0.5-0.4,0.9-0.9,0.9H23.3c-0.5,0-0.9-0.4-0.9-0.9C22.4,25.2,22.8,24.9,23.3,24.9 M23.1,30h12.6c0.4,0,0.8,0.4,0.8,0.9
		c0,0.5-0.3,0.9-0.8,0.9H23.1c-0.4,0-0.8-0.4-0.8-0.9C22.4,30.4,22.7,30,23.1,30 M32,36.8h-8.8c-0.5,0-0.9-0.4-0.9-0.9
		c0-0.5,0.4-0.9,0.9-0.9H32c0.5,0,0.9,0.4,0.9,0.9C32.9,36.4,32.5,36.8,32,36.8z M46.7,40.6l-1.6,1.5C45,42.2,45,42.3,45,42.5
		l0.4,2.2c0.1,0.3-0.3,0.6-0.6,0.4l-2-1c-0.1-0.1-0.3-0.1-0.4,0l-2,1c-0.3,0.2-0.6-0.1-0.6-0.4l0.4-2.2c0-0.1,0-0.3-0.1-0.3
		l-1.6-1.5c-0.2-0.2-0.1-0.6,0.2-0.7l2.2-0.3c0.1,0,0.2-0.1,0.3-0.2l1-2c0.1-0.3,0.6-0.3,0.7,0l1,2c0.1,0.1,0.2,0.2,0.3,0.2l2.2,0.3
		C46.8,40,46.9,40.4,46.7,40.6z"/>
	
		<radialGradient id="Oval-6-Copy-7_1_" cx="-263.0881" cy="457.4879" r="1.8062" gradientTransform="matrix(35.8896 9.687 9.6055 -36.1941 5088.1548 19159.8047)" gradientUnits="userSpaceOnUse">
		<stop  offset="0" style="stop-color:#2D00BA;stop-opacity:0"/>
		<stop  offset="1" style="stop-color:#9F94FF;stop-opacity:0.84"/>
	</radialGradient>
	<path id="Oval-6-Copy-7_18_" class="st2" d="M32.5,64.8C50.4,64.8,65,50.3,65,32.4c0-1.3,0-1.9-0.1-2.6c-0.1-0.6-0.1-1.3-0.2-1.7
		c-0.9-2.2-3.4,1.1-14.5,4.3C34.3,37,34,47.3,29.2,50c-9.8,5.6-10.8,0-15.9-4.1c-5.6-4.6-11.8-2-9.1,2.7
		C9.9,58.3,20.5,64.8,32.5,64.8z"/>
	
		<radialGradient id="Oval-6-Copy-8_1_" cx="-258.9484" cy="453.2956" r="1.0192" gradientTransform="matrix(22.0491 -29.5696 -29.3209 -22.2362 19047.3223 2466.8083)" gradientUnits="userSpaceOnUse">
		<stop  offset="0" style="stop-color:#B794FF;stop-opacity:0"/>
		<stop  offset="1" style="stop-color:#9E6AFF;stop-opacity:0.84"/>
	</radialGradient>
	<path id="Oval-6-Copy-8_18_" class="st3" d="M32.5,65C50.4,65,65,50.5,65,32.5c0-1.3,0-1.9-0.1-2.6c-0.1-0.6-0.1-1.3-0.2-1.7
		c-0.9-2.2-1.3,11-8.3,11c-17.8,0-11.3,13.5-24.7,5c-9.3-5.9-8.5,16.2-19.8,5.1S1.6,44,4.3,48.7C9.9,58.5,20.5,65,32.5,65z"/>
</g>
</svg>
