<?xml version="1.0" standalone="no"?>
<!DOCTYPE svg PUBLIC "-//W3C//DTD SVG 1.1//EN" "http://www.w3.org/Graphics/SVG/1.1/DTD/svg11.dtd" >
<!--
2013-9-30: Created.
-->
<svg>
<metadata>
Created by iconfont
</metadata>
<defs>

<font id="iconfont" horiz-adv-x="1024" >
  <font-face
    font-family="iconfont"
    font-weight="500"
    font-stretch="normal"
    units-per-em="1024"
    ascent="896"
    descent="-128"
  />
    <missing-glyph />
    
    <glyph glyph-name="quancha" unicode="&#58924;" d="M512 896C230.4 896 0 665.6 0 384s230.4-512 512-512c281.6 0 512 230.4 512 512S793.6 896 512 896zM512-42.666334C273.066334-42.666334 85.333666 145.066334 85.333666 384S273.066334 810.666334 512 810.666334 938.666334 622.933666 938.666334 384 750.933666-42.666334 512-42.666334zM725.333666 597.333666c-17.066334 17.066334-42.667333 17.066334-59.733666 0L512 443.733666l-153.6 153.6c-17.066334 17.066334-42.666334 17.066334-59.732667 0-17.066334-17.066334-17.066334-42.666334 0-59.732667L452.266334 384l-153.6-153.6c-17.066334-17.066334-17.066334-42.667333 0-59.733666 17.066334-17.066334 42.666334-17.066334 59.732667 0L512 324.267333l153.6-153.600999c17.066334-17.066334 42.667333-17.066334 59.733666 0s17.066334 42.667333 0 59.733666L571.732667 384l153.600999 153.6C742.4 554.666334 742.4 580.266334 725.333666 597.333666z"  horiz-adv-x="1024" />

    
    <glyph glyph-name="jinggao1" unicode="&#58949;" d="M518.4 217.6c-19.2 0-32 12.8-32 32L486.4 512c0 19.2 12.8 32 32 32S550.4 531.2 550.4 512l0-262.4C550.4 236.8 537.6 217.6 518.4 217.6zM518.4 121.6m-44.8 0a0.7 0.7 0 1 0 89.6 0 0.7 0.7 0 1 0-89.6 0ZM992-64C992-64 992-64 992-64l-960 0c-12.8 0-19.2 6.4-25.6 19.2-6.4 12.8-6.4 19.2 0 32l480 832c12.8 19.2 44.8 19.2 57.6 0l480-825.6c6.4-6.4 6.4-12.8 6.4-19.2C1024-51.2 1011.2-64 992-64zM89.6 0l851.2 0L512 736 89.6 0z"  horiz-adv-x="1031" />

    
    <glyph glyph-name="yinhang" unicode="&#58955;" d="M446.368 249.12v-39.136h133.12v39.136h-34.72v133.504h34.72v39.136h-133.12v-39.136h32.896v-133.504h-32.896zM278.496 249.12v-39.136h133.12v39.136h-34.688v133.504h34.688v39.136h-133.12v-39.136h32.896v-133.504h-32.896zM746.272 192.256h-468.64v-34.368l-22.016 0v-33.44h520v33.44h-29.344l0 34.368zM800.992 456l-289.024 188.096-289.088-188.096h32.736v0.288h67.104v-1.376h385.824v1.376h67.104v-0.288h25.344zM512.128 475.616c-26.304 0-47.552 21.888-47.552 48.864s21.248 48.896 47.552 48.896c26.24 0 47.488-21.92 47.488-48.896s-21.248-48.864-47.488-48.864zM614.272 249.12v-39.136h133.12v39.136h-34.72v133.504h34.72v39.136h-133.12v-39.136h32.832v-133.504h-32.832z"  horiz-adv-x="1024" />

    
    <glyph glyph-name="warning" unicode="&#59041;" d="M104.051309 31.009503999999993l814.186414 0-407.067112 703.113689L104.051309 31.009503999999993zM548.143687 142.034133l-73.998341 0 0 73.998341 73.998341 0L548.143687 142.034133zM548.143687 290.02672199999995l-73.998341 0 0 148.049894 73.998341 0L548.143687 290.02672199999995z"  horiz-adv-x="1024" />

    
    <glyph glyph-name="rili1" unicode="&#58898;" d="M358.164844 604.021066c-14.400988 0-26.184359 11.783371-26.184359 26.184359V787.313625c0 14.400988 11.783371 26.184359 26.184359 26.184359s26.184359-11.783371 26.184359-26.184359v-157.1082c0-14.400988-11.783371-26.184359-26.184359-26.184359zM665.834132 604.021066c-14.400988 0-26.184359 11.783371-26.184359 26.184359V787.313625c0 14.400988 11.783371 26.184359 26.184359 26.184359s26.184359-11.783371 26.184359-26.184359v-157.1082c0-14.400988-11.783371-26.184359-26.184359-26.184359zM93.045651 527.177933h837.907675v-52.368718H93.045651zM331.980485 339.591581h52.368718v-52.368718h-52.368718zM331.980485 187.939649h52.368718v-52.368718h-52.368718zM639.649773 339.591581h52.368718v-52.368718h-52.368718zM639.649773 187.939649h52.368718v-52.368718h-52.368718zM436.616614 740.014366h150.305261v-52.368718H436.616614zM826.214866-45.497984H197.78411c-72.187089 0-130.922818 58.71117-130.922818 130.922818v523.666714c0 72.187089 58.736752 130.922818 130.922818 130.922818h81.852217v-52.368718h-81.852217c-43.317575 0-78.5541-35.236526-78.5541-78.5541v-523.666714c0-43.317575 35.236526-78.5541 78.5541-78.5541h628.430756c43.317575 0 78.5541 35.236526 78.554101 78.5541v523.666714c0 43.317575-35.236526 78.5541-78.554101 78.5541h-81.980129V740.014366h81.980129c72.212672 0 130.922818-58.736752 130.922819-130.922818v-523.666714c0-72.211649-58.71117-130.922818-130.922819-130.922818z"  horiz-adv-x="1024" />

    
    <glyph glyph-name="icon-fujian" unicode="&#58925;" d="M707.819362 723.5156c-32.736589 0-63.97608-5.989411-93.718474-17.767665-30.840402-12.277628-58.586326-30.344099-82.340334-53.80237L299.311435 422.164205c-26.847461-26.551726-41.519626-61.986773-41.419342-99.818403 0.100284-37.731346 14.97097-73.166393 41.918715-99.818404 26.947745-26.650987 62.678528-41.324174 100.804871-41.424458 38.325887 0 73.956386 14.573927 100.704586 40.925085l204.004277 201.632253c6.786567 6.687306 10.479679 15.57165 10.479679 24.954345 0 9.482979-3.693112 18.3663-10.479679 24.954345-6.687306 6.687306-15.669888 10.281157-25.151843 10.281158s-18.464537-3.693112-25.151843-10.281158l-204.004277-201.632253c-13.274328-13.176091-31.139208-20.36277-50.202379-20.36277-19.361977 0.100284-37.427424 7.486508-50.801013 20.761859-13.473873 13.375635-20.959358 31.143301-20.959357 50.108235-0.100284 18.865673 7.185656 36.533055 20.560268 49.709145l232.449119 229.880621c33.135678 32.839943 77.649498 50.907437 125.157511 50.907437 48.205908-0.099261 93.019557-18.46556 126.654609-51.605332 33.534767-33.240055 52.098565-77.459163 52.198849-124.573203 0.100284-47.114041-18.164708-91.233887-51.399647-124.07383L588.051605 108.636488c-49.303916-48.511877-115.176183-75.263148-185.440479-75.263147-71.26202 0.199545-137.533376 27.349905-187.237405 76.460416-49.704029 49.110511-77.150124 114.590851-77.250409 184.363961-0.199545 69.77311 26.947745 135.053905 76.251662 183.765327L532.759301 792.788314c6.786567 6.687306 10.479679 15.57165 10.479679 24.954344 0 9.482979-3.693112 18.3663-10.479679 24.954345-6.786567 6.687306-15.769149 10.381441-25.251104 10.381442-9.481955 0-18.464537-3.693112-25.150819-10.281158L163.974074 527.871735c-31.738865-31.342846-56.291051-68.175729-73.057923-109.300358-16.068977-39.727817-24.153096-81.650625-24.053836-124.573204 0.100284-43.021839 8.383948-84.944648 24.751731-124.573203 16.867156-41.12463 41.519626-77.957513 73.458035-109.499903 31.738865-31.44313 69.066005-55.898101 110.685915-72.66702 39.922245-16.071024 82.340333-24.255427 125.95569-24.454971 44.213991 0 86.23299 7.985882 125.95569 23.856337 41.519626 16.470113 78.747505 40.72554 110.48637 72.16867l246.621911 243.955174c23.653723 23.457248 42.018999 50.807153 54.394864 81.45108 11.976776 29.646204 18.064424 60.789505 17.965164 92.830245-0.298805 65.87943-26.248827 127.766942-73.158207 174.182065-47.010687 46.415123-109.48967 72.16867-176.160116 72.268953z"  horiz-adv-x="1024" />

    
    <glyph glyph-name="icon-shangchuan" unicode="&#58926;" d="M532.864702 381.391593l102.590539-113.023147c4.057409-4.057409 6.085602-8.839319 6.085602-14.345729s-2.028193-10.577916-6.085602-15.214517l-6.955412-4.347005c-3.477194-4.057409-7.969509-5.65172-13.475919-4.78191-5.506411 0.868787-10.288321 3.332908-14.344706 7.390318l-60.85909 67.814502v-279.94997c0-8.114818-2.752694-14.779611-8.259104-19.996427-5.506411-5.216815-12.026918-7.824199-19.561522-7.824199-8.114818 0-14.779611 2.608407-19.996426 7.824199-5.216815 5.216815-7.825222 11.881608-7.825223 19.996427V304.884105l-59.119469-66.074882c-4.057409-4.057409-8.839319-6.520507-14.344706-7.390317-5.506411-0.86981-10.288321 0.724501-14.345729 4.78191l-6.955413 4.347005c-4.057409 4.6366-6.085602 9.708106-6.085602 15.214516s2.028193 10.288321 6.085602 14.34573l100.851943 111.284549v0.86981l6.955412 6.955412c1.738597 2.318812 3.9121 3.9121 6.520507 4.78191 2.608407 0.868787 5.071506 1.303692 7.390317 1.303692 2.898003 0 5.506411-0.434905 7.825223-1.303692 2.318812-0.86981 4.6366-2.463098 6.955412-4.78191l6.955412-6.955412v-0.870833zM730.221582 603.091904c31.298843-3.477194 60.71378-12.171204 88.24481-26.082029 27.53103-13.910824 51.584865-31.733749 72.161506-53.468772 20.575618-21.735024 36.805254-46.657646 48.686863-74.768891 11.881608-28.111245 17.822924-58.105373 17.822924-89.98443 0-30.139437-4.6366-60.278875-13.910825-90.418313-9.273201-30.139437-22.74912-57.236586-40.427758-81.290421-17.677615-24.053835-39.703257-43.904952-66.074881-59.554374-26.371624-15.649422-56.945967-24.053835-91.723028-25.213241h-63.466474c-7.534604 0-14.055111 2.752694-19.561521 8.259104s-8.259104 12.026918-8.259104 19.561521c0 7.534604 2.752694 14.055111 8.259104 19.561522s12.026918 8.259104 19.561521 8.259104h63.466474c23.76424 0 45.353954 6.085602 64.771189 18.257829s36.080753 27.820626 49.991578 46.948265c13.910824 19.126616 24.633027 40.572044 32.16763 64.336284 7.535627 23.76424 11.302417 47.527456 11.302417 71.291697 0 26.082028-5.216815 50.570769-15.649421 73.465198-10.432607 22.89443-24.633027 42.890856-42.601261 59.989279-17.968234 17.098423-38.543851 30.718629-61.727876 40.862664-23.184025 10.143011-47.817052 15.214517-73.900104 15.214516l-19.996426 0.868787-6.085602 19.126616c-14.490016 46.369074-37.81935 82.448804-69.988004 108.241237-32.168654 25.792433-75.782987 38.689161-130.846071 38.68916-34.776038 0-66.074881-5.941316-93.89653-17.822924-27.821649-11.881608-51.730175-28.40084-71.726601-49.556672-19.996426-21.155832-35.356252-46.36805-46.078455-75.638701C260.015454 542.957315 254.653329 511.514185 254.653329 477.89653h0.86981l1.738598-26.082028-25.213242-4.347005c-30.719652-5.216815-56.80168-21.735024-78.247108-49.556673s-32.168654-59.119469-32.168654-93.89653c0-39.413662 13.186324-73.609485 39.557948-102.590539 26.372647-28.980032 57.526181-43.470047 93.461625-43.470048h79.985705c8.114818 0 14.779611-2.752694 19.996427-8.259104 5.216815-5.506411 7.825222-12.026918 7.825222-19.561521 0-7.534604-2.608407-14.055111-7.825222-19.561522-5.216815-5.506411-11.881608-8.259104-19.996427-8.259104H254.653329c-25.502837 0-49.556673 5.361101-72.161506 16.084327-22.604834 10.723226-42.455951 25.357528-59.554375 43.904952-17.098423 18.547425-30.718629 39.992853-40.862663 64.336284-10.143011 24.343431-15.214517 50.135864-15.214516 77.377299 0 44.629453 12.461823 84.911902 37.384445 120.848368 24.923646 35.935444 56.80168 59.989279 95.635127 72.161507 2.318812 38.833447 10.867512 74.9142 25.647124 108.241236s34.486442 62.308091 59.119469 86.941118c24.63405 24.633027 53.613058 43.904952 86.941118 57.815777 33.327036 13.910824 70.2776 20.866237 110.849644 20.866237 31.298843 0 59.989279-3.9121 86.071307-11.737322 26.082028-7.824199 49.556673-18.98233 70.421886-33.472346 20.866237-14.490016 38.833447-32.16763 53.903678-53.033867 15.072277-20.86726 27.5341-44.051285 37.387515-69.554122z"  horiz-adv-x="1024" />

    
    <glyph glyph-name="icon-canzhao" unicode="&#58947;" d="M104 384a72 72 0 1 1 144 0 72 72 0 1 1-144 0z m288 240h480c26.5 0 48 21.5 48 48s-21.5 48-48 48H392c-26.5 0-48-21.5-48-48s21.5-48 48-48zM104 96a72 72 0 1 1 144 0 72 72 0 1 1-144 0z m0 576a72 72 0 1 1 144 0 72 72 0 1 1-144 0z m768-240H392c-26.5 0-48-21.5-48-48s21.5-48 48-48h480c26.5 0 48 21.5 48 48s-21.5 48-48 48z m0-288H392c-26.5 0-48-21.5-48-48s21.5-48 48-48h480c26.5 0 48 21.5 48 48s-21.5 48-48 48z"  horiz-adv-x="1024" />

    
    <glyph glyph-name="shanchu2" unicode="&#58944;" d="M512 768a384 384 0 1 1 0-768A384 384 0 1 1 512 768z m233.344-617.344A328.32 328.32 0 0 0 512 54.016a328.128 328.128 0 0 0-233.344 96.64A328.32 328.32 0 0 0 182.016 384a328.128 328.128 0 0 0 96.64 233.344A328.32 328.32 0 0 0 512 713.984a328.128 328.128 0 0 0 233.344-96.64A328.32 328.32 0 0 0 841.984 384a328.128 328.128 0 0 0-96.64-233.344z m-19.968 206.336H298.624a27.008 27.008 0 1 0 0 54.016h426.752a27.008 27.008 0 1 0 0-54.016z"  horiz-adv-x="1024" />

    
    <glyph glyph-name="weidu" unicode="&#58986;" d="M168.64 77.44h674.816a32 32 0 0 0 0-64H104.64V704a32 32 0 1 0 64 0v-626.56zM794.24 608H384a32 32 0 0 0 0 64h474.24v-521.344a32 32 0 0 0-64 0V608z m-136.768-391.168V480H448a32 32 0 0 0 0 64h273.472v-327.168a32 32 0 1 0-64 0z m-128 19.584V352H448a32 32 0 0 0 0 64h145.472v-179.584a32 32 0 1 0-64 0z"  horiz-adv-x="1024" />

    
    <glyph glyph-name="xiaoji" unicode="&#58988;" d="M248.242424 740.848485h496.484849c68.266667 0 124.121212-55.854545 124.121212-124.121212v-496.484849c0-68.266667-55.854545-124.121212-124.121212-124.121212H248.242424c-68.266667 0-124.121212 55.854545-124.121212 124.121212v496.484849c0 68.266667 55.854545 124.121212 124.121212 124.121212z m0-62.060606c-37.236364 0-62.060606-24.824242-62.060606-62.060606v-496.484849c0-37.236364 24.824242-62.060606 62.060606-62.060606h496.484849c37.236364 0 62.060606 24.824242 62.060606 62.060606v496.484849c0 37.236364-24.824242 62.060606-62.060606 62.060606H248.242424z m-62.060606-186.181818v62.060606h620.606061v-62.060606H186.181818z m403.39394-186.181819h124.121212c18.618182 0 31.030303-12.412121 31.030303-31.030303s-12.412121-31.030303-31.030303-31.030303h-124.121212c-18.618182 0-31.030303 12.412121-31.030303 31.030303s12.412121 31.030303 31.030303 31.030303zM310.30303 306.424242h-31.030303c-18.618182 0-31.030303-12.412121-31.030303-31.030303s12.412121-31.030303 31.030303-31.030303H310.30303v-31.030303c0-18.618182 12.412121-31.030303 31.030303-31.030303s31.030303 12.412121 31.030303 31.030303v31.030303h31.030303c18.618182 0 31.030303 12.412121 31.030303 31.030303s-12.412121 31.030303-31.030303 31.030303H372.363636V337.454545c0 18.618182-12.412121 31.030303-31.030303 31.030303S310.30303 356.072727 310.30303 337.454545v-31.030303z"  horiz-adv-x="1024" />

    
    <glyph glyph-name="zengjia" unicode="&#59005;" d="M512 810.666667a426.666667 426.666667 0 1 1 426.666667-426.666667A426.666667 426.666667 0 0 1 512 810.666667z m0-768a341.333333 341.333333 0 1 0 341.333333 341.333333 341.333333 341.333333 0 0 0-341.333333-341.333333zM661.333333 426.666667h-106.666666v106.666666a21.333333 21.333333 0 0 1-21.333334 21.333334h-42.666666a21.333333 21.333333 0 0 1-21.333334-21.333334v-106.666666h-106.666666a21.333333 21.333333 0 0 1-21.333334-21.333334v-42.666666a21.333333 21.333333 0 0 1 21.333334-21.333334h106.666666v-106.666666a21.333333 21.333333 0 0 1 21.333334-21.333334h42.666666a21.333333 21.333333 0 0 1 21.333334 21.333334v106.666666h106.666666a21.333333 21.333333 0 0 1 21.333334 21.333334v42.666666a21.333333 21.333333 0 0 1-21.333334 21.333334z"  horiz-adv-x="1024" />

    
    <glyph glyph-name="biangengjilu" unicode="&#58978;" d="M262.208 477.44v64h252.8v-64h-252.8z m0-192v64H736v-64H262.208zM736 855.232V672h151.168v-64H672V855.296h64zM147.2-44.8h729.6V812.8H147.2v-857.6zM64 896h896v-1024H64V896z"  horiz-adv-x="1024" />

    
    <glyph glyph-name="blue" unicode="&#59089;" d="M204.8 691.2m-204.8 0a204.8 204.8 0 1 1 409.6 0 204.8 204.8 0 1 1-409.6 0ZM204.8 76.8m-204.8 0a204.8 204.8 0 1 1 409.6 0 204.8 204.8 0 1 1-409.6 0ZM819.2 691.2m-204.8 0a204.8 204.8 0 1 1 409.6 0 204.8 204.8 0 1 1-409.6 0ZM819.2 76.8m-204.8 0a204.8 204.8 0 1 1 409.6 0 204.8 204.8 0 1 1-409.6 0Z"  horiz-adv-x="1024" />

    
    <glyph glyph-name="daitiqu" unicode="&#58981;" d="M522.922667 312.71822199999997V611.157333h-56.888889v-306.176L386.275556 410.055111l-45.340445-34.417778 144.554667-190.350222 168.334222 188.643556-42.439111 37.831111-88.462222-99.043556zM502.044444-108.088889a502.044444 502.044444 0 1 0 0 1004.088889 502.044444 502.044444 0 0 0 0-1004.088889z m0 75.434667a426.609778 426.609778 0 1 1 0 853.219555 426.609778 426.609778 0 0 1 0-853.219555z"  horiz-adv-x="1024" />

    
    <glyph glyph-name="Fill" unicode="&#58993;" d="M773.551158 864.633263A123.526737 123.526737 0 0 1 659.078737 891.688421c-40.421053-10.778947-72.488421-40.96-85.692632-80.572632l-29.426526-88.441263L0 450.775579l260.688842-223.447579-242.957474-269.904842 80.141474-72.111158 244.682105 271.845053 269.850948-231.316211 194.56 544.660211 98.465684 49.259789a123.850105 123.850105 0 0 1 67.47621 94.693053 123.796211 123.796211 0 0 1-40.582736 109.029052L773.551158 864.633263z"  horiz-adv-x="1024" />

    
    <glyph glyph-name="Fill1" unicode="&#58994;" d="M857.195789 616.178526L720.033684 547.570526l-156.402526-437.948631-370.256842 317.33221 438.703158 219.351579 43.600842 130.748632a15.845053 15.845053 0 0 0 11.210105 10.563368 15.737263 15.737263 0 0 0 15.036632-3.557052l158.773894-141.204211a16.114526 16.114526 0 0 0 5.389474-14.282105 15.898947 15.898947 0 0 0-8.892632-12.39579m75.129264 107.250527L773.551158 864.687158A123.526737 123.526737 0 0 1 659.078737 891.688421c-40.421053-10.778947-72.488421-40.96-85.692632-80.572632l-29.426526-88.441263L0 450.775579l260.688842-223.447579-242.957474-269.904842 80.141474-72.111158 244.682105 271.845053 269.850948-231.316211 194.56 544.660211 98.465684 49.259789a123.850105 123.850105 0 0 1 67.47621 94.693053 123.796211 123.796211 0 0 1-40.582736 109.029052"  horiz-adv-x="1024" />

    
    <glyph glyph-name="jiantouzuo" unicode="&#58997;" d="M661.333333 600.3199999999999l-32.853333 32.853333a23.893333 23.893333 0 0 1-33.706667 0l-182.613333-182.613333L362.666667 400.853333a23.893333 23.893333 0 0 1 0-33.706666l49.706666-49.706667 182.613334-182.613333a23.893333 23.893333 0 0 1 33.706666 0L661.333333 167.67999999999995a23.893333 23.893333 0 0 1 0 33.706667L478.72 384 661.333333 566.613333a23.893333 23.893333 0 0 1 0 33.706667z"  horiz-adv-x="1024" />

    
    <glyph glyph-name="jiantouyou" unicode="&#58998;" d="M362.666667 167.67999999999995l32.853333-32.853333a23.893333 23.893333 0 0 1 33.706667 0l182.613333 182.613333L661.333333 367.146667a23.893333 23.893333 0 0 1 0 33.706666l-49.706666 49.706667-182.613334 182.613333a23.893333 23.893333 0 0 1-33.706666 0L362.666667 600.3199999999999a23.893333 23.893333 0 0 1 0-33.706667L545.28 384 362.666667 201.386667a23.893333 23.893333 0 0 1 0-33.706667z"  horiz-adv-x="1024" />

    
    <glyph glyph-name="shangchuan" unicode="&#59001;" d="M602.348335 363.124715l199.979647-166.669784a30.117417 30.117417 0 1 0-38.550293-46.260352L632.465752 259.611154v-387.460567h-60.234834V259.611154l-131.311937-109.416575a30.117417 30.117417 0 1 0-38.550293 46.260352L602.348335 363.124715z m354.331408 203.172093a288.163443 288.163443 0 0 0 246.059295-285.121584c0-159.110313-129.41454-288.524852-288.524853-288.524853v60.234834c125.890802 0 228.290019 102.399217 228.290019 228.290019a227.988845 227.988845 0 0 1-216.544226 227.687671l-28.611546 1.475753 0.060235 28.671781a293.524344 293.524344 0 0 1-91.556947 215.038355c-118.240978 112.789726-306.143541 108.302231-418.933267-9.938747a295.030214 295.030214 0 0 1-81.618199-205.129726l0.090352-28.67178-28.641663-1.445636a227.988845 227.988845 0 0 1-216.544227-227.687671c0-125.890802 102.459452-228.290019 228.350254-228.290019v-60.234834C129.444657-7.349629 0 122.064911 0 281.175224a288.223678 288.223678 0 0 0 246.059295 285.121584 354.391643 354.391643 0 0 0 97.279256 219.375264c135.678962 142.274677 361.800527 147.665694 504.105321 11.986732a352.373776 352.373776 0 0 0 109.235871-231.361996z"  horiz-adv-x="1204" />

    
    <glyph glyph-name="guanbi" unicode="&#59002;" d="M512.45059 486.883342L125.645559 873.688373A73.0786 73.0786 0 1 1 22.312418 770.355232L409.117449 383.550201 22.312418-3.25482999999997a73.0786 73.0786 0 0 1 103.333141-103.33314L512.45059 280.21706099999994l386.805031-386.805031a73.0786 73.0786 0 0 1 103.33314 103.33314L615.78373 383.550201l386.805031 386.805031A73.0786 73.0786 0 1 1 899.255621 873.688373L512.45059 486.883342z"  horiz-adv-x="1025" />

    
    <glyph glyph-name="duoxuan123" unicode="&#59004;" d="M768.1024 785.408h-512c-84.48 0-153.6-69.12-153.6-153.6v-512c0-84.48 69.12-153.6 153.6-153.6h512c84.48 0 153.6 69.12 153.6 153.6V631.808c0 84.48-69.12 153.6-153.6 153.6z m-30.1056-301.7728L461.312 191.0784c-6.9632-7.3728-18.5344-7.7824-26.0096-0.8192l-152.576 142.0288c-7.4752 6.9632-7.8848 18.8416-0.8192 26.2144l52.1216 54.8864c6.8608 7.2704 18.3296 7.68 25.7024 1.024l83.8656-75.4688c7.3728-6.656 18.7392-6.2464 25.7024 0.9216l211.8656 220.7744c7.168 7.4752 19.1488 7.5776 26.5216 0.2048l29.9008-30.3104c12.8-12.9024 13.0048-33.6896 0.4096-46.8992z"  horiz-adv-x="1024" />

    
    <glyph glyph-name="duoxuan1" unicode="&#59010;" d="M755.8144-15.7696H274.0224c-92.9792 0-168.6528 75.6736-168.6528 168.6528V634.7776c0 92.9792 75.6736 168.6528 168.6528 168.6528h481.8944c92.9792 0 168.6528-75.6736 168.6528-168.6528v-481.8944c0-92.9792-75.6736-168.6528-168.7552-168.6528zM274.0224 755.2c-66.4576 0-120.4224-54.0672-120.4224-120.4224v-481.8944c0-66.4576 54.0672-120.4224 120.4224-120.4224h481.8944c66.4576 0 120.4224 54.0672 120.4224 120.4224V634.7776c0 66.4576-54.0672 120.4224-120.4224 120.4224H274.0224zM274.0224 755.2c-66.4576 0-120.4224-54.0672-120.4224-120.4224v-481.8944c0-66.4576 54.0672-120.4224 120.4224-120.4224h481.8944c66.4576 0 120.4224 54.0672 120.4224 120.4224V634.7776c0 66.4576-54.0672 120.4224-120.4224 120.4224H274.0224z"  horiz-adv-x="1024" />

    
    <glyph glyph-name="jiantouxia1" unicode="&#59011;" d="M295.68 533.333333l-32.853333-32.853333a23.893333 23.893333 0 0 1 0-33.706667l182.613333-182.613333L495.146667 234.66666699999996a23.893333 23.893333 0 0 1 33.706666 0l49.706667 49.706666 182.613333 182.613334a23.893333 23.893333 0 0 1 0 33.706666L728.32 533.333333a23.893333 23.893333 0 0 1-33.706667 0L512 350.72 329.386667 533.333333a23.893333 23.893333 0 0 1-33.706667 0z"  horiz-adv-x="1024" />

    
    <glyph glyph-name="jiantoushang1" unicode="&#59015;" d="M728.32 234.66666699999996l32.853333 32.853333a23.893333 23.893333 0 0 1 0 33.706667l-182.613333 182.613333L528.853333 533.333333a23.893333 23.893333 0 0 1-33.706666 0l-49.706667-49.706666-182.613333-182.613334a23.893333 23.893333 0 0 1 0-33.706666L295.68 234.66666699999996a23.893333 23.893333 0 0 1 33.706667 0L512 417.28 694.613333 234.66666699999996a23.893333 23.893333 0 0 1 33.706667 0z"  horiz-adv-x="1024" />

    
    <glyph glyph-name="shibai" unicode="&#59014;" d="M512 793.6c-226.2016 0-409.6-183.3984-409.6-409.6s183.3984-409.6 409.6-409.6 409.6 183.3984 409.6 409.6-183.3984 409.6-409.6 409.6z m131.4816-498.176c11.8784-11.8784 11.8784-31.0272 0-42.9056-11.8784-11.8784-31.0272-11.8784-42.9056 0L512 341.0944l-88.576-88.576c-11.8784-11.8784-31.0272-11.8784-42.9056 0-11.8784 11.8784-11.8784 31.0272 0 42.9056l88.576 88.576-88.576 88.576c-11.8784 11.8784-11.8784 31.0272 0 42.9056 11.8784 11.8784 31.0272 11.8784 42.9056 0l88.576-88.576 88.576 88.576c11.8784 11.8784 31.0272 11.8784 42.9056 0 11.8784-11.8784 11.8784-31.0272 0-42.9056L554.9056 384l88.576-88.576z"  horiz-adv-x="1024" />

    
    <glyph glyph-name="tixing" unicode="&#59016;" d="M512 795.5456c-226.2016 0-409.6-183.3984-409.6-409.6s183.3984-409.6 409.6-409.6 409.6 183.3984 409.6 409.6-183.3984 409.6-409.6 409.6z m0-215.6544c23.3472 0 42.1888-18.944 42.1888-42.1888 0-23.3472-18.944-42.1888-42.1888-42.1888s-42.1888 18.944-42.1888 42.1888c0 23.3472 18.8416 42.1888 42.1888 42.1888z m38.4-387.7888H512c-21.1968 0-38.4 17.2032-38.4 38.4V345.7024c-21.1968 0-38.4 17.2032-38.4 38.4s17.2032 38.4 38.4 38.4H512c21.1968 0 38.4-17.2032 38.4-38.4v-115.2c21.1968 0 38.4-17.2032 38.4-38.4s-17.2032-38.4-38.4-38.4z"  horiz-adv-x="1024" />

    
    <glyph glyph-name="wancheng" unicode="&#59017;" d="M512 803.1232c-226.2016 0-409.6-183.3984-409.6-409.6s183.3984-409.6 409.6-409.6 409.6 183.3984 409.6 409.6-183.3984 409.6-409.6 409.6z m204.5952-312.0128L466.0224 226.2016c-6.3488-6.656-16.7936-6.9632-23.552-0.7168L304.3328 354.0992c-6.7584 6.3488-7.168 16.9984-0.7168 23.7568l47.2064 49.7664c6.2464 6.5536 16.5888 6.9632 23.3472 0.9216l75.9808-68.3008c6.7584-6.0416 16.9984-5.632 23.2448 0.8192l191.7952 199.8848c6.5536 6.7584 17.408 6.8608 23.9616 0.2048l27.0336-27.4432c11.5712-11.8784 11.776-30.6176 0.4096-42.5984z"  horiz-adv-x="1024" />

    
    <glyph glyph-name="zhuyi1" unicode="&#59018;" d="M512 793.6c-226.2016 0-409.6-183.3984-409.6-409.6s183.3984-409.6 409.6-409.6 409.6 183.3984 409.6 409.6-183.3984 409.6-409.6 409.6z m0-610.4064c-22.6304 0-40.96 18.3296-40.96 40.96s18.3296 40.96 40.96 40.96 40.96-18.3296 40.96-40.96-18.3296-40.96-40.96-40.96z m40.96 181.248c0-22.6304-18.3296-40.96-40.96-40.96s-40.96 18.3296-40.96 40.96v163.84c0 22.6304 18.3296 40.96 40.96 40.96s40.96-18.3296 40.96-40.96v-163.84z"  horiz-adv-x="1024" />

    
    <glyph glyph-name="bianji" unicode="&#59019;" d="M535.530667 677.333333l75.434666 75.413334 271.509334-271.530667-75.413334-75.413333zM175.36 317.013333L141.44 15.360000000000014l298.666667 23.466667L761.813333 360.53333299999997 490.666667 631.893333zM490.666667 512l150.826666-150.826667-241.066666-241.066666-154.666667-1.706667 8.746667 157.44z"  horiz-adv-x="1024" />

    
    <glyph glyph-name="shanchu" unicode="&#59020;" d="M874.666667 624H149.333333a21.333333 21.333333 0 0 1-21.333333-21.333333v-42.666667a21.333333 21.333333 0 0 1 21.333333-21.333333h80V21.33333300000004a21.333333 21.333333 0 0 1 21.333334-21.333333h522.24a21.333333 21.333333 0 0 1 21.333333 21.333333V538.666667H874.666667a21.333333 21.333333 0 0 1 21.333333 21.333333v42.666667a21.333333 21.333333 0 0 1-21.333333 21.333333zM709.333333 85.33333300000004h-394.666666V538.666667h394.666666zM362.666667 768m21.12 0l256.426666 0q21.12 0 21.12-21.12l0-43.093333q0-21.12-21.12-21.12l-256.426666 0q-21.12 0-21.12 21.12l0 43.093333q0 21.12 21.12 21.12ZM373.333333 439.893333h85.333334v-256h-85.333334zM566.186667 439.893333h85.333333v-256h-85.333333z"  horiz-adv-x="1024" />

    
    <glyph glyph-name="qingkong" unicode="&#59021;" d="M673.3824 246.784c-4.8128-4.8128-12.0832-7.2704-16.896-7.2704-7.2704 0-12.0832 2.4576-16.896 7.2704L512 372.0192 386.6624 244.3264c-4.8128-4.8128-12.0832-7.2704-16.896-7.2704-7.2704 0-12.0832 2.4576-16.896 7.2704-9.6256 9.6256-9.6256 24.064 0 33.6896L478.208 405.7088 350.6176 531.0464c-9.6256 9.6256-9.6256 24.064 0 33.6896 9.6256 9.6256 24.064 9.6256 33.6896 0L512 439.5008l125.3376 127.6928c9.6256 9.6256 24.064 9.6256 33.6896 0 9.6256-9.6256 9.6256-24.064 0-33.6896L545.6896 405.8112l127.6928-125.3376c9.728-9.6256 9.728-24.064 0-33.6896zM512 815.4112c-226.5088 0-409.6-183.0912-409.6-409.6s183.0912-409.6 409.6-409.6 409.6 183.0912 409.6 409.6-183.0912 409.6-409.6 409.6z"  horiz-adv-x="1024" />

    
    <glyph glyph-name="shangchuanfujian" unicode="&#59022;" d="M118.784 712.6016c-9.0112 0-16.384-7.3728-16.384-16.384v-49.152c0-9.0112 7.3728-16.384 16.384-16.384v81.92zM119.0912 57.0368c-0.9216-0.2048-1.9456-0.1024-2.8672-0.512-8.3968-3.3792-12.4928-12.9024-9.1136-21.2992 8.3968-20.7872 26.4192-35.7376 48.4352-39.936 1.024-0.2048 2.048-0.3072 3.072-0.3072 7.68 0 14.5408 5.4272 16.0768 13.312 0.1024 0.7168-0.1024 1.4336 0 2.2528H167.936c-26.3168-0.1024-47.5136 20.5824-48.8448 46.4896zM118.784 581.5296c-9.0112 0-16.384-7.3728-16.384-16.384v-49.152c0-9.0112 7.3728-16.384 16.384-16.384v81.92zM118.784 319.3856c-9.0112 0-16.384-7.3728-16.384-16.384v-49.152c0-9.0112 7.3728-16.384 16.384-16.384v81.92zM118.784 188.3136c-9.0112 0-16.384-7.3728-16.384-16.384v-49.152c0-9.0112 7.3728-16.384 16.384-16.384v81.92zM118.784 450.4576c-9.0112 0-16.384-7.3728-16.384-16.384v-49.152c0-9.0112 7.3728-16.384 16.384-16.384v81.92zM741.376 813.2608h-49.152c-9.0112 0-16.384-7.3728-16.384-16.384h81.92c0 9.0112-7.3728 16.384-16.384 16.384zM167.936 796.8768h65.536c0 9.0112-7.3728 16.384-16.384 16.384h-49.152c-21.0944 0-41.0624-10.24-53.3504-27.5456-5.2224-7.3728-3.584-17.6128 3.7888-22.8352 0.8192-0.6144 1.7408-0.9216 2.6624-1.3312 6.0416 20.3776 24.576 35.328 46.8992 35.328zM886.272 786.2272c0.512 0.8192 1.024 1.6384 1.3312 2.56 2.9696 8.6016-1.536 17.92-10.1376 20.8896-6.8608 2.3552-14.1312 3.584-21.4016 3.584h-32.768c-9.0112 0-16.384-7.3728-16.384-16.384h49.152c11.4688 0 21.8112-4.096 30.208-10.6496zM479.232 813.2608h-49.152c-9.0112 0-16.384-7.3728-16.384-16.384h81.92c0 9.0112-7.3728 16.384-16.384 16.384zM348.16 813.2608h-49.152c-9.0112 0-16.384-7.3728-16.384-16.384h81.92c0 9.0112-7.3728 16.384-16.384 16.384zM610.304 813.2608h-49.152c-9.0112 0-16.384-7.3728-16.384-16.384h81.92c0 9.0112-7.3728 16.384-16.384 16.384zM921.6 284.2624v49.152c0 9.0112-7.3728 16.384-16.384 16.384v-81.92c9.0112 0 16.384 7.3728 16.384 16.384zM224.1536 10.4448c0-9.0112 7.3728-16.384 16.384-16.384h49.152c9.0112 0 16.384 7.3728 16.384 16.384h-81.92zM905.216 743.0144v-81.92c9.0112 0 16.384 7.3728 16.384 16.384v49.152c0 9.0112-7.3728 16.384-16.384 16.384zM921.6 546.4064v49.152c0 9.0112-7.3728 16.384-16.384 16.384v-81.92c9.0112 0 16.384 7.3728 16.384 16.384zM921.6 415.3344v49.152c0 9.0112-7.3728 16.384-16.384 16.384v-81.92c9.0112 0 16.384 7.3728 16.384 16.384zM748.4416 10.4448c0-9.0112 7.3728-16.384 16.384-16.384h49.152c9.0112 0 16.384 7.3728 16.384 16.384h-81.92zM921.6 153.1904v49.152c0 9.0112-7.3728 16.384-16.384 16.384v-81.92c9.0112 0 16.384 7.3728 16.384 16.384zM617.3696 10.4448c0-9.0112 7.3728-16.384 16.384-16.384h49.152c9.0112 0 16.384 7.3728 16.384 16.384h-81.92zM878.6944 16.1792c0.6144-0.8192 0.9216-1.6384 1.6384-2.3552 3.1744-3.072 7.2704-4.5056 11.264-4.5056 4.3008 0 8.6016 1.7408 11.8784 5.12 11.6736 12.288 18.1248 28.2624 18.1248 45.2608v11.6736c0 9.0112-7.3728 16.384-16.384 16.384v-28.0576c0-19.0464-10.8544-35.328-26.5216-43.52zM355.2256 10.4448c0-9.0112 7.3728-16.384 16.384-16.384h49.152c9.0112 0 16.384 7.3728 16.384 16.384h-81.92zM486.2976 10.4448c0-9.0112 7.3728-16.384 16.384-16.384h49.152c9.0112 0 16.384 7.3728 16.384 16.384h-81.92zM823.296 780.4928h32.768c3.6864 0 7.2704-0.6144 10.752-1.7408 1.7408-0.6144 3.584-0.9216 5.3248-0.9216 5.8368 0 11.1616 3.2768 14.1312 8.4992-8.3968 6.5536-18.7392 10.6496-30.208 10.6496h-49.152c0-9.1136 7.3728-16.4864 16.384-16.4864zM692.224 780.4928h49.152c9.0112 0 16.384 7.3728 16.384 16.384h-81.92c0-9.0112 7.3728-16.384 16.384-16.384zM813.9776 26.8288h-49.152c-9.0112 0-16.384-7.3728-16.384-16.384h81.92c0 9.0112-7.3728 16.384-16.384 16.384zM888.832 202.3424v-49.152c0-9.0112 7.3728-16.384 16.384-16.384v81.92c-9.0112 0-16.384-7.2704-16.384-16.384zM682.9056 26.8288h-49.152c-9.0112 0-16.384-7.3728-16.384-16.384h81.92c0 9.0112-7.3728 16.384-16.384 16.384zM888.832 71.2704v-11.6736c0-8.4992-3.1744-16.4864-9.0112-22.6304-5.5296-5.8368-5.632-14.5408-1.1264-20.7872 15.6672 8.192 26.5216 24.4736 26.5216 43.4176v28.0576c-9.0112 0-16.384-7.2704-16.384-16.384zM420.7616 26.8288h-49.152c-9.0112 0-16.384-7.3728-16.384-16.384h81.92c0 9.0112-7.3728 16.384-16.384 16.384zM551.8336 26.8288h-49.152c-9.0112 0-16.384-7.3728-16.384-16.384h81.92c0 9.0112-7.3728 16.384-16.384 16.384zM289.6896 26.8288h-49.152c-9.0112 0-16.384-7.3728-16.384-16.384h81.92c0 9.0112-7.3728 16.384-16.384 16.384zM888.832 333.4144v-49.152c0-9.0112 7.3728-16.384 16.384-16.384v81.92c-9.0112 0-16.384-7.2704-16.384-16.384zM905.216 743.0144c-9.0112 0-16.384-7.3728-16.384-16.384v-49.152c0-9.0112 7.3728-16.384 16.384-16.384v81.92zM561.152 780.4928h49.152c9.0112 0 16.384 7.3728 16.384 16.384h-81.92c0-9.0112 7.3728-16.384 16.384-16.384zM888.832 464.4864v-49.152c0-9.0112 7.3728-16.384 16.384-16.384v81.92c-9.0112 0-16.384-7.2704-16.384-16.384zM888.832 595.5584v-49.152c0-9.0112 7.3728-16.384 16.384-16.384v81.92c-9.0112 0-16.384-7.2704-16.384-16.384zM141.2096 766.7712c6.144 8.6016 16.0768 13.7216 26.624 13.7216h49.152c9.0112 0 16.384 7.3728 16.384 16.384h-65.536c-22.3232 0-40.8576-14.9504-46.8992-35.328 2.2528-1.024 4.5056-1.7408 6.8608-1.7408 5.2224 0 10.24 2.4576 13.4144 6.9632zM135.168 647.0656v49.152c0 9.0112-7.3728 16.384-16.384 16.384v-81.92c9.0112 0 16.384 7.3728 16.384 16.384zM299.008 780.4928h49.152c9.0112 0 16.384 7.3728 16.384 16.384h-81.92c0-9.0112 7.3728-16.384 16.384-16.384zM430.08 780.4928h49.152c9.0112 0 16.384 7.3728 16.384 16.384h-81.92c0-9.0112 7.3728-16.384 16.384-16.384zM135.168 253.8496v49.152c0 9.0112-7.3728 16.384-16.384 16.384v-81.92c9.0112 0 16.384 7.3728 16.384 16.384zM161.6896 27.4432c-10.8544 2.048-20.0704 9.728-24.2688 19.968-2.9696 7.4752-10.8544 11.1616-18.432 9.6256 1.3312-25.9072 22.6304-46.592 48.9472-46.592h6.7584c0.4096 7.9872-4.8128 15.36-13.0048 16.9984zM135.168 515.9936v49.152c0 9.0112-7.3728 16.384-16.384 16.384v-81.92c9.0112 0 16.384 7.3728 16.384 16.384zM135.168 122.7776v49.152c0 9.0112-7.3728 16.384-16.384 16.384v-81.92c9.0112 0 16.384 7.3728 16.384 16.384zM135.168 384.9216v49.152c0 9.0112-7.3728 16.384-16.384 16.384v-81.92c9.0112 0 16.384 7.3728 16.384 16.384zM659.456 420.0448H528.384v131.072c0 9.0112-7.3728 16.384-16.384 16.384s-16.384-7.3728-16.384-16.384v-131.072H364.544c-9.0112 0-16.384-7.3728-16.384-16.384s7.3728-16.384 16.384-16.384h131.072v-147.456c0-9.0112 7.3728-16.384 16.384-16.384s16.384 7.3728 16.384 16.384v147.456h131.072c9.0112 0 16.384 7.3728 16.384 16.384s-7.3728 16.384-16.384 16.384z"  horiz-adv-x="1024" />

    
    <glyph glyph-name="tianjiayingyong" unicode="&#59023;" d="M659.456 408.576H528.384V539.648c0 9.0112-7.3728 16.384-16.384 16.384s-16.384-7.3728-16.384-16.384v-131.072H364.544c-9.0112 0-16.384-7.3728-16.384-16.384s7.3728-16.384 16.384-16.384h131.072v-147.456c0-9.0112 7.3728-16.384 16.384-16.384s16.384 7.3728 16.384 16.384V375.808h131.072c9.0112 0 16.384 7.3728 16.384 16.384s-7.3728 16.384-16.384 16.384z"  horiz-adv-x="1024" />

    
    <glyph glyph-name="gengduo" unicode="&#59024;" d="M867.5328 427.6224c39.3216 0 71.2704-31.9488 71.2704-71.2704s-31.9488-71.2704-71.2704-71.2704c-39.3216 0-71.2704 31.9488-71.2704 71.2704s31.9488 71.2704 71.2704 71.2704z m-676.7616 0c39.3216 0 71.2704-31.9488 71.2704-71.2704s-31.9488-71.2704-71.2704-71.2704-71.2704 31.9488-71.2704 71.2704 31.9488 71.2704 71.2704 71.2704z m356.1472 0c39.3216 0 71.2704-31.9488 71.2704-71.2704s-31.9488-71.2704-71.2704-71.2704c-39.3216 0-71.2704 31.9488-71.2704 71.2704s31.9488 71.2704 71.2704 71.2704z"  horiz-adv-x="1024" />

    
    <glyph glyph-name="jinggao" unicode="&#58881;" d="M460.8 180.1216h102.4v102.4H460.8v-102.4z m0 204.8h102.4v204.8H460.8v-204.8z m51.2-409.6c-226.2016 0-409.6 183.3984-409.6 409.6s183.3984 409.6 409.6 409.6 409.6-183.3984 409.6-409.6-183.3984-409.6-409.6-409.6z"  horiz-adv-x="1024" />

    
    <glyph glyph-name="shituliebiaoqiehuan" unicode="&#58882;" d="M426.666667 768H170.666667a42.666667 42.666667 0 0 1-42.666667-42.666667v-256a42.666667 42.666667 0 0 1 42.666667-42.666666h256a42.666667 42.666667 0 0 1 42.666666 42.666666V725.333333a42.666667 42.666667 0 0 1-42.666666 42.666667z m-42.666667-234.666667a21.333333 21.333333 0 0 0-21.333333-21.333333h-128a21.333333 21.333333 0 0 0-21.333334 21.333333v128a21.333333 21.333333 0 0 0 21.333334 21.333334h128a21.333333 21.333333 0 0 0 21.333333-21.333334zM853.333333 768H597.333333a42.666667 42.666667 0 0 1-42.666666-42.666667v-256a42.666667 42.666667 0 0 1 42.666666-42.666666h256a42.666667 42.666667 0 0 1 42.666667 42.666666V725.333333a42.666667 42.666667 0 0 1-42.666667 42.666667z m-42.666666-234.666667a21.333333 21.333333 0 0 0-21.333334-21.333333h-128a21.333333 21.333333 0 0 0-21.333333 21.333333v128a21.333333 21.333333 0 0 0 21.333333 21.333334h128a21.333333 21.333333 0 0 0 21.333334-21.333334zM426.666667 341.33333300000004H170.666667a42.666667 42.666667 0 0 1-42.666667-42.666666v-256a42.666667 42.666667 0 0 1 42.666667-42.666667h256a42.666667 42.666667 0 0 1 42.666666 42.666667V298.66666699999996a42.666667 42.666667 0 0 1-42.666666 42.666666z m-42.666667-234.666666a21.333333 21.333333 0 0 0-21.333333-21.333334h-128a21.333333 21.333333 0 0 0-21.333334 21.333334v128a21.333333 21.333333 0 0 0 21.333334 21.333333h128a21.333333 21.333333 0 0 0 21.333333-21.333333zM853.333333 341.33333300000004H597.333333a42.666667 42.666667 0 0 1-42.666666-42.666666v-256a42.666667 42.666667 0 0 1 42.666666-42.666667h256a42.666667 42.666667 0 0 1 42.666667 42.666667V298.66666699999996a42.666667 42.666667 0 0 1-42.666667 42.666666z m-42.666666-234.666666a21.333333 21.333333 0 0 0-21.333334-21.333334h-128a21.333333 21.333333 0 0 0-21.333333 21.333334v128a21.333333 21.333333 0 0 0 21.333333 21.333333h128a21.333333 21.333333 0 0 0 21.333334-21.333333z"  horiz-adv-x="1024" />

    
    <glyph glyph-name="shu_zk" unicode="&#58883;" d="M648.4992 315.6992H375.5008c-37.5808 0-68.3008 30.72-68.3008 68.3008s30.72 68.3008 68.3008 68.3008h273.1008c37.5808 0 68.3008-30.72 68.3008-68.3008-0.1024-37.5808-30.8224-68.3008-68.4032-68.3008zM784.0768 725.2992c38.0928 0 69.2224-31.1296 69.2224-69.2224v-544.1536c0-38.0928-31.1296-69.2224-69.2224-69.2224H239.9232c-38.0928 0-69.2224 31.1296-69.2224 69.2224V656.0768c0 38.0928 31.1296 69.2224 69.2224 69.2224h544.1536m0 68.3008H239.9232c-75.776 0-137.5232-61.6448-137.5232-137.5232v-544.1536c0-75.776 61.6448-137.5232 137.5232-137.5232h544.1536c75.776 0 137.5232 61.6448 137.5232 137.5232V656.0768c0 75.8784-61.6448 137.5232-137.5232 137.5232z"  horiz-adv-x="1024" />

    
    <glyph glyph-name="danxuan-xuanzhong" unicode="&#58886;" d="M512 810.666667a426.666667 426.666667 0 1 1 426.666667-426.666667A426.666667 426.666667 0 0 1 512 810.666667z m0-768a341.333333 341.333333 0 1 0 341.333333 341.333333 341.333333 341.333333 0 0 0-341.333333-341.333333zM512 384m-170.666667 0a170.666667 170.666667 0 1 1 341.333334 0 170.666667 170.666667 0 1 1-341.333334 0Z"  horiz-adv-x="1024" />

    
    <glyph glyph-name="danxuan-weixuan" unicode="&#58887;" d="M512 810.666667a426.666667 426.666667 0 1 1 426.666667-426.666667A426.666667 426.666667 0 0 1 512 810.666667z m0-768a341.333333 341.333333 0 1 0 341.333333 341.333333 341.333333 341.333333 0 0 0-341.333333-341.333333z"  horiz-adv-x="1024" />

    
    <glyph glyph-name="rili" unicode="&#58888;" d="M785.1008-25.1904h-545.792c-75.264 0-136.4992 61.2352-136.4992 136.4992v545.792c0 75.264 61.2352 136.4992 136.4992 136.4992h68.1984v-34.0992c0-18.8416 15.2576-34.0992 34.0992-34.0992s34.0992 15.2576 34.0992 34.0992V793.6h272.896v-34.0992c0-18.8416 15.36-34.0992 34.0992-34.0992s34.0992 15.2576 34.0992 34.0992V793.6h68.1984c75.264 0 136.4992-61.2352 136.4992-136.4992v-545.792c0.1024-75.264-61.1328-136.4992-136.3968-136.4992z m-545.792 750.592c-37.5808 0-68.1984-30.6176-68.1984-68.1984v-545.792c0-37.6832 30.6176-68.1984 68.1984-68.1984h545.792c37.6832 0 68.1984 30.6176 68.1984 68.1984v545.792c0 37.5808-30.6176 68.1984-68.1984 68.1984H779.264c-14.0288-39.7312-52.0192-68.1984-96.4608-68.1984s-82.432 28.4672-96.4608 68.1984H438.1696c-14.1312-39.7312-52.0192-68.1984-96.5632-68.1984s-82.432 28.4672-96.5632 68.1984h-5.7344zM481.4848 418.304H307.5072c-18.8416 0-34.0992 15.2576-34.0992 34.0992s15.2576 34.0992 34.0992 34.0992h173.9776c18.8416 0 34.0992-15.2576 34.0992-34.0992s-15.2576-34.0992-34.0992-34.0992zM674.7136 281.9072H307.5072c-18.8416 0-34.0992 15.2576-34.0992 34.0992s15.2576 34.0992 34.0992 34.0992h367.2064c18.8416 0 34.0992-15.2576 34.0992-34.0992s-15.2576-34.0992-34.0992-34.0992z"  horiz-adv-x="1024" />

    
    <glyph glyph-name="zhuxiao" unicode="&#58890;" d="M674.2016 652.8l224.6656-256.2048-224.6656-256.2048c-8.8064-10.0352-21.0944-15.1552-33.3824-15.1552-10.5472 0-21.1968 3.7888-29.5936 11.4688-18.432 16.5888-20.0704 45.1584-3.6864 63.7952l132.3008 150.8352H318.464v90.4192h421.2736L607.4368 592.6912c-16.384 18.6368-14.7456 47.3088 3.6864 63.7952 18.432 16.6912 46.6944 14.9504 63.0784-3.6864z m-459.776-587.9808h213.1968c24.6784 0 44.6464-20.1728 44.6464-45.2608 0-24.9856-19.968-45.2608-44.6464-45.2608H125.1328V698.1632c0 52.6336 42.2912 95.4368 94.208 95.4368h208.2816c24.6784 0 44.6464-20.1728 44.6464-45.2608 0-24.9856-19.968-45.2608-44.6464-45.2608H219.3408c-2.7648 0-4.9152-2.2528-4.9152-5.0176v-633.2416z"  horiz-adv-x="1024" />

    
    <glyph glyph-name="quanbuyingyong" unicode="&#58893;" d="M361.1648 793.2928H225.5872c-67.7888 0-122.88-55.0912-122.88-122.88v-135.5776c0-67.6864 55.0912-122.88 122.88-122.88h258.4576V670.4128c0 67.7888-55.1936 122.88-122.88 122.88z m40.96-299.4176H225.5872c-22.6304 0-40.96 18.432-40.96 40.96V670.4128c0 22.6304 18.3296 40.96 40.96 40.96h135.5776c22.528 0 40.96-18.3296 40.96-40.96v-176.5376zM798.72 793.2928H663.1424c-67.7888 0-122.88-55.0912-122.88-122.88v-135.5776c0-67.6864 55.0912-122.88 122.88-122.88H921.6V670.4128c0 67.7888-55.0912 122.88-122.88 122.88z m40.96-299.4176H663.1424c-22.6304 0-40.96 18.432-40.96 40.96V670.4128c0 22.6304 18.3296 40.96 40.96 40.96H798.72c22.528 0 40.96-18.3296 40.96-40.96v-176.5376z m-40.96-138.24H663.1424c-67.7888 0-122.88-55.0912-122.88-122.88V97.28c0-67.6864 55.0912-122.88 122.88-122.88H921.6V232.8576c0 67.7888-55.0912 122.7776-122.88 122.7776zM839.68 56.32H663.1424c-22.6304 0-40.96 18.432-40.96 40.96V232.8576c0 22.6304 18.3296 40.96 40.96 40.96H798.72c22.528 0 40.96-18.3296 40.96-40.96V56.32zM361.1648 355.6352H225.5872c-67.7888 0-122.88-55.0912-122.88-122.88V97.28c0-67.6864 55.0912-122.88 122.88-122.88h258.4576V232.8576c0 67.7888-55.1936 122.7776-122.88 122.7776z m40.96-299.3152H225.5872c-22.6304 0-40.96 18.432-40.96 40.96V232.8576c0 22.6304 18.3296 40.96 40.96 40.96h135.5776c22.528 0 40.96-18.3296 40.96-40.96V56.32z"  horiz-adv-x="1024" />

    
    <glyph glyph-name="mianbaoxie" unicode="&#58894;" d="M292.352 676.4544l292.2496-292.2496-292.2496-292.2496c-26.9312-26.9312-26.9312-70.5536 0-97.3824 26.9312-26.9312 70.5536-26.9312 97.3824 0l340.8896 340.8896c13.4144 13.4144 20.1728 31.0272 20.1728 48.7424 0 17.6128-6.7584 35.2256-20.1728 48.7424L389.7344 773.8368c-26.9312 26.9312-70.5536 26.9312-97.3824 0-26.8288-26.9312-26.8288-70.5536 0-97.3824z"  horiz-adv-x="1024" />

    
    <glyph glyph-name="xiaoxi" unicode="&#58895;" d="M512.3072 52.6336c30.0032 0 58.0608 16.1792 73.216 42.1888l67.1744-39.0144c-28.9792-49.8688-82.7392-80.896-140.3904-80.896-57.9584 0-111.9232 31.232-140.8 81.5104l67.3792 38.7072c15.1552-26.2144 43.2128-42.496 73.4208-42.496z m287.232 48.64l77.0048-30.8224-28.8768-72.192-77.0048 30.8224c-30.5152 12.288-50.2784 41.3696-50.2784 74.3424l-38.1952 507.2896-337.408 2.048-40.5504-512.3072c0.1024-30.0032-19.6608-59.1872-50.176-71.3728l-77.0048-30.8224-28.8768 72.192 77.0048 32.256 1.536 3.584L265.0112 616.448c3.072 41.5744 38.1952 74.0352 79.7696 74.0352h67.3792c0 0.8192-0.4096 1.4336-0.4096 2.2528 0 55.5008 45.1584 100.5568 100.5568 100.5568s100.5568-45.1584 100.5568-100.5568c0-0.8192-0.4096-1.4336-0.4096-2.2528H679.936c41.5744 0 76.6976-32.4608 79.7696-74.0352l39.8336-515.1744zM488.96 690.4832c0 0.8192 0.512 1.4336 0.512 2.2528 0 12.5952 10.24 22.8352 22.8352 22.8352s22.8352-10.24 22.8352-22.8352c0-0.8192 0.4096-1.4336 0.512-2.2528h-46.6944z"  horiz-adv-x="1024" />

    
    <glyph glyph-name="zhuye" unicode="&#58896;" d="M567.296 340.48c42.9056 0 77.824-34.9184 77.824-77.824v-239.616h-81.92v235.52H460.8v-235.52h-81.92v239.616c0 42.9056 34.9184 77.824 77.824 77.824h110.592z m343.6544 5.12c15.2576-16.7936 14.0288-42.7008-2.7648-57.856-7.8848-7.168-17.7152-10.6496-27.5456-10.6496-11.1616 0-22.2208 4.5056-30.3104 13.4144L811.008 333.7216v-310.6816h-81.92V423.8336L512 662.6304 294.912 423.8336v-400.7936h-81.92V333.7216l-39.3216-43.3152c-15.1552-16.6912-41.0624-18.0224-57.856-2.7648-16.6912 15.1552-17.92 41.1648-2.6624 57.856l341.2992 375.5008c29.3888 32.3584 85.8112 32.3584 115.2 0l341.2992-375.3984z"  horiz-adv-x="1024" />

    
    <glyph glyph-name="sousuo" unicode="&#58897;" d="M712.704 259.8912c28.7744 48.2304 45.568 104.3456 45.568 164.352 0 177.7664-144.5888 322.4576-322.3552 322.4576S113.5616 602.0096 113.5616 424.2432c0-177.7664 144.5888-322.3552 322.3552-322.3552 86.528 0 164.9664 34.4064 222.9248 90.112l207.2576-169.5744 54.8864 67.072L712.704 259.8912z m-276.7872-71.3728c-130.048 0-235.7248 105.7792-235.7248 235.7248 0 130.048 105.6768 235.7248 235.7248 235.7248s235.7248-105.7792 235.7248-235.7248c0-129.9456-105.7792-235.7248-235.7248-235.7248z"  horiz-adv-x="1024" />

    
    <glyph glyph-name="shezhi" unicode="&#58899;" d="M156.586667 303.57333300000005l58.453333-8.32a307.413333 307.413333 0 0 1 21.333333-53.333333l-36.266666-48a29.44 29.44 0 0 1 0-35.84 488.533333 488.533333 0 0 1 36.906666-41.6l3.2-3.2a488.32 488.32 0 0 1 42.666667-36.906667 29.653333 29.653333 0 0 1 35.84 0l47.146667 35.413334a307.626667 307.626667 0 0 1 52.906666-22.4l8.32-59.733334a29.44 29.44 0 0 1 25.6-25.173333 488.106667 488.106667 0 0 1 55.466667-3.413333H512a518.826667 518.826667 0 0 1 55.466667 3.413333 29.653333 29.653333 0 0 1 25.386666 25.173333l8.32 58.88a307.84 307.84 0 0 1 53.12 21.333334l48.213334-36.693334a29.653333 29.653333 0 0 1 35.84 0 484.906667 484.906667 0 0 1 42.666666 36.906667l3.2 3.2a500.693333 500.693333 0 0 1 36.906667 41.6 29.44 29.44 0 0 1 0 35.84l-36.053333 47.146667a306.56 306.56 0 0 1 22.4 52.906666l59.733333 8.106667a29.653333 29.653333 0 0 1 25.386667 25.386667 486.826667 486.826667 0 0 1 3.413333 55.466666V384a503.466667 503.466667 0 0 1-3.413333 55.253333 29.44 29.44 0 0 1-25.173334 25.386667l-58.666666 8.32a306.56 306.56 0 0 1-21.333334 53.12L823.893333 576a29.44 29.44 0 0 1 0 35.84 476.586667 476.586667 0 0 1-36.906666 41.6l-3.2 3.2a490.666667 490.666667 0 0 1-42.666667 36.906667 29.653333 29.653333 0 0 1-35.84 0l-47.36-35.626667a305.92 305.92 0 0 1-52.906667 21.333333L597.333333 739.413333a29.653333 29.653333 0 0 1-25.6 25.173334S550.4 768 525.226667 768h-21.333334c-25.173333 0-46.08-3.2-46.933333-3.2a29.653333 29.653333 0 0 1-25.6-25.173333l-8.32-58.666667a307.84 307.84 0 0 1-53.12-21.333333l-48.64 36.266666a29.653333 29.653333 0 0 1-35.84 0 483.84 483.84 0 0 1-42.666667-36.906666l-3.2-3.2a490.666667 490.666667 0 0 1-36.906666-41.6 29.44 29.44 0 0 1 0-35.84l35.626666-47.36a305.28 305.28 0 0 1-21.333333-52.693334L156.586667 469.333333a29.44 29.44 0 0 1-25.173334-25.386666A486.826667 486.826667 0 0 1 128 389.12V384a517.546667 517.546667 0 0 1 3.413333-55.466667 29.653333 29.653333 0 0 1 25.173334-24.96z m53.973333 85.333334v23.893333l51.84 7.04a27.306667 27.306667 0 0 1 22.826667 21.333333 230.613333 230.613333 0 0 0 27.52 65.493334 27.306667 27.306667 0 0 1 0 32.853333l-30.933334 41.173333q7.893333 8.96 16.426667 17.493334l2.986667 2.986666q8.533333 8.533333 17.493333 16.426667l40.533333-30.72a27.306667 27.306667 0 0 1 32-2.56 229.546667 229.546667 0 0 0 66.133334 27.093333 27.52 27.52 0 0 1 23.04 23.253334l7.253333 50.986666h52.266667l7.04-51.84a27.52 27.52 0 0 1 21.333333-22.826666 231.253333 231.253333 0 0 0 65.92-27.52 27.52 27.52 0 0 1 32.64 0l41.173333 30.933333q8.96-7.893333 17.493334-16.426667l2.986666-2.986666q8.533333-8.533333 16.213334-17.493334l-31.573334-42.666666a27.306667 27.306667 0 0 1-1.066666-31.573334 230.613333 230.613333 0 0 0 27.306666-67.2 27.306667 27.306667 0 0 1 22.826667-21.333333l50.986667-7.253333V355.41333299999997l-51.84-7.04a27.306667 27.306667 0 0 1-23.253334-22.4 229.973333 229.973333 0 0 0-28.16-65.706666 27.306667 27.306667 0 0 1 1.28-30.933334l30.933334-41.173333c-4.693333-5.333333-10.24-11.52-16.426667-17.493333l-2.986667-2.986667c-5.973333-5.973333-12.16-11.733333-17.493333-16.213333l-40.746667 30.933333a27.52 27.52 0 0 1-31.786666 2.346667 231.68 231.68 0 0 0-68.053334-27.52 27.52 27.52 0 0 1-21.333333-22.826667l-7.253333-50.986667H484.053333l-7.04 51.626667a27.306667 27.306667 0 0 1-21.333333 22.826667 231.253333 231.253333 0 0 0-64 26.666666 27.52 27.52 0 0 1-34.133333 0l-41.173334-30.933333c-5.333333 4.693333-11.52 10.24-17.493333 16.426667l-2.986667 2.986666c-5.973333 5.973333-11.733333 12.16-16.426666 17.493334l30.72 40.32a27.306667 27.306667 0 0 1 2.56 31.786666 230.613333 230.613333 0 0 0-26.88 64 27.306667 27.306667 0 0 1-23.253334 23.253334l-51.413333 10.666666v23.893334zM512 544.64A160 160 0 1 1 672 384a160 160 0 0 1-160 160.64z m0-256A96 96 0 1 0 608 384a96 96 0 0 0-96-95.36z"  horiz-adv-x="1024" />

    
    <glyph glyph-name="kuaiguan-kai" unicode="&#58901;" d="M102.4 383.1808c0 113.2544 91.7504 205.0048 205.1072 205.0048h410.0096c113.2544 0 205.1072-91.7504 205.1072-205.0048C922.624 270.0288 830.8736 178.176 717.5168 178.176H307.5072C194.2528 178.176 102.4 269.9264 102.4 383.1808zM698.718644 252.729498a130.4576 130.4576 0 1 1 0.519136 260.914684 130.4576 130.4576 0 1 1-0.519136-260.914684ZM433.9712 455.9872c-2.4576 2.3552-6.4512 2.3552-8.9088 0l-86.528-83.1488-36.7616 35.328c-2.4576 2.3552-6.4512 2.3552-8.9088 0l-20.7872-19.968c-2.4576-2.3552-2.4576-6.144 0-8.6016l62.0544-59.5968c1.2288-1.2288 2.8672-1.7408 4.4032-1.7408 1.6384 0 3.1744 0.6144 4.4032 1.7408l111.8208 107.4176c1.2288 1.1264 1.8432 2.6624 1.8432 4.3008s-0.6144 3.1744-1.8432 4.3008l-20.7872 19.968z"  horiz-adv-x="1024" />

    
    <glyph glyph-name="kaiguan-kai-jinyong" unicode="&#58902;" d="M102.4 383.1808c0 113.2544 91.7504 205.0048 205.1072 205.0048h410.0096c113.2544 0 205.1072-91.7504 205.1072-205.0048C922.624 270.0288 830.8736 178.176 717.5168 178.176H307.5072C194.2528 178.176 102.4 269.9264 102.4 383.1808zM698.718644 252.729498a130.4576 130.4576 0 1 1 0.519136 260.914684 130.4576 130.4576 0 1 1-0.519136-260.914684ZM433.9712 455.9872c-2.4576 2.3552-6.4512 2.3552-8.9088 0l-86.528-83.1488-36.7616 35.328c-2.4576 2.3552-6.4512 2.3552-8.9088 0l-20.7872-19.968c-2.4576-2.3552-2.4576-6.144 0-8.6016l62.0544-59.5968c1.2288-1.2288 2.8672-1.7408 4.4032-1.7408 1.6384 0 3.1744 0.6144 4.4032 1.7408l111.8208 107.4176c1.2288 1.1264 1.8432 2.6624 1.8432 4.3008s-0.6144 3.1744-1.8432 4.3008l-20.7872 19.968z"  horiz-adv-x="1024" />

    
    <glyph glyph-name="kaiguan-guan2" unicode="&#58903;" d="M102.4 383.1808C102.4 496.2304 193.8432 587.776 306.9952 587.776h408.9856C828.928 587.776 920.576 496.2304 920.576 383.1808c0-112.9472-91.4432-204.5952-204.5952-204.5952H306.9952C194.048 178.688 102.4 270.2336 102.4 383.1808zM325.5296 383.1808m-130.1504 0a130.1504 130.1504 0 1 1 260.3008 0 130.1504 130.1504 0 1 1-260.3008 0ZM678.8096 404.6848l44.2368 44.2368c5.9392 5.9392 15.5648 5.9392 21.504 0 5.9392-5.9392 5.9392-15.5648 0-21.504l-44.2368-44.2368 44.2368-44.2368c5.9392-5.9392 5.9392-15.5648 0-21.504-5.9392-5.9392-15.5648-5.9392-21.504 0l-44.2368 44.2368-44.2368-44.2368c-5.9392-5.9392-15.5648-5.9392-21.504 0-5.9392 5.9392-5.9392 15.5648 0 21.504l44.2368 44.2368-44.2368 44.2368c-5.9392 5.9392-5.9392 15.5648 0 21.504 5.9392 5.9392 15.5648 5.9392 21.504 0l44.2368-44.2368z"  horiz-adv-x="1024" />

    
    <glyph glyph-name="kaiguan-guan-jinyong" unicode="&#58904;" d="M103.424 390.3488C103.424 503.3984 194.8672 594.944 308.0192 594.944h408.9856C829.952 594.944 921.6 503.3984 921.6 390.3488c0-112.9472-91.4432-204.5952-204.5952-204.5952H308.0192C195.072 185.856 103.424 277.4016 103.424 390.3488zM326.5536 390.3488m-130.1504 0a130.1504 130.1504 0 1 1 260.3008 0 130.1504 130.1504 0 1 1-260.3008 0ZM679.8336 411.8528l44.2368 44.2368c5.9392 5.9392 15.5648 5.9392 21.504 0 5.9392-5.9392 5.9392-15.5648 0-21.504l-44.2368-44.2368 44.2368-44.2368c5.9392-5.9392 5.9392-15.5648 0-21.504-5.9392-5.9392-15.5648-5.9392-21.504 0l-44.2368 44.2368-44.2368-44.2368c-5.9392-5.9392-15.5648-5.9392-21.504 0-5.9392 5.9392-5.9392 15.5648 0 21.504l44.2368 44.2368-44.2368 44.2368c-5.9392 5.9392-5.9392 15.5648 0 21.504 5.9392 5.9392 15.5648 5.9392 21.504 0l44.2368-44.2368z"  horiz-adv-x="1024" />

    
    <glyph glyph-name="shituqiehuan" unicode="&#58906;" d="M128.213333 767.786667m21.333334 0l85.333333 0q21.333333 0 21.333333-21.333334l0-85.973333q0-21.333333-21.333333-21.333333l-85.333333 0q-21.333333 0-21.333334 21.333333l0 85.973333q0 21.333333 21.333334 21.333334ZM341.333333 767.573333m21.333334 0l512.213333 0q21.333333 0 21.333333-21.333333l0-85.333333q0-21.333333-21.333333-21.333334l-512.213333 0q-21.333333 0-21.333334 21.333334l0 85.333333q0 21.333333 21.333334 21.333333ZM128.213333 448.213333m21.333334 0l85.333333 0q21.333333 0 21.333333-21.333333l0-85.973333q0-21.333333-21.333333-21.333334l-85.333333 0q-21.333333 0-21.333334 21.333334l0 85.973333q0 21.333333 21.333334 21.333333ZM341.333333 448m21.333334 0l512.213333 0q21.333333 0 21.333333-21.333333l0-85.333334q0-21.333333-21.333333-21.333333l-512.213333 0q-21.333333 0-21.333334 21.333333l0 85.333334q0 21.333333 21.333334 21.333333ZM128.213333 128.42666699999995m21.333334 0l85.333333 0q21.333333 0 21.333333-21.333334l0-85.973333q0-21.333333-21.333333-21.333333l-85.333333 0q-21.333333 0-21.333334 21.333333l0 85.973333q0 21.333333 21.333334 21.333334ZM341.333333 128.21333300000003m21.333334 0l512.213333 0q21.333333 0 21.333333-21.333333l0-85.333333q0-21.333333-21.333333-21.333334l-512.213333 0q-21.333333 0-21.333334 21.333334l0 85.333333q0 21.333333 21.333334 21.333333Z"  horiz-adv-x="1024" />

    
    <glyph glyph-name="bangzhutishi" unicode="&#59165;" d="M512 832C265.6 832 64 630.4 64 384s201.6-448 448-448 448 201.6 448 448S758.4 832 512 832z m0-848C291.2-16 112 163.2 112 384S291.2 784 512 784 912 604.8 912 384 732.8-16 512-16zM508.8 166.4m-48 0a48 48 0 1 1 96 0 48 48 0 1 1-96 0ZM518.4 649.6c-121.6 0-166.4-73.6-176-112-3.2-22.4 9.6-41.6 32-48 22.4-3.2 41.6 9.6 48 32 0 0 12.8 48 96 48 70.4 0 80-44.8 80-54.4 0-44.8-6.4-54.4-73.6-92.8-51.2-32-70.4-67.2-67.2-131.2 0-22.4 19.2-38.4 38.4-38.4h3.2c22.4 3.2 38.4 22.4 38.4 41.6-3.2 32 3.2 41.6 28.8 54.4 70.4 41.6 112 70.4 112 163.2 0 51.2-35.2 137.6-160 137.6z"  horiz-adv-x="1024" />

    
    <glyph glyph-name="loucengsuolvetu" unicode="&#58908;" d="M559.616 384c0 23.04-16.384 42.2912-38.0928 46.6944V699.2896c21.7088 4.4032 38.0928 23.6544 38.0928 46.6944 0 26.3168-21.2992 47.616-47.616 47.616s-47.616-21.2992-47.616-47.616c0-23.04 16.384-42.2912 38.0928-46.6944v-268.5952c-21.7088-4.4032-38.0928-23.6544-38.0928-46.6944s16.384-42.2912 38.0928-46.6944v-268.5952c-21.7088-4.4032-38.0928-23.6544-38.0928-46.6944 0-26.3168 21.2992-47.616 47.616-47.616s47.616 21.2992 47.616 47.616c0 23.04-16.384 42.2912-38.0928 46.6944V337.3056c21.7088 4.4032 38.0928 23.6544 38.0928 46.6944z"  horiz-adv-x="1024" />

    
    <glyph glyph-name="loucengtubiao" unicode="&#58909;" d="M513.706667 674.56l181.12-81.28L513.92 512l-181.973333 81.28 181.76 81.28m0 94.933333L128 593.28l384-176.213333 384 176.213333-384 176.213333zM513.706667 211.41333299999997L153.6 387.84A42.666667 42.666667 0 1 0 192 464.426667l322.56-158.08 322.56 157.44A42.666667 42.666667 0 0 0 874.666667 387.2zM513.706667 2.5599999999999454L154.026667 175.78666699999997A42.666667 42.666667 0 0 0 192 252.58666700000003l322.773333-155.52 322.773334 155.52a42.666667 42.666667 0 0 0 37.12-76.8z"  horiz-adv-x="1024" />

    
    <glyph glyph-name="shangyiye" unicode="&#58910;" d="M281.6 725.333333m23.04 0l45.013333 0q23.04 0 23.04-23.04l0-636.586666q0-23.04-23.04-23.04l-45.013333 0q-23.04 0-23.04 23.04l0 636.586666q0 23.04 23.04 23.04ZM735.573333 593.493333L704 625.066667a23.04 23.04 0 0 1-32.64 0l-177.066667-177.066667-48-48a23.04 23.04 0 0 1 0-32.64L494.293333 320l176.853334-176.853333a23.04 23.04 0 0 1 32.64 0l31.786666 31.786666a23.04 23.04 0 0 1 0 32.64L558.72 384l176.853333 176.853333a23.04 23.04 0 0 1 0 32.64z"  horiz-adv-x="1024" />

    
    <glyph glyph-name="xiayiye" unicode="&#58911;" d="M651.306667 725.333333m23.04 0l45.013333 0q23.04 0 23.04-23.04l0-636.586666q0-23.04-23.04-23.04l-45.013333 0q-23.04 0-23.04 23.04l0 636.586666q0 23.04 23.04 23.04ZM288.426667 174.506667L320 142.93333299999995a23.04 23.04 0 0 1 32.64 0l176.853333 177.066667 48 48a23.04 23.04 0 0 1 0 32.64L529.493333 448l-176.64 177.066667a23.04 23.04 0 0 1-32.64 0l-31.786666-31.786667a23.04 23.04 0 0 1 0-32.64L465.28 384l-176.853333-176.853333a23.04 23.04 0 0 1 0-32.64z"  horiz-adv-x="1024" />

    
    <glyph glyph-name="wenku" unicode="&#59054;" d="M32.278261 229.286957l607.721739-349.495653c13.356522-7.791304 31.165217-7.791304 44.521739 0l607.721739 349.495653c21.147826 12.243478 28.93913 38.956522 16.695652 61.217391-4.452174 6.678261-10.017391 12.243478-16.695652 16.695652L684.521739 654.469565c-13.356522 7.791304-30.052174 7.791304-44.521739 0L32.278261 306.086957C11.130435 293.843478 3.33913 267.130435 15.582609 244.869565c4.452174-5.565217 10.017391-11.130435 16.695652-15.582608zM1064.069565 293.843478l-405.147826-244.869565-438.53913 256 253.773913 148.034783c138.017391 37.843478 207.026087 55.652174 210.365217 55.652174 2.226087 0 128-72.347826 379.547826-214.817392zM624.417391 231.513043v-145.808695l380.66087 218.156522V449.669565zM243.756522 449.669565v-145.808695l380.660869-218.156522V231.513043zM1005.078261 449.669565L624.417391 668.93913 243.756522 449.669565l380.660869-218.156522zM912.695652 501.982609L555.408696 284.93913 301.634783 421.843478l253.773913 148.034783c92.382609 37.843478 140.243478 56.765217 142.469565 55.652174 2.226087 0 74.573913-41.182609 214.817391-123.547826zM535.373913 357.286957v-57.878261l353.947826 202.573913v57.878261zM686.747826 676.730435l201.46087-116.869565-352.834783-202.573913L333.913043 473.043478zM333.913043 415.165217V473.043478l201.46087-115.756521v-57.878261zM333.913043 415.165217v3.339131l201.46087-114.643478v-4.452174zM333.913043 469.704348V473.043478l201.46087-115.756521v-4.452174zM533.147826 357.286957v-56.765218l2.226087-1.113043v57.878261zM505.321739 370.643478l-2.226087 4.452174L857.043478 578.782609l4.452174-3.339131zM785.953391 759.240348l-200.347826 123.547826C557.779478 898.370783 524.388174 898.370783 496.562087 882.788174 487.657739 878.336 483.205565 869.431652 483.205565 859.414261v-3.339131c0-3.33913 3.33913-10.017391 14.469565-18.921739 17.808696-13.356522 210.365217-122.434783 210.365218-122.434782l2.226087-303.86087 77.913043 45.634783-2.226087 302.747826zM497.352348 837.153391c-11.130435 8.904348-13.356522 15.582609-14.469565 20.034783v-313.878261l227.060869-132.452174-2.226087 303.86087s-192.556522 109.078261-210.365217 122.434782M586.395826 882.788174c-27.826087 15.582609-61.217391 15.582609-89.043478 0-7.791304-4.452174-13.356522-13.356522-13.356522-22.26087v-3.33913c1.113043-3.33913 3.33913-11.130435 14.469565-20.034783 15.582609-12.243478 175.86087-103.513043 209.252174-122.434782l75.686957 43.408695-1.113044 1.113044-195.895652 123.547826zM565.248 709.153391l-35.617391 20.034783c2.226087-20.034783 8.904348-37.843478 17.808695-55.652174 8.904348 6.678261 15.582609 18.921739 17.808696 35.617391z m-57.878261 42.295652l40.069565-23.373913c-3.33913 8.904348-5.565217 15.582609-6.678261 18.92174h6.678261c1.113043-4.452174 3.33913-11.130435 6.678261-20.034783h-5.565217l38.956522-22.26087v-7.791304l-15.582609 8.904348c-3.33913-18.921739-8.904348-32.278261-18.921739-40.069565 7.791304-11.130435 18.921739-24.486957 35.617391-40.069566-2.226087-2.226087-4.452174-4.452174-5.565217-6.67826-15.582609 16.695652-27.826087 30.052174-34.504348 42.295652-7.791304-3.33913-20.034783-4.452174-35.617391-3.339131-1.113043 3.33913-3.33913 7.791304-5.565218 11.130435 15.582609-3.33913 27.826087-2.226087 35.617391 1.113044-10.017391 20.034783-16.695652 41.182609-18.921739 62.330434l-15.582608 8.904348v10.017391zM608.656696 631.240348l32.278261-17.808696v12.243478l-25.6 14.469566v7.791304c3.33913 4.452174 5.565217 8.904348 7.791304 13.356522l-12.243478 6.678261v7.791304l15.582608-8.904348c1.113043 3.33913 2.226087 6.678261 4.452174 10.017391l6.678261-6.67826c-1.113043-2.226087-2.226087-5.565217-3.33913-7.791305l36.730434-21.147826v-6.678261l-40.069565 22.26087c-2.226087-5.565217-5.565217-10.017391-7.791304-13.356522l17.808696-10.017391v14.469565l6.67826-3.33913v-14.469566l23.373913-13.356521v-7.791305l-23.373913 13.356522v-12.243478l26.713044-15.582609v-7.791304l-27.826087 14.469565v-20.034783l-6.678261 3.339131v20.034782l-31.165217 18.921739v7.791305z m22.260869 64.556522l5.565218 2.226087c2.226087-4.452174 5.565217-10.017391 7.791304-15.582609l-3.33913-1.113044 34.504347-20.034782v-7.791305l-67.895652 38.956522v-31.165217c0-25.6-3.33913-42.295652-11.130435-51.2-1.113043 3.33913-3.33913 6.678261-4.452174 10.017391 5.565217 6.678261 8.904348 21.147826 8.904348 43.408696v41.182608l36.730435-21.147826c-3.33913 3.33913-5.565217 7.791304-6.678261 12.243479zM529.630609 622.336v-72.347826l125.773913-73.46087v73.46087zM1167.404522 228.318609c0-16.695652-27.826087-31.165217-62.330435-31.165218-34.504348 0-62.330435 14.469565-62.330435 31.165218 0 16.695652 27.826087 31.165217 62.330435 31.165217 35.617391 0 62.330435-14.469565 62.330435-31.165217M1142.917565 282.857739h-85.704348l11.130435-53.426087c1.113043-7.791304 14.469565-14.469565 31.165218-14.469565 15.582609 0 27.826087 5.565217 31.165217 13.356522l12.243478 54.53913zM1099.50887 325.153391c-26.713043 0-48.973913-11.130435-48.973913-24.486956v-14.469565c0-13.356522 22.26087-23.373913 48.973913-23.373913 26.713043 0 48.973913 11.130435 48.973913 24.486956v15.582609c0 12.243478-22.26087 22.26087-48.973913 22.260869M1120.656696 439.79687c-2.226087 10.017391-11.130435 17.808696-21.147826 16.695652-7.791304-1.113043-14.469565-5.565217-12.243479-20.034783 3.33913-32.278261 1.113043-50.086957 2.226087-56.765217 1.113043-6.678261-3.33913-32.278261-7.791304-42.295652-4.452174-10.017391-31.165217-22.26087-15.582609-38.956522 15.582609-15.582609 38.956522-13.356522 47.86087-7.791305 8.904348 5.565217 23.373913 8.904348 22.260869 14.469566-1.113043 5.565217 0 20.034783-1.113043 23.373913 0 3.33913 3.33913 12.243478 7.791304 16.695652 4.452174 3.33913 6.678261 17.808696 6.678261 24.486956 0 6.678261-7.791304 23.373913-13.356522 30.052174-4.452174 5.565217-12.243478 24.486957-15.582608 40.069566M192.378435 269.501217c0-15.582609-25.6-27.826087-55.652174-27.826087-31.165217 0-55.652174 12.243478-55.652174 27.826087s25.6 27.826087 55.652174 27.826087c30.052174 1.113043 55.652174-12.243478 55.652174-27.826087M140.065391 265.049043l-22.260869 13.356522v50.086957h44.521739v-50.086957zM140.065391 265.049043l-22.260869 13.356522v53.426087l23.373913-10.017391zM140.065391 543.309913v-227.06087l-87.930434 51.2zM140.065391 543.309913v-227.06087l87.930435 50.086957zM71.056696 406.405565l69.008695-40.069565 67.895652 38.956522 10.017392-18.921739-77.913044-45.634783-77.913043 45.634783z"  horiz-adv-x="1324" />

    
    <glyph glyph-name="toupiao" unicode="&#59055;" d="M103.434343 147.135354L564.751515-117.656566c12.412121-7.240404 28.961616-7.240404 41.373738 0l461.317171 264.79192c19.652525 11.377778 26.892929 36.20202 15.515152 56.888888-4.137374 6.206061-9.309091 11.377778-15.515152 15.515152L606.125253 483.29697c-12.412121 7.240404-27.927273 7.240404-41.373738 0L103.434343 218.505051C83.781818 207.127273 76.541414 182.30303 87.919192 161.616162c4.137374-5.171717 9.309091-10.343434 15.515151-14.480808zM868.848485 314.69899L387.878788 38.529293l-148.945455 85.850505 477.866667 274.10101zM631.983838 230.917172L351.676768 69.559596V712.921212L631.983838 874.278788zM351.676768 712.921212l-39.305051 23.789899v-644.395959l39.305051-22.755556zM610.262626 815.321212L392.016162 690.165657v-551.305051l221.349495 127.224242zM493.381818 184.371717v-16.549495l27.927273 16.549495v16.549495zM432.355556 621.89899v-92.056566l160.323232 92.056566v92.056566l-80.678788-46.545455zM432.355556 483.29697v-92.056566l160.323232 92.056566V575.353535zM496.484848 658.10101l-64.129292-36.20202v-92.056566l64.129292 36.20202zM496.484848 520.533333l-64.129292-37.236363v-92.056566l64.129292 37.236364zM593.713131 896L312.371717 736.711111l39.305051-23.789899L631.983838 874.278788zM781.963636 778.084848V627.070707l174.804041-100.331313V677.753535zM123.086869 671.547475v-113.777778l148.945454 85.850505v113.777778zM197.559596 487.434343V658.10101L0 544.323232v-170.666666zM868.848485 193.680808L530.618182 0.258586l-67.232323 39.30505 334.092929 191.353536zM585.438384 151.272727l-49.648485-28.961616v-113.777778l49.648485 28.961616zM486.141414 151.272727l49.648485-28.961616v-113.777778L487.175758 37.494949zM486.141414 151.272727l49.648485 27.927273 49.648485-27.927273-49.648485-28.961616zM684.735354 404.686869l-49.648485-27.927273v-311.337374l49.648485 28.961616zM585.438384 404.686869l49.648485-27.927273v-311.337374l-48.614142 27.927273zM585.438384 404.686869l49.648485 28.961616 49.648485-28.961616-49.648485-27.927273zM782.99798 363.313131L734.383838 335.385859v-213.074748l48.614142 28.961616zM684.735354 363.313131l49.648484-27.927272v-213.074748L685.769697 151.272727zM684.735354 363.313131l49.648484 28.961616 48.614142-28.961616-48.614142-27.927272z"  horiz-adv-x="1096" />

    
    <glyph glyph-name="rizhi" unicode="&#59056;" d="M23.52254 201.099701l546.561342-315.144943c13.954758-8.140275 32.561101-8.140275 46.515858 0l546.561342 315.144943c22.095033 12.791861 30.235308 41.864273 17.443447 63.959306-4.651586 6.977379-10.466068 12.791861-17.443447 17.443447l-546.561342 313.982047c-13.954758 8.140275-32.561101 8.140275-46.515858 0l-546.561342-313.982047C1.427507 269.710593-6.712768 241.801078 6.079093 218.543148c4.651586-8.140275 10.466068-13.954758 17.443447-17.443447zM1055.01171 140.629085l-95.357511-54.656134-373.289767 213.97295 100.009097 53.493238zM358.436724 239.475285l-116.289647-67.447996-59.30772 32.561102 117.452543 68.610891zM822.432416 140.629085l-290.724118-167.457092-290.724118 167.457092 290.724118 167.457092zM801.500279 864.822862c5.814482 3.488689 15.117654-3.488689 22.095033-13.954758 5.814482-10.466068 6.977379-22.095033 1.162897-25.583722-5.814482-3.488689-15.117654 3.488689-20.932137 13.954758-8.140275 10.466068-8.140275 22.095033-2.325793 25.583722m130.244405-106.986475l-81.402753 54.656134c1.162896 12.791861-3.488689 30.235308-12.791861 46.515859-15.117654 26.746619-39.53848 43.027169-52.330341 34.886894-9.303172-5.814482-11.628965-22.095033-5.814483-41.864273l-60.470616 27.909515c-8.140275 4.651586-17.443447-1.162896-17.443447-10.466068v-61.633513l237.23088-129.081508v67.447995c-1.162896 5.814482-3.488689 9.303172-6.977379 11.628965M635.206084 849.705208l-1.162897-552.375824c0-5.814482 3.488689-11.628965 9.303172-15.117654l313.982047-181.411849c11.628965-6.977379 25.583722 1.162896 25.583723 15.117654v559.353202c0 8.140275-4.651586 15.117654-11.628965 19.76924l-302.353082 174.434471c-13.954758 9.303172-33.723998-2.325793-33.723998-19.76924M948.025235 676.433634l-275.606464 159.316816 1.162896-538.421066 274.443568-158.15392zM791.034211 860.171276c5.814482 3.488689 15.117654-3.488689 22.095033-13.954758 5.814482-11.628965 6.977379-22.095033 1.162896-25.583722-5.814482-3.488689-15.117654 3.488689-22.095033 13.954758-6.977379 11.628965-6.977379 22.095033-1.162896 25.583722m130.244405-106.986475l-81.402753 54.656134c1.162896 12.791861-3.488689 30.235308-12.791861 46.515859-15.117654 26.746619-39.53848 43.027169-52.330342 34.886894-10.466068-5.814482-12.791861-22.095033-6.977378-40.701377l-60.470617 27.909516c-8.140275 4.651586-17.443447-1.162896-17.443447-10.466069v-61.633513l237.23088-129.081508v68.610892c0 3.488689-2.325793 8.140275-5.814482 9.303172M335.178794 599.682467l-4.651585-12.791862s-39.53848-3.488689-40.701377-3.488689l-31.398205 8.140275-5.814482 20.932137-6.977379 17.443447c16.280551 6.977379 39.53848 3.488689 51.167445-3.48869 9.303172-5.814482 38.375584-26.746619 38.375583-26.746618M110.739776 320.587314s-45.352962 17.443447-54.656134 23.257929c-2.325793 1.162896-4.651586 3.488689-6.977379 5.814482-17.443447 16.280551-29.072412 44.190066-29.072412 82.56565 0 82.565649 50.004548 176.760264 111.638061 212.810054 22.095033 12.791861 44.190066 18.606344 60.470617 10.466068 10.466068-4.651586 60.470616-34.886894 60.470616-34.886894M109.576879 318.261521l2.325793 5.814482s-45.352962 17.443447-54.656134 23.257929c-2.325793 1.162896-4.651586 2.325793-6.977379 4.651586-17.443447 16.280551-26.746619 45.352962-26.746619 81.402753 0 81.402753 48.841652 175.597367 109.312269 210.484261 16.280551 9.303172 39.53848 18.606344 58.144823 10.466069 9.303172-4.651586 59.30772-33.723998 60.470617-34.886894l-2.325793 10.466068c-2.325793 1.162896-45.352962 24.420826-55.819031 29.072412-16.280551 6.977379-38.375584 3.488689-63.959306-11.628965-62.796409-36.049791-112.800958-132.570198-112.800958-215.135847 0-38.375584 10.466068-68.610892 30.235309-84.891443 2.325793-2.325793 4.651586-4.651586 6.977379-5.814482 9.303172-5.814482 53.493238-23.257929 55.81903-23.257929M175.861978 624.103292c45.352962 26.746619 84.891442 12.791861 102.334889-30.235308 2.325793 1.162896 4.651586 3.488689 6.977379 4.651586 43.027169 24.420826 77.914064-1.162896 77.914064-59.30772 0-56.981927-34.886894-124.429922-77.914064-148.850748-18.606344-10.466068-87.217235-50.004548-109.312268-62.79641-61.633513-36.049791-111.638061 2.325793-111.638061 83.728546s50.004548 177.92316 111.638061 212.810054M520.079333 485.718612v-403.525075l-175.597367 101.171993-2.325793 404.687972zM696.839597 117.080431l-176.760264-102.334889v67.447995l176.760264 102.33489zM520.079333 15.908438v66.285099l-174.43447 101.171993v-66.285099zM696.839597 184.528427l-2.325793 401.199282-174.434471-100.009097v-403.525075zM694.513804 585.727709l-174.434471 169.782885v-269.791982zM342.156173 588.053502l177.92316 167.457092v-269.791982zM563.106503 712.483424l-43.02717 43.02717v-67.447996zM520.079333 688.062598v67.447996l-44.190066-41.864273c23.257929-15.117654 44.190066-26.746619 44.190066-25.583723z"  horiz-adv-x="1187" />

    
    <glyph glyph-name="xinzifafang" unicode="&#59057;" d="M23.014286 253.155556l639.431111-370.915556c13.653333-7.964444 31.857778-7.964444 45.511111 0l639.431112 370.915556c21.617778 12.515556 29.582222 40.96 17.066666 62.577777-3.413333 6.826667-10.24 12.515556-17.066666 17.066667L707.956508 702.577778c-13.653333 7.964444-31.857778 7.964444-45.511111 0L23.014286 331.662222C1.396508 319.146667-6.567936 290.702222 5.94762 269.084444c4.551111-6.826667 10.24-12.515556 17.066666-15.928888zM481.481842 472.541867c0-22.755556-37.546667-42.097778-83.057778-42.097778s-83.057778 19.342222-83.057778 42.097778 37.546667 42.097778 83.057778 42.097777 83.057778-19.342222 83.057778-42.097777M1226.726286 331.457422l-257.137778-149.048889-450.56 260.551111 257.137778 150.186667zM484.895175 78.870756c-47.786667 0-86.471111 19.342222-86.471111 43.235555s38.684444 43.235556 86.471111 43.235556c47.786667 0 86.471111-19.342222 86.471111-43.235556s-38.684444-43.235556-86.471111-43.235555zM1149.357397 621.590756l-174.08-101.262223v-323.128889l175.217778 101.262223zM557.712953 762.6752l417.564444-242.346667v-321.991111l-417.564444 241.208889zM557.712953 762.6752l175.217778 100.124444 416.426666-241.208888-172.942222-101.262223zM631.668508 787.706311l186.595556 106.951111s58.026667-116.053333 111.502222-145.635555c78.506667-43.235556 220.728889-128.568889 220.728889-128.568889l-174.08-101.262222s-161.564444 92.16-220.728889 127.431111c-86.471111 53.475556-124.017778 141.084444-124.017778 141.084444M557.712953 681.892978v-40.96l417.564444-241.208889 174.08 100.124444v40.96l-174.08-101.262222zM557.712953 562.426311v-39.822222l417.564444-242.346667 174.08 101.262222v39.822223l-174.08-100.124445zM940.006286 684.168533c0-15.928889-26.168889-28.444444-56.888889-28.444444-31.857778 0-56.888889 12.515556-56.888889 28.444444s26.168889 28.444444 56.888889 28.444445 56.888889-12.515556 56.888889-28.444445M975.277397 477.092978l-417.564444 242.346666v5.688889l417.564444-241.208889 174.08 101.262223v-7.964445zM975.277397 358.764089l-417.564444 241.208889v6.826666l417.564444-242.346666 174.08 101.262222v-6.826667zM975.277397 232.470756l-417.564444 242.346666v5.688889l417.564444-241.208889 174.08 101.262222v-7.964444zM772.752953 837.768533c-2.275556 2.275556-4.551111 4.551111-5.688889 7.964445l-58.026667-35.271111c2.275556-2.275556 3.413333-5.688889 4.551111-9.102223l59.164445 36.408889zM776.166286 663.688533c-36.408889 21.617778-65.991111 54.613333-84.195555 79.644445-2.275556-2.275556-5.688889-4.551111-7.964445-5.688889 19.342222-26.168889 48.924444-59.164444 87.608889-81.92 40.96-23.893333 110.364444-63.715556 154.737778-89.884445 3.413333 2.275556 6.826667 3.413333 10.24 5.688889-44.373333 25.031111-118.328889 67.128889-160.426667 92.16M901.321842 737.644089c50.062222-29.582222 118.328889-70.542222 161.564444-95.573333 3.413333 2.275556 6.826667 3.413333 11.377778 4.551111-42.097778 25.031111-116.053333 68.266667-168.391111 98.986666-23.893333 13.653333-51.2 53.475556-68.266667 84.195556-3.413333-1.137778-5.688889-2.275556-9.102222-3.413333 18.204444-31.857778 46.648889-73.955556 72.817778-88.746667M1008.272953 570.390756c3.413333-1.137778 6.826667-3.413333 10.24-5.688889l55.751111 31.857777c-4.551111 1.137778-7.964444 2.275556-11.377778 4.551112l-54.613333-30.72zM1045.81962 621.590756c0-7.964444 5.688889-14.791111 15.928888-19.342223l34.133334 20.48c-6.826667 4.551111-19.342222 11.377778-32.995556 19.342223-10.24-5.688889-17.066667-12.515556-17.066666-20.48M1108.397397 626.141867s-13.653333 7.964444-34.133333 20.48c-4.551111-1.137778-7.964444-2.275556-11.377778-4.551111 14.791111-9.102222 26.168889-15.928889 34.133334-19.342223l-34.133334-20.48c3.413333-2.275556 6.826667-3.413333 11.377778-4.551111l42.097778 25.031111-7.964445 3.413334zM936.592953 570.390756c17.066667-10.24 30.72-17.066667 36.408889-20.48l35.271111 20.48c-10.24 3.413333-21.617778 5.688889-35.271111 5.688888-13.653333 1.137778-26.168889-2.275556-36.408889-5.688888M973.001842 549.910756c-5.688889 3.413333-18.204444 10.24-36.408889 20.48-3.413333-1.137778-6.826667-3.413333-10.24-5.688889 25.031111-14.791111 43.235556-25.031111 43.235555-25.031111l2.275556-1.137778 45.511111 26.168889c-3.413333 2.275556-6.826667 3.413333-10.24 5.688889l-34.133333-20.48zM828.504064 826.390756c-7.964444 14.791111-14.791111 26.168889-18.204444 32.995555l-37.546667-22.755555c9.102222-7.964444 22.755556-13.653333 37.546667-13.653334 5.688889 1.137778 12.515556 2.275556 18.204444 3.413334M810.29962 859.386311c3.413333-6.826667 9.102222-18.204444 18.204444-32.995555 3.413333 1.137778 6.826667 2.275556 9.102222 3.413333-12.515556 21.617778-20.48 38.684444-21.617778 38.684444l-2.275555 4.551111-47.786667-28.444444c1.137778-2.275556 3.413333-5.688889 5.688889-7.964444l38.684445 22.755555zM705.624064 759.261867c7.964444 14.791111 10.24 29.582222 6.826667 42.097777l-43.235556-26.168888c3.413333-5.688889 11.377778-18.204444 22.755556-32.995556 4.551111 4.551111 9.102222 10.24 13.653333 17.066667M669.215175 775.190756l43.235556 26.168888c-1.137778 3.413333-2.275556 5.688889-4.551111 9.102223l-52.337778-30.72 2.275555-4.551111c1.137778-1.137778 9.102222-17.066667 25.031111-37.546667 2.275556 1.137778 5.688889 3.413333 7.964445 5.688889-10.24 13.653333-18.204444 26.168889-21.617778 31.857778M478.068508 791.119644l-3.413333-9.102222-29.582222-2.275555-22.755556 5.688889-4.551111 14.791111-4.551111 12.515555c11.377778 4.551111 29.582222 3.413333 37.546667-2.275555 6.826667-3.413333 27.306667-19.342222 27.306666-19.342223M314.228508 587.457422s-32.995556 13.653333-39.822222 17.066667c-2.275556 1.137778-3.413333 2.275556-4.551111 3.413333-13.653333 11.377778-21.617778 32.995556-21.617778 61.44 0 60.302222 36.408889 129.706667 81.92 155.875556 15.928889 9.102222 31.857778 13.653333 44.373334 7.964444 6.826667-3.413333 44.373333-25.031111 44.373333-25.031111M314.228508 585.181867l1.137778 4.551111s-32.995556 13.653333-39.822222 17.066666c-1.137778 0-3.413333 1.137778-4.551111 3.413334-13.653333 11.377778-20.48 32.995556-20.48 59.164444 0 59.164444 36.408889 128.568889 80.782222 153.6 12.515556 6.826667 29.582222 13.653333 42.097778 7.964445 6.826667-3.413333 43.235556-25.031111 44.373333-25.031111l-1.137778 7.964444c-1.137778 1.137778-32.995556 18.204444-40.96 21.617778-12.515556 5.688889-28.444444 2.275556-46.648888-7.964445-45.511111-26.168889-83.057778-97.848889-83.057778-158.151111 0-27.306667 7.964444-50.062222 21.617778-62.577778 2.275556-2.275556 3.413333-3.413333 5.688888-4.551111 6.826667-4.551111 38.684444-17.066667 40.96-17.066666M362.015175 809.324089c32.995556 19.342222 62.577778 9.102222 75.093333-22.755556 1.137778 1.137778 3.413333 2.275556 4.551112 3.413334 31.857778 18.204444 56.888889-1.137778 56.888888-43.235556 0-42.097778-25.031111-91.022222-56.888888-109.226667-13.653333-7.964444-63.715556-36.408889-79.644445-46.648888-45.511111-26.168889-81.92 1.137778-81.92 61.44 1.137778 61.44 37.546667 130.844444 81.92 157.013333M1251.757397 296.186311c0-9.102222-13.653333-15.928889-30.72-15.928889-17.066667 0-30.72 6.826667-30.72 15.928889 0 9.102222 13.653333 15.928889 30.72 15.928889 17.066667 0 30.72-7.964444 30.72-15.928889M1223.312953 293.910756l-12.515556 6.826666v28.444445h25.031111v-28.444445zM1223.312953 293.910756l-12.515556 6.826666v29.582222l12.515556-4.551111zM1223.312953 449.786311v-127.431111l-48.924445 28.444444zM1223.312953 449.786311v-127.431111l48.924444 28.444444zM1184.628508 372.417422l38.684445-22.755555 37.546667 22.755555 5.688888-11.377778-43.235555-25.031111-43.235556 25.031111zM458.726286 152.826311l-2.275555-11.377778s5.688889-10.24 10.24-6.826666c4.551111 3.413333 5.688889 7.964444 4.551111 9.102222 0 1.137778-1.137778 10.24-1.137778 10.24l-11.377778-1.137778zM475.792953 164.204089s7.964444 0 7.964444-1.137778c1.137778-1.137778 2.275556-2.275556 2.275556-4.551111s0-5.688889-1.137778-7.964444-1.137778-4.551111-6.826667-10.24c-4.551111-5.688889-4.551111-13.653333-7.964444-14.791112-3.413333-1.137778-17.066667-2.275556-17.066667 1.137778-1.137778 3.413333 1.137778 12.515556 2.275556 14.791111 1.137778 2.275556 1.137778 4.551111 3.413333 2.275556 2.275556-2.275556 3.413333-7.964444 7.964445-5.688889s6.826667 12.515556 5.688889 17.066667M493.997397 131.208533v-15.928889s10.24-4.551111 13.653334-2.275555 6.826667 6.826667 5.688889 7.964444c-1.137778 1.137778-2.275556 11.377778-2.275556 11.377778l-17.066667-1.137778zM513.33962 519.190756s2.275556-32.995556 1.137777-35.271112-2.275556-5.688889-5.688889-6.826666h-12.515555c-1.137778 0-1.137778-12.515556-1.137778-12.515556l-21.617778 6.826667 4.551111 20.48s4.551111 13.653333 4.551112 14.791111c1.137778-1.137778 30.72 12.515556 30.72 12.515556M512.201842 513.501867s11.377778 14.791111 2.275555 15.928889c-9.102222 1.137778-27.306667 7.964444-39.822222-2.275556-12.515556-9.102222-17.066667-14.791111-14.791111-23.893333 3.413333-9.102222 7.964444-25.031111 10.24-23.893334 2.275556 0 20.48 1.137778 20.48 1.137778l3.413333 5.688889-7.964444 7.964444 3.413333 3.413334 11.377778 2.275555s4.551111 0 3.413333 1.137778c0 1.137778-2.275556 6.826667-1.137777 6.826667 2.275556 0 10.24 2.275556 9.102222 5.688889M520.166286 329.181867v-101.262223c0-6.826667-6.826667-97.848889-6.826666-97.848888s-20.48-10.24-22.755556 3.413333c-2.275556 13.653333 3.413333 83.057778 5.688889 86.471111 2.275556 2.275556-5.688889 77.368889-5.688889 77.368889h-9.102222s0-121.742222-3.413334-130.844445c-3.413333-10.24-10.24-21.617778-22.755555-12.515555l-1.137778 120.604444s-13.653333 46.648889-7.964444 55.751111c3.413333 9.102222 73.955556-1.137778 73.955555-1.137777M511.064064 123.244089s10.24-2.275556 11.377778-3.413333 7.964444-1.137778 11.377778-2.275556c2.275556 0 6.826667 0 9.102222-3.413333 2.275556-3.413333 1.137778-9.102222-5.688889-11.377778-6.826667-2.275556-26.168889-3.413333-29.582222-2.275556-4.551111 1.137778-17.066667-3.413333-18.204445 1.137778-1.137778 4.551111 2.275556 18.204444 5.688889 17.066667 2.275556-1.137778 2.275556-5.688889 6.826667-5.688889 2.275556 0 11.377778 3.413333 9.102222 10.24M581.606286 421.341867s2.275556 6.826667 3.413334 7.964444c1.137778 2.275556 3.413333 4.551111 3.413333 7.964445 0 2.275556-1.137778 6.826667 1.137778 7.964444 2.275556 2.275556 10.24 6.826667 10.24 6.826667s2.275556 6.826667 2.275555 7.964444c0 1.137778 5.688889 0 5.688889 0s-1.137778-34.133333-2.275555-36.408889c-1.137778-2.275556-17.066667-13.653333-19.342223-12.515555-2.275556 2.275556-4.551111 10.24-4.551111 10.24M466.690731 469.128533l1.137777 5.688889 14.791112-1.137778 7.964444-3.413333 10.24-6.826667 1.137778-4.551111s19.342222-5.688889 23.893333-17.066666c4.551111-10.24 23.893333-43.235556 23.893333-43.235556l7.964445 3.413333 18.204444 18.204445 6.826667 2.275555s9.102222-10.24 6.826667-15.928888c-2.275556-5.688889-28.444444-29.582222-29.582223-31.857778-1.137778-1.137778-1.137778-3.413333-1.137777-3.413334l-13.653334-2.275555s-20.48 18.204444-22.755555 27.306667h-3.413334l4.551112-72.817778s-17.066667-17.066667-60.302223-4.551111c-44.373333 12.515556-26.168889 17.066667-26.168889 17.066666l1.137778 39.822223s-20.48-2.275556-18.204444 17.066666c2.275556 18.204444 27.306667 71.68 27.306666 71.68s13.653333 5.688889 19.342223 4.551111M904.735175 128.932978c0-29.582222-46.648889-53.475556-104.675555-53.475556s-104.675556 23.893333-104.675556 53.475556 46.648889 53.475556 104.675556 53.475555 104.675556-23.893333 104.675555-53.475555M895.632953 205.164089c0-88.746667-95.573333-79.644444-95.573333-79.644445s-95.573333 102.4-95.573334 190.008889c0 37.546667 2.275556 179.768889 2.275556 179.768889l94.435555-18.204444 94.435556-92.16c-1.137778 1.137778 0-143.36 0-179.768889M704.486286 495.297422l-28.444444-11.377778 157.013333-120.604444-18.204444-244.622222 37.546666 14.791111 35.271111 71.68-1.137777 64.853333-17.066667 120.604445-69.404444 56.888889-4.551112 19.342222s-35.271111 14.791111-36.408888 14.791111c-1.137778 0-54.613333 13.653333-54.613334 13.653333M867.188508 193.786311c0-88.746667-95.573333-79.644444-95.573333-79.644444s-95.573333 102.4-95.573333 190.008889c0 37.546667 2.275556 179.768889 2.275555 179.768888l94.435556-18.204444 94.435555-92.16c-1.137778 0 0-143.36 0-179.768889M732.930731 323.492978l-14.791111-12.515556 31.857777-46.648889 65.991111 60.302223-13.653333 15.928888-48.924444-44.373333z"  horiz-adv-x="1376" />

    
    <glyph glyph-name="gonggao" unicode="&#59058;" d="M21.575893 203.733333l554.666667-318.933333c12.8-7.466667 29.866667-7.466667 42.666667 0l554.666666 318.933333c20.266667 11.733333 27.733333 37.333333 16 58.666667-4.266667 6.4-9.6 11.733333-16 16L618.909227 596.266667c-12.8 7.466667-28.8 7.466667-42.666667 0L21.575893 277.333333C1.309227 265.6-6.15744 240 5.575893 218.666667c4.266667-5.333333 9.6-11.733333 16-14.933334zM1002.909227 716.8L1205.575893 597.333333V776.533333L1002.909227 896zM277.575893 785.066667V650.666667l170.666667 100.266666V885.333333zM362.909227 569.6V768L128.24256 635.733333V437.333333zM1109.575893 284.8L877.04256 149.333333 469.575893 387.2 702.109227 522.666667zM736.24256 533.333333l-117.333333-67.2 1.066666-135.466666L736.24256 397.866667zM501.575893 533.333333l116.266667-67.2L618.909227 330.666667l-117.333334 67.2zM501.575893 528L618.909227 597.333333l117.333333-69.333333L618.909227 458.666667zM736.24256 682.666667l-117.333333-67.2 1.066666-135.466667L736.24256 547.2zM501.575893 682.666667l116.266667-67.2L618.909227 480l-117.333334 67.2zM501.575893 677.333333L618.909227 746.666667l117.333333-69.333334L618.909227 608zM736.24256 832l-117.333333-67.2 1.066666-135.466667L736.24256 696.533333zM501.575893 832l116.266667-67.2L618.909227 629.333333l-117.333334 67.2zM618.909227 896L501.575893 826.666667 618.909227 757.333333l117.333333 69.333334zM864.24256 458.666667l-117.333333-67.2 1.066666-135.466667L864.24256 323.2zM629.575893 458.666667l116.266667-67.2L746.909227 256l-117.333334 67.2zM629.575893 453.333333L746.909227 522.666667l117.333333-69.333334L746.909227 384zM864.24256 608l-117.333333-67.2 1.066666-135.466667L864.24256 472.533333zM629.575893 608l116.266667-67.2L746.909227 405.333333l-117.333334 67.2zM629.575893 602.666667L746.909227 672l117.333333-69.333333L746.909227 533.333333zM992.24256 384l-117.333333-67.2 1.066666-135.466667L992.24256 248.533333zM757.575893 384l116.266667-67.2L874.909227 181.333333l-117.333334 67.2zM757.575893 378.666667L874.909227 448l117.333333-69.333333L874.909227 309.333333zM1057.309227 167.466667c0-16-25.6-28.8-57.6-28.8-32 0-57.6 12.8-57.6 28.8 0 16 25.6 28.8 57.6 28.8 32 0 57.6-12.8 57.6-28.8M1033.84256 217.6h-78.933333l9.6-49.066667c1.066667-7.466667 13.866667-12.8 28.8-12.8 13.866667 0 25.6 5.333333 28.8 11.733334l11.733333 50.133333zM994.375893 257.066667c-24.533333 0-44.8-9.6-44.8-22.4v-13.866667c0-11.733333 20.266667-21.333333 44.8-21.333333 24.533333 0 44.8 9.6 44.8 22.4V234.666667c0 12.8-19.2 22.4-44.8 22.4M1013.575893 361.6c-2.133333 9.6-10.666667 16-20.266666 14.933333-7.466667-1.066667-12.8-4.266667-11.733334-18.133333 3.2-29.866667 1.066667-45.866667 2.133334-51.2 1.066667-6.4-3.2-29.866667-7.466667-38.4-4.266667-8.533333-28.8-21.333333-14.933333-35.2 13.866667-14.933333 36.266667-12.8 44.8-7.466667 8.533333 5.333333 21.333333 7.466667 20.266666 12.8-1.066667 5.333333 0 18.133333-1.066666 21.333334 0 3.2 3.2 11.733333 7.466666 14.933333 4.266667 3.2 6.4 16 6.4 22.4 0 6.4-7.466667 21.333333-12.8 27.733333-2.133333 4.266667-9.6 21.333333-12.8 36.266667M527.175893 103.466667c0-26.666667-43.733333-49.066667-98.133333-49.066667S330.909227 76.8 330.909227 103.466667c0 26.666667 43.733333 49.066667 98.133333 49.066666s98.133333-22.4 98.133333-49.066666M486.64256 444.8l2.133333 33.066667-1.066666 23.466666s-59.733333 17.066667-59.733334-23.466666c0-34.133333 39.466667-36.266667 53.333334-37.333334 2.133333-1.066667 5.333333 1.066667 5.333333 4.266667M447.175893 100.266667s-7.466667-1.066667-7.466666-2.133334L437.575893 85.333333c0-3.2 2.133333-6.4 6.4-7.466666 4.266667-1.066667 10.666667-1.066667 14.933334 2.133333 1.066667 1.066667 2.133333 1.066667 3.2 1.066667 6.4 1.066667 25.6 3.2 35.2 9.6 3.2 2.133333 4.266667 7.466667 1.066666 10.666666v1.066667c-2.133333 2.133333-4.266667 3.2-6.4 3.2-11.733333-1.066667-41.6-4.266667-44.8-5.333333M406.64256 124.8s-6.4-2.133333-6.4-3.2c0-1.066667-1.066667-12.8-1.066667-12.8s16-11.733333 23.466667 2.133333c7.466667 13.866667 9.6 11.733333 9.6 11.733334s22.4 11.733333 13.866667 19.2c-7.466667 7.466667-39.466667-17.066667-39.466667-17.066667M406.64256 135.466667l-2.133333-11.733334v-1.066666s4.266667-7.466667 9.6-6.4c5.333333 1.066667 8.533333 5.333333 8.533333 6.4 0 1.066667-2.133333 16-2.133333 16l-13.866667-3.2zM447.175893 116.266667l-3.2-18.133334s3.2-8.533333 11.733334-6.4c8.533333 3.2 8.533333 6.4 8.533333 6.4l-5.333333 14.933334-11.733334 3.2zM481.309227 295.466667l-3.2-94.933334s-14.933333-82.133333-18.133334-87.466666c0 0-10.666667-3.2-13.866666 1.066666 0 0 4.266667 69.333333 4.266666 72.533334l-1.066666 85.333333-17.066667 8.533333 4.266667-74.666666-11.733334-68.266667s-11.733333-12.8-21.333333-4.266667l6.4 80-5.333333 83.2-2.133334 25.6 26.666667-1.066666 52.266667-25.6zM377.84256 315.733333s-2.133333-19.2-1.066667-21.333333c1.066667-2.133333 16-5.333333 17.066667 0 0 5.333333-3.2 21.333333-3.2 21.333333h-12.8zM571.975893 387.2s8.533333 16 13.866667 16l14.933333 8.533333s3.2-1.066667 2.133334-3.2c-1.066667-1.066667-10.666667-7.466667-10.666667-7.466666s10.666667-5.333333 5.333333-12.8c-5.333333-6.4-16-11.733333-18.133333-10.666667-3.2 1.066667-7.466667 9.6-7.466667 9.6M565.575893 386.133333s6.4 3.2 7.466667 3.2c1.066667 0 10.666667-8.533333 8.533333-12.8-1.066667-4.266667-7.466667-3.2-7.466666-3.2l-8.533334 12.8zM378.909227 325.333333c0-1.066667-2.133333-10.666667-1.066667-11.733333 1.066667-1.066667 13.866667-4.266667 14.933333-1.066667l-2.133333 12.8h-11.733333zM439.709227 454.4l-1.066667-10.666667 20.266667-10.666666 1.066666 10.666666zM470.64256 466.133333l5.333333 1.066667 1.066667 13.866667v6.4s13.866667 3.2 11.733333 9.6c-5.333333 14.933333-32 23.466667-48 13.866666-16-9.6-14.933333-34.133333-11.733333-50.133333 1.066667-6.4 8.533333-10.666667 16-11.733333 7.466667-1.066667 16 1.066667 16 7.466666s0 18.133333 1.066667 18.133334c0 0 6.4 6.4 8.533333 1.066666 2.133333-5.333333 0-9.6 0-9.6M577.309227 373.333333l-2.133334 6.4c-1.066667 2.133333-2.133333 3.2-3.2 4.266667l-5.333333 4.266667-34.133333-25.6-36.266667 41.6s-12.8 10.666667-16 14.933333c-3.2 3.2-20.266667 16-35.2 23.466667-9.6 5.333333-16 5.333333-22.4 7.466666-3.2 1.066667-6.4 1.066667-9.6 0-4.266667-2.133333-10.666667-4.266667-11.733333-7.466666-3.2-5.333333-21.333333-56.533333-21.333334-56.533334l-3.2-64 4.266667-2.133333c2.133333 0 5.333333-1.066667 7.466667 0h4.266666v64l12.8 21.333333s-2.133333-42.666667-2.133333-44.8c0-2.133333-6.4-37.333333-5.333333-39.466666 0-2.133333 12.8-12.8 18.133333-10.666667l5.333333 12.8 3.2-21.333333s39.466667-27.733333 58.666667-12.8l-2.133333 88.533333 37.333333-42.666667s7.466667-5.333333 20.266667 7.466667l38.4 30.933333zM998.64256 390.4l-117.333333-66.133333-117.333334 66.133333L880.24256 458.666667zM922.909227 619.733333l-25.6-9.6 37.333333-17.066666-6.4 21.333333zM991.175893 496l-24.533333-9.6 4.266667 21.333333c1.066667 0 18.133333-1.066667 18.133333-1.066666l2.133333-10.666667zM974.109227 502.4v-99.2l-23.466667-12.8v99.2zM958.109227 615.466667c8.533333-5.333333 17.066667-12.8 25.6-22.4 24.533333-29.866667 32-69.333333 18.133333-89.6-9.6-12.8-26.666667-13.866667-43.733333-3.2-8.533333 5.333333-17.066667 12.8-25.6 22.4-24.533333 29.866667-32 69.333333-18.133334 89.6 8.533333 12.8 25.6 12.8 43.733334 3.2M930.375893 403.2l20.266667-12.8 1.066667 99.2-21.333334-11.733333zM931.44256 604.8c-13.866667 8.533333-27.733333 9.6-37.333333 3.2-1.066667 0-1.066667-1.066667-2.133334-1.066667l-1.066666-1.066666c-46.933333-38.4-99.2-38.4-133.333334-36.266667-32 2.133333-36.266667 4.266667-37.333333 4.266667l66.133333-40.533334 55.466667-75.733333 17.066667-59.733333c-3.2-6.4-5.333333-12.8-7.466667-18.133334l7.466667-16c17.066667 48 99.2 115.2 108.8 122.666667 3.2 2.133333 6.4 4.266667 8.533333 7.466667 13.866667 19.2 5.333333 59.733333-18.133333 89.6-9.6 9.6-18.133333 17.066667-26.666667 21.333333zM811.975893 520.533333c-16 19.2-33.066667 35.2-51.2 44.8-27.733333 16-54.4 18.133333-73.6 8.533334l-4.266666-3.2c-1.066667-1.066667-2.133333-1.066667-3.2-2.133334l-21.333334-12.8c-5.333333-3.2-10.666667-8.533333-14.933333-14.933333-29.866667-39.466667-13.866667-120.533333 35.2-181.333333 16-19.2 33.066667-35.2 51.2-44.8 17.066667-9.6 33.066667-14.933333 48-14.933334 11.733333 0 21.333333 3.2 30.933333 8.533334v-1.066667l24.533334 16c5.333333 3.2 10.666667 8.533333 14.933333 13.866667 28.8 41.6 12.8 123.733333-36.266667 183.466666M730.909227 541.866667c16-9.6 33.066667-23.466667 48-42.666667 45.866667-56.533333 61.866667-133.333333 35.2-170.666667-18.133333-24.533333-51.2-25.6-84.266667-7.466666-16 9.6-33.066667 23.466667-48 42.666666-45.866667 56.533333-61.866667 133.333333-35.2 170.666667 18.133333 25.6 50.133333 26.666667 84.266667 7.466667M828.861227 426.666667L763.79456 519.466667C749.927893 494.933333 709.39456 455.466667 709.39456 455.466667l37.333333-57.6s21.333333 10.666667 48 13.866666c4.266667 0 8.533333 1.066667 11.733334 1.066667 6.4 0 13.866667 0 20.266666-1.066667l2.133334 14.933334zM726.64256 454.4c4.266667-2.133333 8.533333-6.4 11.733333-10.666667 11.733333-14.933333 14.933333-34.133333 8.533334-43.733333-4.266667-6.4-12.8-6.4-21.333334-2.133333-4.266667 2.133333-8.533333 6.4-11.733333 10.666666-10.666667 14.933333-14.933333 34.133333-7.466667 43.733334 4.266667 6.4 11.733333 6.4 20.266667 2.133333"  horiz-adv-x="1205" />

    
    <glyph glyph-name="huati" unicode="&#59059;" d="M612.260713-122.158109l545.24314 313.792991c21.142081 12.240152 28.931269 38.945939 16.691117 61.20076-4.450964 6.676447-10.01467 12.240152-16.691117 16.691117l-545.24314 311.567509c-13.352893 7.789188-30.04401 7.789188-44.509644 0L22.507928 268.414018C1.365847 256.173866-6.423341 229.468079 5.816812 207.213257c4.450964-5.563706 10.01467-12.240152 16.691116-15.578375l545.243141-313.792991c13.352893-7.789188 30.04401-7.789188 44.509644 0zM1107.430504 294.007063L761.368021 94.826406l-173.587613 100.146699-230.337408 132.416191 346.062483 199.180658zM1048.455225 395.266504L760.255279 228.355338v-65.651725L1048.455225 328.502037zM472.055334 395.266504l288.199945-166.911166v-65.651725L472.055334 328.502037zM472.055334 395.266504l288.199945 165.798424L1048.455225 395.266504 760.255279 228.355338zM1046.229743 494.300462L758.029797 328.502037v-66.764466L1046.229743 428.648737zM469.829852 494.300462L758.029797 328.502037v-66.764466L469.829852 428.648737zM469.829852 494.300462l288.199945 165.798424L1046.229743 494.300462 758.029797 328.502037zM1046.229743 597.785384L758.029797 431.98696v-66.764466l288.199946 166.911165zM469.829852 597.785384l288.199945-165.798424v-66.764466l-288.199945 166.911165zM469.829852 597.785384l288.199945 165.798425L1046.229743 597.785384 758.029797 431.98696zM858.176496 568.854116l45.622386 26.705786V778.049443L699.054519 896l-45.622385-26.705786M858.176496 568.854116V752.456398L653.432134 869.294214v-234.788373l45.622385 25.593045zM731.1571 724.315175c0-11.127411-6.676447-15.578375-14.465635-11.127411-7.789188 4.450964-14.465634 17.803858-14.465634 28.931269s6.676447 15.578375 14.465634 11.127411c7.789188-5.563706 14.465634-18.916599 14.465635-28.931269M813.499941 676.467308c0-11.127411-6.676447-15.578375-14.465634-11.127411-7.789188 4.450964-14.465634 17.803858-14.465634 28.931268s6.676447 15.578375 14.465634 11.127411c7.789188-5.563706 14.465634-17.803858 14.465634-28.931268M1137.307602 212.454268c0-15.578375-25.593045-28.931269-56.749796-28.931269s-56.749796 12.240152-56.749796 28.931269c0 15.578375 25.593045 28.931269 56.749796 28.931269 32.269492 0 56.749796-13.352893 56.749796-28.931269M1115.05278 262.527617h-77.891877l10.01467-48.960608c1.112741-6.676447 13.352893-12.240152 27.818527-12.240152s25.593045 5.563706 27.818528 12.240152l12.240152 48.960608zM1076.106841 301.473556c-24.480304 0-44.509644-10.01467-44.509644-22.254822v-13.352893c0-12.240152 20.02934-21.142081 44.509644-21.142081s44.509644 10.01467 44.509645 22.254822v12.240152c-1.112741 12.240152-20.02934 22.254822-44.509645 22.254822M1095.02344 406.07122c-2.225482 8.901929-10.01467 15.578375-20.02934 15.578375-6.676447 0-13.352893-4.450964-11.127411-17.803857 3.338223-28.931269 1.112741-45.622385 2.225483-51.186091s-3.338223-30.04401-6.676447-38.945939c-4.450964-8.901929-28.931269-21.142081-14.465634-35.607715 14.465634-14.465634 35.607715-12.240152 43.396903-6.676447 7.789188 5.563706 21.142081 7.789188 20.029339 13.352894-1.112741 5.563706 0 17.803858-1.112741 21.142081 0 3.338223 3.338223 11.127411 6.676447 14.465634s5.563706 16.691117 5.563706 22.254822-7.789188 22.254822-12.240153 27.818527c-2.225482 4.450964-10.01467 21.142081-12.240152 35.607716M436.280707 84.489041l-230.337408 133.528932 172.474871 99.033959 230.337408-132.416192zM259.354872 536.261929l56.749796 32.269492 230.337408-132.416191-55.637055-33.382234zM546.442076 170.170106l-115.725074-65.651725 2.225482 132.416191 57.862537 165.798424 55.637055 33.382234zM432.942484 104.518381l-230.337408 132.416191v133.528932l56.749796 165.798425 231.450149-133.528933-57.862537-165.798424zM461.873753 418.311372l-57.862538-162.460201-184.715023 102.372181 62.313502 163.572942 180.264059-103.484922zM284.947917 480.624874l-12.240152-25.593046 154.671013-86.793806 11.127411 27.818528zM268.256801 443.904417l-33.382233-76.779136 106.823146-61.20076 31.15675 77.891877zM380.643652 379.365433l-32.269492-76.779136 41.171421-23.367563 32.269492 75.666395zM323.893856 121.209497c0-21.142081-34.494974-38.945939-76.779136-38.945938-42.284162 0-76.779136 17.803858-76.779136 38.945938s34.494974 38.945939 76.779136 38.945939c42.284162 0 76.779136-16.691117 76.779136-38.945939M291.624364 392.718327l2.225482 26.705786-1.112741 18.916599s-46.735126 13.352893-46.735126-18.916599c0-26.705786 30.04401-28.931269 41.17142-30.04401 2.225482-1.112741 4.450964 1.112741 4.450965 3.338224M260.467613 120.096756l-5.563706-1.112741-2.225482-11.127411c0-3.338223 2.225482-5.563706 4.450965-5.563705 4.450964-1.112741 8.901929-1.112741 12.240152 1.112741 1.112741 1.112741 1.112741 1.112741 2.225482 1.112741 4.450964 0 20.02934 2.225482 26.705787 7.789188 2.225482 2.225482 3.338223 5.563706 1.112741 8.901928 0 2.225482-2.225482 3.338223-4.450965 2.225483-8.901929 0-31.156751-3.338223-34.494974-3.338224M228.198121 139.013355l-5.563705-2.225482v-10.01467s12.240152-8.901929 18.916598 2.225482c5.563706 11.127411 7.789188 10.01467 7.789188 10.01467s17.803858 8.901929 11.127411 15.578376c-6.676447 3.338223-32.269492-15.578375-32.269492-15.578376M228.198121 147.915284l-1.112741-10.01467v-1.112741s3.338223-5.563706 7.789188-4.450965c3.338223 1.112741 6.676447 4.450964 6.676446 4.450965l-2.225482 12.240152-11.127411-1.112741zM260.467613 132.336908l-2.225482-14.465634s3.338223-6.676447 10.01467-4.450964c6.676447 2.225482 6.676447 4.450964 6.676446 4.450964l-5.563705 12.240152-8.901929 2.225482zM287.173399 274.76777l-2.225482-74.553654s-11.127411-64.538984-13.352893-70.10269c0 0-8.901929-2.225482-11.127411 0 0 0 3.338223 54.524314 3.338223 57.862538l-1.112741 67.877207-13.352893 6.676446 3.338223-58.975278-8.901929-53.411573s-8.901929-11.127411-16.691116-3.338223l5.563705 63.426243-4.450964 65.651725-1.112741 20.02934h21.142081l38.945938-21.142081zM205.943299 290.346145s-2.225482-15.578375-1.112741-17.803858c1.112741-2.225482 13.352893-4.450964 13.352893 0 1.112741 5.563706-2.225482 17.803858-2.225482 17.803858h-10.01467zM358.38883 347.095941s6.676447 13.352893 10.01467 13.352894l11.127411 6.676446s2.225482-1.112741 1.112741-2.225482-7.789188-6.676447-7.789188-6.676447 8.901929-4.450964 4.450965-10.01467-12.240152-8.901929-14.465635-8.901928c-1.112741 1.112741-4.450964 7.789188-4.450964 7.789187M353.937866 345.9832s4.450964 2.225482 5.563705 2.225482c1.112741 0 7.789188-6.676447 6.676447-10.01467-1.112741-3.338223-6.676447-2.225482-6.676447-2.225482l-5.563705 10.01467zM207.05604 298.135333s-2.225482-7.789188-1.112741-8.901929c0-1.112741 11.127411-3.338223 12.240152-1.112741l-1.112741 10.01467h-10.01467zM254.903907 400.507514l-1.112741-8.901929 16.691117-8.901928v8.901928zM279.384212 409.409443l4.450964 1.112741v16.691117s10.01467 2.225482 8.901929 7.789187c-3.338223 12.240152-25.593045 18.916599-37.833198 11.127411s-12.240152-26.705786-8.901928-40.058679c1.112741-5.563706 6.676447-7.789188 12.240152-8.901929 5.563706-1.112741 12.240152 1.112741 12.240152 5.563705v14.465635s4.450964 4.450964 6.676447 1.112741c3.338223-5.563706 1.112741-8.901929 2.225482-8.901929M362.839794 335.96853l-2.225482 5.563706c0 1.112741-1.112741 2.225482-2.225482 3.338223l-4.450964 3.338223-26.705787-21.142081-27.818527 33.382234s-10.01467 7.789188-12.240153 12.240152c-2.225482 3.338223-15.578375 13.352893-26.705786 18.916598-7.789188 3.338223-12.240152 3.338223-17.803858 5.563706-2.225482 1.112741-5.563706 1.112741-7.789187 0-3.338223-1.112741-7.789188-3.338223-10.01467-5.563706-2.225482-4.450964-16.691117-44.509644-16.691117-44.509644l-2.225482-51.18609 2.225482-1.112742c2.225482-1.112741 4.450964-1.112741 6.676447-1.112741h3.338223v51.186091l10.01467 16.691117s-1.112741-33.382233-1.112741-35.607716c0-2.225482-4.450964-30.04401-4.450964-31.156751 0-2.225482 10.01467-10.01467 14.465634-7.789187l4.450964 10.01467 2.225482-16.691117s31.156751-22.254822 45.622386-10.01467l-1.112741 70.10269 28.931268-33.382233s6.676447-4.450964 16.691117 5.563705l28.931268 23.367563zM302.918686 601.123608L273.987417 617.814724V735.765281l129.077968 75.666395 28.931269-16.691116M302.918686 601.123608V719.074165l129.077968 75.666395v-151.33279l-28.931269 16.691116zM390.491411 707.946754c0-6.676447 4.450964-10.01467 8.901929-7.789188 5.563706 3.338223 8.901929 11.127411 8.901929 18.916599s-3.338223 11.127411-8.901929 7.789187c-4.450964-3.338223-8.901929-11.127411-8.901929-18.916598M335.967097 676.790003c0-6.676447 4.450964-10.01467 8.901929-7.789188s10.01467 12.240152 10.01467 18.916599-4.450964 11.127411-10.01467 7.789187-8.901929-11.127411-8.901929-18.916598"  horiz-adv-x="1180" />

    
    </font>
</defs>
</svg>
