<?xml version="1.0" encoding="utf-8"?>
<!-- Generator: Adobe Illustrator 22.1.0, SVG Export Plug-In . SVG Version: 6.00 Build 0)  -->
<svg version="1.1" id="图层_1" xmlns="http://www.w3.org/2000/svg" xmlns:xlink="http://www.w3.org/1999/xlink" x="0px" y="0px"
	 viewBox="0 0 65 65" style="enable-background:new 0 0 65 65;" xml:space="preserve">
<style type="text/css">
	.st0{fill:url(#Oval-6-Copy-6_1_);}
	.st1{fill:#FFFFFF;}
	.st2{fill:url(#Oval-6-Copy-7_1_);}
	.st3{fill:url(#Oval-6-Copy-8_1_);}
</style>
<g>
	
		<radialGradient id="Oval-6-Copy-6_1_" cx="-265.4492" cy="448.4693" r="0.6373" gradientTransform="matrix(6.000000e-15 101.8666 101.0097 -6.000000e-15 -45283.7461 27034.9668)" gradientUnits="userSpaceOnUse">
		<stop  offset="0" style="stop-color:#FF6907"/>
		<stop  offset="0.7634" style="stop-color:#FB9C00"/>
		<stop  offset="1" style="stop-color:#FFBD55"/>
	</radialGradient>
	<ellipse id="Oval-6-Copy-6_38_" class="st0" cx="32.5" cy="32.5" rx="32.5" ry="32.5"/>
	<path id="XMLID_320_" class="st1" d="M41.3,38.6v-3.2c0-0.4-0.3-0.7-0.7-0.7h-0.3c-0.4,0-0.7,0.3-0.7,0.7v3.2h-3.2
		c-0.4,0-0.7,0.3-0.7,0.7v0.3c0,0.3,0.3,0.7,0.7,0.7h3.2v3.2c0,0.4,0.3,0.7,0.7,0.7h0.3c0.4,0,0.7-0.3,0.7-0.7v-3.2h3.2
		c0.4,0,0.7-0.3,0.7-0.7v-0.3c0-0.4-0.3-0.7-0.7-0.7H41.3L41.3,38.6z M34.5,47.5H20.3c-0.9,0-1.6-0.7-1.6-1.6V22.4
		c0-0.9,0.7-1.6,1.6-1.6h2.3v6.5h17.1v-6.5H42c0.9,0,1.6,0.7,1.6,1.6v7.9c-5.1-1.8-10.8,0.9-12.5,6.1C29.7,40.5,31,45,34.5,47.5
		L34.5,47.5z M38.2,25.7h-14v-5.2c0-1.1,0.8-2,1.8-2h1.8c0.6-1.5,2-2.4,3.4-2.4c1.5,0,2.8,1,3.4,2.4h1.8c1,0,1.7,0.9,1.7,2
		L38.2,25.7L38.2,25.7z M22.6,33c0,0.4,0.4,0.8,0.8,0.8h7c0.4,0,0.8-0.4,0.8-0.8c0-0.4-0.4-0.8-0.8-0.8h-7
		C22.9,32.2,22.6,32.5,22.6,33z M22.6,39.4c0,0.4,0.4,0.8,0.8,0.8h5.4c0.4,0,0.8-0.4,0.8-0.8c0-0.4-0.4-0.8-0.8-0.8h-5.4
		C23,38.6,22.6,39,22.6,39.4z M27.7,23.3c0.7,0,1.2-0.6,1.2-1.2l0,0c0-0.7-0.5-1.2-1.2-1.2c-0.7,0-1.2,0.6-1.2,1.2
		C26.5,22.7,27,23.3,27.7,23.3z M34.7,23.3c0.7,0,1.2-0.6,1.2-1.2c0-0.7-0.5-1.2-1.2-1.2c-0.7,0-1.2,0.6-1.2,1.2
		C33.5,22.7,34,23.3,34.7,23.3z M40.4,47.5c-4.4,0-7.9-3.5-7.9-7.9s3.5-7.9,7.9-7.9s7.9,3.5,7.9,7.9S44.7,47.5,40.4,47.5z"/>
	
		<radialGradient id="Oval-6-Copy-7_1_" cx="-267.8165" cy="460.0024" r="0.8336" gradientTransform="matrix(34.3643 -47.4967 -47.0972 -34.6558 30908.5762 3274.248)" gradientUnits="userSpaceOnUse">
		<stop  offset="0" style="stop-color:#FF9203;stop-opacity:0"/>
		<stop  offset="1" style="stop-color:#D48200;stop-opacity:0.84"/>
	</radialGradient>
	<path id="Oval-6-Copy-7_38_" class="st2" d="M32.5,64.8C50.4,64.8,65,50.3,65,32.4c0-1.3,0-1.9-0.1-2.6c-0.1-0.6-0.1-1.3-0.2-1.7
		c-0.9-2.2-3.4,1.1-14.5,4.3C34.3,37,34,47.3,29.2,50c-9.8,5.6-10.8,0-15.9-4.1c-5.6-4.6-11.8-2-9.1,2.7
		C9.9,58.3,20.5,64.8,32.5,64.8z"/>
	
		<radialGradient id="Oval-6-Copy-8_1_" cx="-267.9771" cy="460.2997" r="0.6495" gradientTransform="matrix(34.6002 -46.4016 -46.0113 -34.8937 30497.7266 3671.2566)" gradientUnits="userSpaceOnUse">
		<stop  offset="0" style="stop-color:#FFB703;stop-opacity:0"/>
		<stop  offset="1" style="stop-color:#FFDD6A;stop-opacity:0.84"/>
	</radialGradient>
	<path id="Oval-6-Copy-8_38_" class="st3" d="M32.5,65C50.4,65,65,50.5,65,32.5c0-1.3,0-1.9-0.1-2.6c-0.1-0.6-0.1-1.3-0.2-1.7
		c-0.9-2.2-1.3,11-8.3,11c-17.8,0-11.3,13.5-24.7,5c-9.3-5.9-8.5,16.2-19.8,5.1S1.6,44,4.3,48.7C9.9,58.5,20.5,65,32.5,65z"/>
</g>
</svg>
