<?xml version="1.0" encoding="utf-8"?>
<!-- Generator: Adobe Illustrator 22.1.0, SVG Export Plug-In . SVG Version: 6.00 Build 0)  -->
<svg version="1.1" id="图层_1" xmlns="http://www.w3.org/2000/svg" xmlns:xlink="http://www.w3.org/1999/xlink" x="0px" y="0px"
	 viewBox="0 0 65 65" style="enable-background:new 0 0 65 65;" xml:space="preserve">
<style type="text/css">
	.st0{fill:url(#Oval-6-Copy-6_1_);}
	.st1{fill:#FFFFFF;}
	.st2{fill:url(#Oval-6-Copy-7_1_);}
	.st3{fill:url(#Oval-6-Copy-8_1_);}
</style>
<g>
	
		<radialGradient id="Oval-6-Copy-6_1_" cx="-267.4403" cy="454.5795" r="1" gradientTransform="matrix(4.000000e-15 64.915 64.3689 -4.000000e-15 -29244.793 17355.4473)" gradientUnits="userSpaceOnUse">
		<stop  offset="0" style="stop-color:#823FFF"/>
		<stop  offset="0.7634" style="stop-color:#586BE6"/>
		<stop  offset="1" style="stop-color:#3F71FF"/>
	</radialGradient>
	<ellipse id="Oval-6-Copy-6_37_" class="st0" cx="32.5" cy="32.5" rx="32.5" ry="32.5"/>
	<g>
		<path class="st1" d="M32.5,31c-2.2,0-3.9-1.7-4-3.8c-3.3-0.5-6.3-1.5-8.6-3V45c0,1.1,0.9,2,2,2h21.3c1.1,0,2-0.9,2-2V24.2
			c-2.3,1.4-5.3,2.4-8.6,2.9C36.4,29.3,34.7,31,32.5,31z M33.9,41.5c0,0.5-0.4,0.9-0.9,0.9h-7.9c-0.5,0-0.9-0.4-0.9-0.9v0
			c0-0.5,0.4-0.9,0.9-0.9H33C33.5,40.7,33.9,41.1,33.9,41.5L33.9,41.5z M36.3,38.2c0,0.5-0.4,0.9-0.9,0.9H25.1
			c-0.5,0-0.9-0.4-0.9-0.9v0c0-0.5,0.4-0.9,0.9-0.9h10.3C35.9,37.3,36.3,37.7,36.3,38.2L36.3,38.2z M40.8,34.8
			c0,0.5-0.4,0.9-0.9,0.9H25.1c-0.5,0-0.9-0.4-0.9-0.9s0.4-0.9,0.9-0.9H40C40.5,33.9,40.8,34.3,40.8,34.8z"/>
		<path class="st1" d="M43.1,16.9H21.9c-1.1,0-2,0.9-2,2V22c0.3,0.2,0.5,0.4,0.8,0.6c0.7,0.5,1.5,0.9,2.4,1.2c0.9,0.4,1.8,0.7,2.8,1
			c0.9,0.2,1.9,0.4,2.9,0.6c0.6-1.4,2-2.4,3.7-2.4c1.6,0,3,1,3.7,2.4c1-0.1,2-0.3,2.9-0.6c1-0.3,1.9-0.6,2.8-1
			c0.9-0.4,1.7-0.8,2.4-1.2c0.3-0.2,0.5-0.3,0.7-0.5v-3.3C45.1,17.7,44.2,16.9,43.1,16.9z"/>
	</g>
	
		<radialGradient id="Oval-6-Copy-7_1_" cx="-263.0881" cy="457.4879" r="1.8062" gradientTransform="matrix(35.8896 9.687 9.6055 -36.1941 5088.1548 19159.8047)" gradientUnits="userSpaceOnUse">
		<stop  offset="0" style="stop-color:#2D00BA;stop-opacity:0"/>
		<stop  offset="1" style="stop-color:#9F94FF;stop-opacity:0.84"/>
	</radialGradient>
	<path id="Oval-6-Copy-7_37_" class="st2" d="M32.5,64.8C50.4,64.8,65,50.3,65,32.4c0-1.3,0-1.9-0.1-2.6c-0.1-0.6-0.1-1.3-0.2-1.7
		c-0.9-2.2-3.4,1.1-14.5,4.3C34.3,37,34,47.3,29.2,50c-9.8,5.6-10.8,0-15.9-4.1c-5.6-4.6-11.8-2-9.1,2.7
		C9.9,58.3,20.5,64.8,32.5,64.8z"/>
	
		<radialGradient id="Oval-6-Copy-8_1_" cx="-258.9484" cy="453.2956" r="1.0192" gradientTransform="matrix(22.0491 -29.5696 -29.3209 -22.2362 19047.3223 2466.8083)" gradientUnits="userSpaceOnUse">
		<stop  offset="0" style="stop-color:#B794FF;stop-opacity:0"/>
		<stop  offset="1" style="stop-color:#9E6AFF;stop-opacity:0.84"/>
	</radialGradient>
	<path id="Oval-6-Copy-8_37_" class="st3" d="M32.5,65C50.4,65,65,50.5,65,32.5c0-1.3,0-1.9-0.1-2.6c-0.1-0.6-0.1-1.3-0.2-1.7
		c-0.9-2.2-1.3,11-8.3,11c-17.8,0-11.3,13.5-24.7,5c-9.3-5.9-8.5,16.2-19.8,5.1S1.6,44,4.3,48.7C9.9,58.5,20.5,65,32.5,65z"/>
</g>
</svg>
