<?xml version="1.0" encoding="utf-8"?>
<!-- Generator: Adobe Illustrator 22.1.0, SVG Export Plug-In . SVG Version: 6.00 Build 0)  -->
<svg version="1.1" id="图层_1" xmlns="http://www.w3.org/2000/svg" xmlns:xlink="http://www.w3.org/1999/xlink" x="0px" y="0px"
	 viewBox="0 0 65 65" style="enable-background:new 0 0 65 65;" xml:space="preserve">
<style type="text/css">
	.st0{fill:url(#Oval-6-Copy-3_1_);}
	.st1{fill-rule:evenodd;clip-rule:evenodd;fill:#FFFFFF;}
	.st2{fill:url(#Oval-6-Copy-4_1_);}
	.st3{fill:url(#Oval-6-Copy-5_1_);}
</style>
<g>
	
		<radialGradient id="Oval-6-Copy-3_1_" cx="-271.1023" cy="455.1221" r="0.6373" gradientTransform="matrix(6.000000e-15 101.8666 101.0097 -6.000000e-15 -45955.7461 27610.8359)" gradientUnits="userSpaceOnUse">
		<stop  offset="0" style="stop-color:#00DD8E"/>
		<stop  offset="0.7634" style="stop-color:#00B46B"/>
		<stop  offset="1" style="stop-color:#00BF47"/>
	</radialGradient>
	<ellipse id="Oval-6-Copy-3_7_" class="st0" cx="32.5" cy="32.5" rx="32.5" ry="32.5"/>
	<path id="XMLID_345_" class="st1" d="M44,16.7H21.7c-1.2,0-2.1,0.9-2.1,2.1v26.6c0,1.2,0.9,2.1,2.1,2.1H44c1.2,0,2.1-0.9,2.1-2.1
		V18.8C46.1,17.7,45.2,16.7,44,16.7z M23.1,22.3c0.4,0,0.7,0.3,0.7,0.7c0,0.4-0.3,0.7-0.7,0.7c-0.4,0-0.7-0.3-0.7-0.7
		C22.4,22.6,22.7,22.3,23.1,22.3z M27.3,41.9h-4.2c-0.4,0-0.7-0.3-0.7-0.7c0-0.4,0.3-0.7,0.7-0.7h4.2c0.4,0,0.7,0.3,0.7,0.7
		C28,41.6,27.6,41.9,27.3,41.9z M22.4,38.4c0-0.4,0.3-0.7,0.7-0.7h2.8c0.4,0,0.7,0.3,0.7,0.7c0,0.4-0.3,0.7-0.7,0.7h-2.8
		C22.7,39.1,22.4,38.8,22.4,38.4z M35.2,43.5h-2.3v-4c0-0.4,0.3-0.7,0.7-0.7h0.9c0.4,0,0.7,0.3,0.7,0.7V43.5z M38.2,43.5h-2.3v-5.1
		c0-0.4,0.3-0.7,0.7-0.7h0.9c0.4,0,0.7,0.3,0.7,0.7V43.5z M41.3,43.5h-2.3v-3.4c0-0.4,0.3-0.7,0.7-0.7h0.9c0.4,0,0.7,0.3,0.7,0.7
		V43.5z M43.3,36.3h-21V25.1h21V36.3z M42.6,23.7H25.9c-0.4,0-0.7-0.3-0.7-0.7c0-0.4,0.3-0.7,0.7-0.7h16.8c0.4,0,0.7,0.3,0.7,0.7
		C43.3,23.4,43,23.7,42.6,23.7z"/>
	
		<radialGradient id="Oval-6-Copy-4_1_" cx="-264.1969" cy="464.3437" r="1.151" gradientTransform="matrix(56.3191 15.2012 15.0733 -56.7969 7920.5728 30442.2871)" gradientUnits="userSpaceOnUse">
		<stop  offset="0" style="stop-color:#00941A;stop-opacity:0"/>
		<stop  offset="1" style="stop-color:#00BF61;stop-opacity:0.84"/>
	</radialGradient>
	<path id="Oval-6-Copy-4_7_" class="st2" d="M32.5,64.8C50.4,64.8,65,50.3,65,32.4c0-1.3,0-1.9-0.1-2.6c-0.1-0.6-0.1-1.3-0.2-1.7
		c-0.9-2.2-3.4,1.1-14.5,4.3C34.3,37,34,47.3,29.2,50c-9.8,5.6-10.8,0-15.9-4.1c-5.6-4.6-11.8-2-9.1,2.7
		C9.9,58.3,20.5,64.8,32.5,64.8z"/>
	
		<radialGradient id="Oval-6-Copy-5_1_" cx="-253.0339" cy="456.9318" r="0.6495" gradientTransform="matrix(34.6002 -46.4016 -46.0113 -34.8937 29825.7266 4247.1245)" gradientUnits="userSpaceOnUse">
		<stop  offset="0" style="stop-color:#00F142;stop-opacity:0"/>
		<stop  offset="0.9859" style="stop-color:#00E9B5;stop-opacity:0.84"/>
	</radialGradient>
	<path id="Oval-6-Copy-5_7_" class="st3" d="M32.5,65C50.4,65,65,50.5,65,32.5c0-1.3,0-1.9-0.1-2.6c-0.1-0.6-0.1-1.3-0.2-1.7
		c-0.9-2.2-1.3,11-8.3,11c-17.8,0-11.3,13.5-24.7,5c-9.3-5.9-8.5,16.2-19.8,5.1S1.6,44,4.3,48.7C9.9,58.5,20.5,65,32.5,65z"/>
</g>
</svg>
