<?xml version="1.0" encoding="utf-8"?>
<!-- Generator: Adobe Illustrator 22.1.0, SVG Export Plug-In . SVG Version: 6.00 Build 0)  -->
<svg version="1.1" id="图层_1" xmlns="http://www.w3.org/2000/svg" xmlns:xlink="http://www.w3.org/1999/xlink" x="0px" y="0px"
	 viewBox="0 0 65 65" style="enable-background:new 0 0 65 65;" xml:space="preserve">
<style type="text/css">
	.st0{fill:url(#Oval-6-Copy-6_1_);}
	.st1{fill:#FFFFFF;}
	.st2{fill:url(#Oval-6-Copy-7_1_);}
	.st3{fill:url(#Oval-6-Copy-8_1_);}
</style>
<g>
	
		<radialGradient id="Oval-6-Copy-6_1_" cx="-265.4492" cy="450.1325" r="0.6373" gradientTransform="matrix(6.000000e-15 101.8666 101.0097 -6.000000e-15 -45451.7461 27034.9668)" gradientUnits="userSpaceOnUse">
		<stop  offset="0" style="stop-color:#F95625"/>
		<stop  offset="0.7634" style="stop-color:#FB4A29"/>
		<stop  offset="1" style="stop-color:#E9005B"/>
	</radialGradient>
	<ellipse id="Oval-6-Copy-6_39_" class="st0" cx="32.5" cy="32.5" rx="32.5" ry="32.5"/>
	<g id="XMLID_329_">
		<path id="XMLID_341_" class="st1" d="M37.6,25c0,0,0-0.1,0-0.1h0v-5.1c0,0,0-0.1,0-0.1v-0.2h0c-0.1-1.1-0.9-2-1.8-2h-6.6
			c-0.9,0-1.7,0.9-1.8,2h0V27h0v2.1c0,0,0,0.1,0,0.1v14.4h0c0.1,1.1,0.9,2,1.8,2h6.6c0.9,0,1.7-0.9,1.8-2h0v-0.2h0V26.9h0V25z
			 M29.9,20.9H35v13h-5.1V20.9z M33.9,42.3c-0.9,0.5-1.9,0.5-2.8,0c-0.9-0.5-1.4-1.4-1.4-2.4c0-1,0.5-1.9,1.4-2.4
			c0.9-0.5,1.9-0.5,2.8,0c0.9,0.5,1.4,1.4,1.4,2.4C35.3,40.8,34.8,41.8,33.9,42.3z"/>
		<path id="XMLID_340_" class="st1" d="M33.1,38.7c-0.4-0.2-0.9-0.2-1.3,0c-0.4,0.2-0.7,0.7-0.7,1.1c0,0.7,0.6,1.3,1.3,1.3
			c0.7,0,1.3-0.6,1.3-1.3C33.8,39.4,33.5,38.9,33.1,38.7z"/>
		<path id="XMLID_339_" class="st1" d="M43.6,38.7c-0.4-0.2-0.9-0.2-1.3,0c-0.4,0.2-0.7,0.7-0.7,1.1c0,0.5,0.2,0.9,0.7,1.1
			c0.4,0.2,0.9,0.2,1.3,0c0.4-0.2,0.7-0.7,0.7-1.1S44,38.9,43.6,38.7z"/>
		<path id="XMLID_338_" class="st1" d="M22.1,38.5c-0.7,0-1.3,0.6-1.3,1.3s0.6,1.3,1.3,1.3c0.7,0,1.3-0.6,1.3-1.3
			S22.8,38.5,22.1,38.5z"/>
		<path id="XMLID_334_" class="st1" d="M48.1,24.9v-5.1c0,0,0-0.1,0-0.1v-0.2h0c-0.1-1.1-0.9-2-1.8-2h-6.6c-0.9,0-1.7,0.9-1.8,2h0
			V27h0v2.1c0,0,0,0.1,0,0.1v14.4h0c0.1,1.1,0.9,2,1.8,2h6.6c0.9,0,1.7-0.9,1.8-2h0v-0.2h0V26.9h0V25C48.1,25,48.1,24.9,48.1,24.9z
			 M40.4,20.9h5.1v13h-5.1V20.9z M44.3,42.3c-0.9,0.5-1.9,0.5-2.8,0c-0.9-0.5-1.4-1.4-1.4-2.4c0-1,0.5-1.9,1.4-2.4
			c0.9-0.5,1.9-0.5,2.8,0c0.9,0.5,1.4,1.4,1.4,2.4C45.7,40.8,45.2,41.8,44.3,42.3z"/>
		<path id="XMLID_330_" class="st1" d="M27.2,19.5L27.2,19.5c-0.2-1.1-0.9-2-1.9-2h-6.6c-0.9,0-1.7,0.9-1.8,2h0V27h0v2.1
			c0,0,0,0.1,0,0.1v14.4h0c0.1,1.1,0.9,2,1.8,2h6.6c0.9,0,1.7-0.9,1.8-2h0v-0.2h0V26.9h0V25c0,0,0-0.1,0-0.1v-5.1c0,0,0-0.1,0-0.1
			V19.5z M19.5,20.9h5.1v13h-5.1V20.9z M22.1,42.6c-1.5,0-2.8-1.3-2.8-2.8s1.3-2.8,2.8-2.8s2.8,1.3,2.8,2.8
			C24.9,41.4,23.6,42.6,22.1,42.6z"/>
	</g>
	
		<radialGradient id="Oval-6-Copy-7_1_" cx="-266.118" cy="457.6747" r="0.8336" gradientTransform="matrix(34.3643 -47.4967 -47.0972 -34.6558 30740.5762 3274.248)" gradientUnits="userSpaceOnUse">
		<stop  offset="0" style="stop-color:#BF2A00;stop-opacity:0"/>
		<stop  offset="1" style="stop-color:#FF5A3F;stop-opacity:0.84"/>
	</radialGradient>
	<path id="Oval-6-Copy-7_39_" class="st2" d="M32.5,64.8C50.4,64.8,65,50.3,65,32.4c0-1.3,0-1.9-0.1-2.6c-0.1-0.6-0.1-1.3-0.2-1.7
		c-0.9-2.2-3.4,1.1-14.5,4.3C34.3,37,34,47.3,29.2,50c-9.8,5.6-10.8,0-15.9-4.1c-5.6-4.6-11.8-2-9.1,2.7
		C9.9,58.3,20.5,64.8,32.5,64.8z"/>
	
		<radialGradient id="Oval-6-Copy-8_1_" cx="-270.0275" cy="452.8353" r="0.9127" gradientTransform="matrix(55.721 14.5928 14.4701 -56.1937 8540.3369 29431.1953)" gradientUnits="userSpaceOnUse">
		<stop  offset="0" style="stop-color:#FF8415;stop-opacity:0"/>
		<stop  offset="1" style="stop-color:#FF94A0;stop-opacity:0.84"/>
	</radialGradient>
	<path id="Oval-6-Copy-8_39_" class="st3" d="M32.5,65C50.4,65,65,50.5,65,32.5c0-1.3,0-1.9-0.1-2.6c-0.1-0.6-0.1-1.3-0.2-1.7
		c-0.9-2.2-1.3,11-8.3,11c-17.8,0-11.3,13.5-24.7,5c-9.3-5.9-8.5,16.2-19.8,5.1S1.6,44,4.3,48.7C9.9,58.5,20.5,65,32.5,65z"/>
</g>
</svg>
